<mxfile host="Electron" modified="2023-10-27T16:54:57.788Z" agent="Mozilla/5.0 (Windows NT 10.0; Win64; x64) AppleWebKit/537.36 (KHTML, like Gecko) draw.io/21.1.2 Chrome/106.0.5249.199 Electron/21.4.3 Safari/537.36" etag="YcgjxeFwusbzFJgFW_Vk" version="21.1.2" type="device">
  <diagram name="Seite-1" id="PQTK53iZHoR8f-HVzt4y">
    <mxGraphModel dx="1688" dy="683" grid="0" gridSize="10" guides="1" tooltips="1" connect="1" arrows="1" fold="1" page="1" pageScale="1" pageWidth="1169" pageHeight="827" math="0" shadow="0">
      <root>
        <mxCell id="0" />
        <mxCell id="1" parent="0" />
        <mxCell id="aiQ5Y6wMSga_zLsW2kGR-5" value="" style="endArrow=none;html=1;rounded=0;strokeWidth=4;" edge="1" parent="1">
          <mxGeometry width="50" height="50" relative="1" as="geometry">
            <mxPoint x="390" y="514" as="sourcePoint" />
            <mxPoint x="390" y="49" as="targetPoint" />
          </mxGeometry>
        </mxCell>
        <mxCell id="aiQ5Y6wMSga_zLsW2kGR-6" value="" style="endArrow=none;html=1;rounded=0;strokeWidth=4;" edge="1" parent="1">
          <mxGeometry width="50" height="50" relative="1" as="geometry">
            <mxPoint x="767" y="510" as="sourcePoint" />
            <mxPoint x="767" y="45" as="targetPoint" />
          </mxGeometry>
        </mxCell>
        <mxCell id="aiQ5Y6wMSga_zLsW2kGR-9" value="" style="group" vertex="1" connectable="0" parent="1">
          <mxGeometry x="532" y="3" width="70" height="80" as="geometry" />
        </mxCell>
        <mxCell id="aiQ5Y6wMSga_zLsW2kGR-8" value="&lt;font style=&quot;font-size: 15px;&quot;&gt;TCP Segment&lt;/font&gt;" style="text;html=1;strokeColor=none;fillColor=none;align=center;verticalAlign=middle;whiteSpace=wrap;rounded=0;" vertex="1" parent="aiQ5Y6wMSga_zLsW2kGR-9">
          <mxGeometry y="57.35849056603772" width="69.99999999999997" height="22.641509433962263" as="geometry" />
        </mxCell>
        <mxCell id="aiQ5Y6wMSga_zLsW2kGR-7" value="" style="shape=image;verticalLabelPosition=bottom;labelBackgroundColor=default;verticalAlign=top;aspect=fixed;imageAspect=0;image=data:image/png,iVBORw0KGgoAAAANSUhEUgAAAgAAAAIACAYAAAD0eNT6AAAgAElEQVR4nOy9W68kyXXv91sRmVlVe3f3XJockiJFSjRJ8SLJ1BmJFCmKHFIaiZwhOZyenuEMZ3jRBToP58Hw1/BHMAwcA4afDBzAsGEbfvODYRjGefSLH6VzIJGH7N57d/euqsyMWH6IiMzI2rUv3bu7q2p3/gc1WbsqMysjOiLWinX5L1FV5RmAcw5rLQAi0h9j8/tOMCvHBD84yilnjXh2kEbEI08gOf+UDqf+yAZHoPjTn+uibbvk6mMvd/mIHcfJOfhw6zciJBGYjrmsuOooNv0ATwOLxYLpdNoJfgBrLd777m9hdS3y9IPIcxpO/2bEs4BLyS/l4ZSAtcjH6RbhsbTtfIzzb8T5iKPkFIXVWotzrpMPqtrJjKsOueoWAO89IsJ0OqWua4wx3ecwXKNOdsRJLfLk+Vu4+I54ijhbBJ0lAzU/6ZxZuO4+2zBxH+m5Vtp7oT46FeP8e5Yh2fwbjpV8XAw3eulbn12Ty4WqqlgsFqhq9/lVxZVXABLy3X9VVTjngqknfpYv4+sH0mkKgwG52oNkxGlIO4rTlYCLbIIvMgFPu8+mJ+9lnuvSfSOAFk/F0jBiC6Ge9ZsyOM16u6oAABhrsdZS13V/n2dDLD4bCoCIUBQF1lqWy+Xgu9zTc7oSsOaejArAiNMVgNNk0rqRcrYN4ayxtS0G8Ed7xofpi7XzcVQAnm1kCsBF1mtYbxfIr51MJjjnaNv2mVACnokYgOl0ymKxoG1brLUYYzrXgGvbRzIiDoaGbstCPOLp4+H+7dd57PPdyMPh0a98fHg05ffSwr/74oxAxBHPBC7zz2+LojP1e++7DeKz4P+HZ0ABSKb/2WzGYrHoIjydc+F7Ti48gwGVVEddv2TJxhfgEZvE2jgQ8Zy1ebjIiDn98vW+zc3i/Gda3aSvO+vshXycfyNO4tQ4LPH5Cd3YWh0tbdsCw0DA6XTKfD5HsgyBq4or7wIQkcGO3xhzIuLz7BvE4zoFQDyiYxjSs4oQRHQ5E30yX64ee6yzF+T337QANJytAJz0wZ7d3jUQxvk34gT6IL7zFYDTkMuBlBmWWwSuuHjcfQVAVbt/RO/9IGozD/w7DWIN6j1gQZWyqmhiMIixFh8tBf0F+R9hARrxbOL0GJB+8ZE4HjWlnEbuCWMt3jfrpeHa0Prhb+TjNKQ3mad/XPcsCXKKYrKmvcaWYZ5lvByDfpPYzyfuNVoAnmUonBwbK+txvoZ349QoeEEsqDt//OQiMpcxuezZVey8AgBQ1zU2RnIuFguqqsIYgzHmbA0uHzxp8dEwaFJ8ACJnLoSjAvBsY2ABSDvVPN9YFTGGoihomqYTcN14O01QZhBjQE2/K1lRJjaKFaGdnhHJnvMsqBm2Q4SyLEMQlvdx/pEpDMO4h1EBeLahuYV2nYKq2vn5g5LJyrw5O4ZERPDe472nrmum02mXQVZV1RNs2dPBzisAqtqZbJbLJZPJBLjY7h8BW01xdQuiYWD44BMyYgZEQavXDRekEc8usjGyqgAIiBRDQWhsGGcQx9rDCTCh90vmsSybwiCeRgR96JAsAyaGIqmC79sjxqDaxu9YqwCMDoBnHBcw9Rtj8ClQ2xRxoyfYqsDViwtFEaY5l2RMcinvugXgSsyeZJKZTCbUdd0tSGVZnnutq2v6HH+PLQpQUA3pJWtfGo0H5+SAj7jqCGPEko8LPxgfEv30ZRkSTgtrwHtwHi5AMlLYAiNgjQ3jTZWyMCF41bnTx+hTeqVnKItobVOwRjBiurl0JkzfH4UN/RH6yvd9qSv9m/X5OP+eYcjK+DjlpRoUclsUA4uRW3VbrUGSIc456rruNphXhSBo5y0AECI5nXODf5wU7Hc+DGJMMPW4BmsF75QiWib9Gbc4LbJ0xLMBQ1hgzsotFsCtfAZhvIkxIQ5gFWtY8kyylLv+822ZuPmzWCM4FO8ZuPu7E1dgTBksbaqskm2J0LnYTsvj7q8a8SziPMZ+E0K7aD0YKzinmMKiXqJl7vzRk4IDk0V4uVxiraUodj+J7kooANAHZDjnKMvywtGbXRBg1CKn04J60SJAIeB17brV/+7jePgRO4m0w0jQlWNaWqoqLCCtgnPB1ZR8i92NsgtzYVeVhroJu16TSdPSho2z3/AANBKUk8ZFjgMBF58pPfsJwpWVTutidVSxVigkfFbXQdsx2SWrc1EZ5+CzjPPWZiPQBsMU1bRgsWh75dyaCwUBQnBvNU2DtfZKBP8l7LwC0LYtRVF0+f3pH2aV8/80dCmCQFmCa+iEv2YpRqcZfFZ3gCOeLaxjE8s/84RdSOuCoHQ+fFYUBsV0echwcpeb/r5+bcaD+3MAyrigbaMFoMgW2+v7Mw4fhGdeVYjy5y5tAeJpW48BkoeksMH6ttoXp/094tlDzuW/7rt0lGxc2hLqlk7xvIh8gF6OqGona5Ls2WXsvAIADP4hRARTWHx7UeOgwRSCto7SQKnw939zi6/9ycuob7FrKEwke28UhBBUgozHZ+kYIpANXgA1fURyGBmoGLAV/8f/+X/z3/53/wOOsBAB2GiOzF0Fw1EZPrteFfzge99lUliadhmKWi1CIFLbthvfiagqRVGwXC6pphMWiwVlMWHZOv6n//V/417drjXT5+1OfQFBibDAL376Nt/6s6+CqxH1mBN8AmHuhfm4HeNhPD79+ee74W/WcgI4FDEF/9f/8+/5b/7tv8MBSwV5SBmRgl01+uCugvCHK8AE6Np6IPwRS1DWTi/iA/SDxU7wrgnC38Mnb8LfvfUq+5WwV4V0JNTgpb+fwSMxhUsHexIdj8/UsYePtLwxQxgQHAWN2eP/+3/3QONINCErwKsPCoP291BMvK3HKVTA89OCz37sw1jXYOyNkAZ4Y4+pjalyZnVkP12IDwrAwjVB+X7hOt4pzpY8Py14ULfUQMeVoPSBWLH9XhWNsTjet1jgY8/v8cef+zilP8bS4lMwgAav71Ah2PQ4GI+bOqaxpNg4+8I4MxpSUYui4Lhu+OInX+V//x//Hf/0G3AGGidgK3BLVgsKQT4tA8+H84BYRCyqjsIWuLbGFrudCrjzCoAtwoIqxlBW00hIEhZSYyzenfOPqwIYxIedx/tvvcaLM8PUeurjO0yKKgwPNXHYJf63NixeEnK0Rzyb6JPSBBXFagosMrRSgjc0iyMgmSwFxKCn1CYnUwJQmBYFpToKbRGvnSmy9IL4FuksEZuBcRoC+bVBgdIZWgSrhmnaIUl8nUjhyyAm9E2Emx9R6IKJn2Np8BL6VKNtRHbfcDnishAfBD3gKQAhbcisehClPa55bm+fibW8/9Zr/Ff/9f8SMgfFsI5DI43QpGYEwi6NczUQxQGojxljO46dl1zOBRNPCtIAQD2oP8c8GpvuG9CWysKL1+H7r7+GtcJyubgSJp4Rm4WqcnR0lH+QH1YNCScwm826cZyP523y3OXPkj/rbDa74PWrb+Do6Gir2jhiN5HcU9Zavv/6a7x4HSoLaNuneEmQ78pJ9VREgjyJ2nrTNIhYxJrObbXL2HkFwNqUCBI0umm26Li2Hqyv6R+5/9ADjsp4vIO3fvRdnr9xDde2tHXT5SOvHxojRpyEXxHoKnD37t1Hvt9sNoNEdhXXm7xIySZ3/xDam6Kik5UeH573ogrA4H7x+JuD0Gebbt+IHYSE3X/i32jrBtfWPH/jGm/96Lt4B5UJa/+ZtyHIkADPdDYZKKm97Nld7LwC4DW8TPzHWMwfAB5rhbLomzc0+/e+olI8lcBM4L2336JezDHquXZ97yS/OfmCtPNdN+IJwUtSBAxGCu785gCgIwAMCf0Xu9fedBZoTGNhkiT4PduRiiQieJJVQwfPujc9RwFIbn2l65zUpDu/OcBIQRdkOWLEqYiRN2vGSVPXXLu+h1FPvZjz3ttvMROoJKz9AWGc5ZaAhLIwWCuAD7JFPKaQTu7sOnZeiqlCWVbdwpj4mb1ztO0Zu/boZy0BcXD7zW/x0Y/cpCoF5xpK01OcrnaSZgv86P8fcRJhXCTBdSfuZh9FXs9ms5BpssbMvk3In0mitWI2m5zn4Vhzn3AcWE2iwq6EuXcF1t0RjwNxXHgZCn/JBohzLq7lDVUp/NZLN7n95rcQBx1PbIwDyzeGCW3rO7bLJFtUNcqcJ9e0p4Wdll4KYMD7UAsA8TRNTVmcLFIaMPxECIPl+Sl88OO3mN+7S1VYBGU+f3CCSni18Mi4MxlxHgYxAElZXNntnrwovATYm0w7zvHcv749/nEzIEbpnxWm02l/WnJfrFw9sIpA10erMQDb0toR24XVNXh1jS7Lkvn8AYJSFZb5/bt88OO3eH4a1v7zikkliVEU0DSxSqwx+EhSsevjcqcVAIBqsgeAa9uOL71tAwNUGhvhH2mlqeqxhMj/V1/5Iz568waTAtpmTlUli0JOJ5FDxp3/iPVYGRcOZT53QaafI7TX6QNlWZ4QrlsJNSeUlMmptThOnzuqgRvheOECpfCJFB55aKvCiCsOzbkioRfLPXlPVVW0zZyygI/evMGrr/xRt/735/e0b3mMbiFBpqCR6jqSd1WTTMHdUeyMFDtt8fRNz6Wem+y7zI0MgfM/CHYh+P5L4Oc/eRurDaUoFsXFnGa/Rr8TzUxMoxIwYgXJRK1d2ptw9174zqNhpxtjAFQhxRFJ/C/8Ed5Z4Pr167RtS1VVNMsaE+tWhNM2LwrzZzHG0CzrsNi2LdevXw9FezT9zw/aaa1k2RChX9KcC30W029PaeY4+0akNXiwLmfwHUV8g0XDGq8NP//J25SEWIBUsEskZJQNbk+MMYt/55H/uewZXLM11rnzsRNzyDnXLTTOOZbLJQBGhlGY0ZPTIaR7hk+KskRjcNJsWgXNT+G1b3+Jj958jtJ41LcdX4kXELIMgxEjzkWSVEHwq8C9+/dPGhnjArEqvztewPiFJ/gdDdJFHCXzfx4QuEmoaiiskvOje8WIUFVV3/b4XV4uWCXrgzVtuXf/fhT+aWaP83DERdDPQxHprEhiQH1LaTwfvfkcr337S4iCxTObVHEse4pyQioSt1p4elUXTTJouVwOymJvukz3RbH1M8p739EwpmIMk8mkz/nvz+zeDYxBqhhb0jYN4DECzaLGEpjW3n7jNV68sY9Vh7ZLDL1/NUVzr/MS6UrgyYgROaK45uCg5wAQiaXJMgWgqwfU+cCHO5nZdNoJ/XROirLfFqTIf2DwrLPMRCrQBe307dChAqAa+igi9J3svJ91xJPDaeuwJ8/GiXIAQdslVh0v3tjnrR+9RkmwtDXLRTT8e9qmwdgSzW48+ImVAdk0DZPJBGstTdN0tQLOqzOwDdh6BSAtFtbaQfGGyWRyYgu1TkNTlS5f0xhDZeh8P9/608/xpS98Bm3mqK8Dj5QhW6AYzfwjzsX6ERJ2DwcHIQVwsGZI8k2u3fj2p0FX4tr7nthKtbcGbBrJSpY/Uz9HyzPKtZpAdphYXTOk6JvUd+mXRox4KKgZKNjGBHVSfY02c/7g85/hW3/6uU4elFa74j+p6l+OVQtzvPFgjhpjOnmzDfPzPGy9dEvmlLZtOyUAIvkIvmf9y65JC4gC2IKmaZGyCjsnBxMJmZ8/+fEt9ipLu5hHA2NeotWOO48Rl8bR0VE3yVYXlPzP1e8MMDGxWl4k1smj/7clIDB/DlVFjIaCKd5RFAWlXZNGm0f3r1g80ncGBgyKXVzFiBEPgUD8FgSy9x6DYIB2MWevsvzkx7coCDLBO/C+RcoiRPzbYihLIjprVszU6cZsFP5t2w7c1tuMrVcAkgsg0fLmptCeiek0U4uJXwkafTIpqOPLX/goL//Bl6CtMQJlLCWcmzKvAtPTiCeLdYFHOQ4PDx/ufsagcQzOZtMTGQD5YrMNbgBVHSrlmUJgRJjN4ryN9TouCgHuHh2O/JsjHhkqDErEJytaaS1GgLbm5T/4El/+wkfxmmWNOUcIQFXOE5GBJGiYmlsUxegCeFxY1aLS30VRxFrq6zu5p/xVTFWBKjbWWZkaeO/tWxRGQR1lGSo8IZFtTWKRURlGIAcq1lWuqBHPNobjb9UneXBw1I+Wzs+vq96rLjguH+95Hr2NO5fcArAtCkBuATAK9pQ2dOetzB8J26iVc+DgbiyidOpGavsX2BFPC2FdNiemhIlreZw74tG45qOOwijvvf0jplE22DDJoswI1581y1ZL0ecYLQCPAWmRa2PupYhQlqEUqjGmKzQGidk/WxaiwPb1MrgJYsW/T378Gq++8g1El6g6jDGDCE4Adf5qcD2OeKLohX1YgHqLQKhed/BgTpP+6krahkPKCMyRUpIMMKl6hks1kWAnG5Pr0lSfNnziUxeP+BDEpxK8parKpKzCItPtsHpujUH7NVQ/lNhHLXD0YA6YsKinvpNRAR9xcaQAVdF+bXfORQuaw/olr77yDT758b2QsuoB9UFmZDVgTsiWNE+NoW3bAV9HklXboKCfh61XAHKTfEL3D+j7CtCKCTv2jJ1X8FhpEW2pTNhBVcDf//w9pDlkalqMERrnY512wWARNVgx4PMFXfua5Jyedzri2YKPwX4Dn7zXELtuhH85OKYhqgfeY01YVFS78JUwlgHF413TRSY/t7+Hiket4FVovceKwRL87LIFA1CMojRYBCuG1vuw4zKhdO9z+zdCgBXgXYPi0bhwqpJxqnusDWlYHlgC/3JwDEZCX8a5GHy4SZXY+uVrxBPG6jrsMwVRor/XikHUYLCoFzAFjfMURpiaGlvf4+9//j6JAcBaBW0x0iKhGHyyL6AUXclhoQ/8y9P+cpfDtmPrZ1Ay9ee+HIixAcZmwX9RFZBO+odPNbI9ecesgI+8YPmzr/4x1/dK2vpBuNfKb27BujpiR9AVwNEWtLciiYJ64f68JnoUA9YxVBFO6GJbiEGAZXXmb28DFbUXHzkzfNw+DetjJAtAiqYRkVMD+kOqVoAD7s9r1Mtg94Y6vLZbw4MwYvuxliAoHt1yzo1ZyZ999Y956aZlVoF32lmWu5Es+asf36u+/hQ7lrsGthlbrwDUdU1RFJ2mVVVVF5znvMvW0mCSyRfX/N/dEOgc3//xbT7y0k2Wx/Od+AcasRvIBVIesHf38ChaCMJ5XpNFa3jtOkyn07h47aKgCzv2QT2A/NtBcaNw7K19YTbfPTw6EVg4Cv4RjxNFUTCfP+BjH/4Q7//4Nk0NtqfkGGYABDNeeMU/087fWhtIu2KqelEU1GuqyW4btl4BSBWYkqbVtu0aEiAYKADpX0z6is8W+NgLltu3fsD83gF1veiil0eMeFQk4ZRHwudC6s6dO915p+E0gTabTTrOgIAtH6+rnBniQxvWnXqGEE99lfputU8THfIuBFmN2G4YY2jqmgf3D3nnzR/wWy9abArV0Rjjk4aZ9PErq2iahrZtu6w16GXXNmPLV5TQsd77jmxBVZnNQp3xQNUYfbAQBX/K408lRKUzqX7w9i32SyhxPHf9BsvFei7nESMuCkOIel8l6cEYxBYZmU0/1YJ14OS9OgbK+Hca5+t/dctwCmFWakNq0zrBr7qqIIV7HRwcILaATLmCaGYV2cZeGLFjWC4bbty4RiENeyW8/86tQAwkdMGs3XzL5QsAplP8Z7NZNz4nkwne+1M2qtuFrZ9DZVlirWW5XLK3t4eqMp/PgUiJCpAFZaxnbIDn9+DWD/+a5f07TKyEAMExz3/EJXGCLSxTBrz3HD9wg/NO3fem3Pn0J2cpANuPJM73p2vacMbO3QMu9tXxscvcAubEjn90BYy4DDxgCotRmBphef8Ot37w17y4H2LHZA0TYG8QCDM1jc/5fI6qsre3x3K5xFp7opz8NmLrFYCEoig4Pj4Ggtkm998nuoYBFbCazh1ggVvf/w4fem7GtVmBtnOOjx/shIlmxHYj+foTP78xBjEW1yqLxYJ5G32FA593Ig+hW1HkxC44CE+j6ZRk69pumC4YMGA2mw0CqgwSqwMSAx/DeXnbk2CfN7CY14FVzZiO/Cj19egCGHFZVFXF8fwB2s65MS146bkZb37/O1hypk7Tae7rBGZRFJ0l4Pj4eKdiy7ZeAXDOdZkA+c4q5VquIuUcd3mawP4E3n37Ter5IaUJyRxVUeyEiWbEdiMvz6uEnSqEXODjRQgCEpG1RD+5/EqZA7nLsaxOX0i2IQMgR05+lKKujUKV7YI6V+oZfQCRKCi+XywWtE1UKIx0roY87mLEiEdF0zRBgKOURmmOD3nv7Te5NiGrYzFUvFdHXfL9QxiXKQNgFyoCbsUMSp2Xm/RS5/WMf6eb/NblQ5sYylkAb7z2Ch+7+RwFngKPaDLLPrYmjHhG4b3vqn+l9B/vPdV0wi9/+UsgjdsYk5JVzuuyh9SgGpSENCQNcG1vP+Y5r9n554QXm8QpzxGe2bO/v9fXQiAId9VekKc+6Csc9v2kwD//6pdU00mn9Kd+ds7tRJ71iO2G6/ilXCcfPnrzOd547ZVYMt53siQhZPWsFx45cV2yBOSKQBfnsyVjdwtWEDpNXkQeqZxiou81AmIlEDe0jv0yEP+8/84biC7xzRyvLW1bd4EaI0ZcBsPgP9PtXL33PHjwoKOkPlXXXCc8ie4skZUsgJVLN2wFOG/2CHGnTp76f/6Sk/oM4MGDB3GeBgqgjtKV3aBaHbHdSAHmbVuDb/HNHOuXvP/OG0yA/Qp86wJNsJVuil80/mS1nH1XJ2NLrFcbf4rO3zef45zrgv6ccxfz0YsPvkRjaRVQ0xGPuBp++L0/4dOf+CiWhmpS0LY1xWQ6Cv8RjwVdzr+X7m8vBodw9zBmAEQhfyJgdd394jfTcmjiPslxvr3In9UYw7SMfXPK+bly0Odch7bfPTjEoYFsKClbXsY0wBGPBSrQek8xmdK2NbOyoNSG/+wTH+VH3/0TXN27AhSD80HWDGmtT0dVVd2GtixLnHNdEPs2BLFujQIwm82w1tI0DXVdd0rA+TcIh+Bn7SukzWzY/f/Ne7d5cPgrRGsmpWBMIBWqd4SpacR242Qwmuk+O7j7cJUAgc4JcFoGwMYn7DlYtYwa7dsyTHIE1JxrGTg4OAj1BbrFsle0tmEBHbG7UAFbFDSuxXkP1jApLeJrHhz8il+8d5sSmEYx4WO4eRfEe4HfSMK/rmuapsFa28+HLRi/G19P0i5nuVx2C2diVLqQhh+Jmp0HMDiFqggMQH/9jc/zyY+8wIvXJ+DCP0BZVdxfLENakd1480fsOFKJURgS1lhruXfv3mDXfzp6xTWN+Nl0ilG612nXbR7rnyF/5llkA+zq/lygzGqyBty79wBr7QkyoLx094gRjwpjAn38g8WSqprSNEvE13zo2oRPfuQF/urPP4+2UJYSCADFRFmzknV2ClKwalVVndK6XC77394wNv8EBC1pMpkgIhRFcWKyn4WUUqQIUpSAwbeBU/z9d25RUjO12gX+NV4pqykejcGFoxlxxOWwTlE1UnBwcBRPOPcGJz6azWZn+v+3ZOpmOPk8SQlYa824oPn+4OAgLpTD+4/m/xGPA20bgk+rckobIwLFOyaFUlLz/tu3EKBto9JalCircS2nI5dlRVEgIkwmk63JENj4KpILeVXtzCSncYivoi8nqqj0vtZvfvUL/OEXP8d+JRwf3aUoQpnSpm2ZTme4duQUH3F5hGhgfyIwzaPcSTEAj4DptLoCQk4Ro0ynj863cefwAL/St6Gv/VZUQxyx21BVnFMms1mXal4WlvnRXfYr4Q+/9Dm+9bUvrHACDK1152E6nXbu7VV5t2lsXAFI1ZOSRlSWJaqBROXca2FYDrKpgRYDvPfODxFd4tols0lFaQvquqUoKhaLRSjeUJTsZqGVEdsCNYIaCaxhXjEmBAu1Xrh3vIwnxToVnf/brIy6mEMcCt8iQFWUFAKIi4GuqS552g379emBTxExkW/wiUqoEJie2UpoS8cBEEOqhL6ginZ/5/cK7+8dL2nUBu+rMeBDGq+IoDIyeY64HKrSYq2wmNeYomLRhNiwyaTCt0uMLnnvnR+GuUgLbV/g56KSY7FYoKodM2CKC9gGBX/jCkBfuycV+AjM/aUthhUY17wSSiNxkW2YFPAHn/8IL//RF6kKxaJ4p7StUhYzXAvWlAge59aTCY0YcVF4DRkA3imFMXgXdhGt2eOXd0K0b6opvjpu4x1AXagiFsWgAi/szxDXAC1e2o7Wykl4GTx2wwoABOY/gx88m8bF0miL+IYb12Zduz2KGIOqI5KxkmdGSNcLoW3/cvcBjdlDpMA7R2FAfYvTMQhwxOUgCr5tQ8l4a3EOinLG0ineK0aUiVX+5Mtf5D///EeYWIAwJ63JyKzOeZVFn+aek4Ztw+jduALgfXjZjGzBWkvrWgp7sSh955WqjHuLFn76k9tU1qO+HlADG5WellS3oPEjdhopD9+jWGM6a5Sq4KTg6H4M9ll7tTnVhthZAFAQ3/2OSv8KsS9+ba3zp4fh76tEO4ekpvnAulnaFKt7JvJ+EsK97t1f4qXAaWJK9B0lsG7BDmrEbsNAR7cNxAlmesuUq5kYz8/euw0tWIWqsDivFxLgRWFo22HdmcBxkxGBbRAbl4HWhJcqFEUFeLxvUaBxbfcPcdor7RVc4ygFPvupG3znz7+GUY/EfyTf7UpGjHj8UI3UtSb3UcPh4b2Hu0eEEPyGHT3wiZVmC1aOE1j/TCIS2pJ9Nty5n92Ww8MH3TUqGe/CuPsf8YQQ3Fh9BUqjnu/8+df47KduUEqQNUnunCefmjYkD6aMlRTknuTeprEFjwDOKao9ZWJVVRfP0ReLEdPt6n/23i1mFtTVceXM/K2SqQxjANGIx4SUvtrRfEpQXh+cH8ZyKvLyoruGPAUwL9+9il4pOF0JuDdnUPdjta9HjLg01siFtHEUFHU1MxtkS7IWGDEgqdD82SiKoiO1c87FwK+MIqAAACAASURBVMMxCwAgRv0LVVVQxeIny+WyL/5zZgBA+Efw6rk+gU98CF779jew7QOMX2KQWDSl9zOaQBd0IuRoxIjLQlXBhB3q/HjRKZ4XGWerAm063X22ShO2PuxNVjJ6HkJ4K4EldNz5j3gSSHIgyYWALC5FBOOX2PYBr337G3ziQ3B9Al49SLFy/slXKg6Ucv+rqqKqqi4rYNPYuAKQR0bWdeDoh4vn+aoP/2j1Ev7up+/x3BRm0mJ8G0wsamLk9IgRTwZJMKnvTdR37ty5sJK5bqjvTU9aAFb97flxW5EsAKsBkKttPmuG/vrOXRDbUS6PpYBHPGl4QpEra8D4lpm0PDcNMqbukntSEOvZSGN1MplQ1/Ug423T2LxkVIcRwZiQ+7xcLrHWUlQlZ4ZZdHlFyqQQXnoe3nztVXR+hDQPKI1HvENFUJFuIRbtl+VtXzxH7AL8QBiJhCi9X//614PJlYL3LoIUA2AIMQC7HLC6LgYg4bTZnftQBfj1r3/d3Su/74gRl0U/J/u0Wg9RboB4DbKkeYDOj3jztVd56XmYFJK5Ds64vwpFOcFay3K5DPPaGIwI6ObdAJtfV7rqabBY1BhjQuWkuj6fLUw80OJb5dYPvsvUevZKwfiWSV5LQFd5m3bbtDpiu2DMUCB5lKOjo0fimDRAIWF3sItCzkCntAihhl9VlMOFZk2z8qCqwakCR0dHwRqimVl2C2hUR1wRnGDclE5mONcwsRbjW/ZKYWo9t37wV/hWY+r5efcWmrjrN8awWCx6194WzO+nMotyX2Z6n8ybZoXMI/hW4h+qgO0mvrE2BForIQ9TYWqFvQI+eDek/rXLY6wB79uR5HfEE0eqY5+X/TTGcHBw1KmZes40yy39Rgz7+zPUOcTrMEVpB5ECnvb39zFZP5zryk8plgoHB0fdxsBai3d0fT5ixJOEEGSJNdAuj6ms54N3b7NnYVoEC0BIYfcYE2RUf7FkA92cSPtLsq8LHl4jJ580nooCkCar977T3C/awHS+LQp86/A+sDd5p1hAW+Vvf/omswJcvexKLgKDTALFRNMOhODBcfEYcXnku/Sc9/t4uVi7ow1YP+3SnXZ195/HKAzeiwz9nRcV/oAD5osFHu1e+X1HjHhcCDwWMlDYkwxJpepdvWRWGP72Z2+ibZBB3rkgk7zHuwYbr7molSrJQmNMJyefVrDrU1EAEu3hwEzq/dmpEBqCMLxzQavyyWIAvnEYYK+AGxbe/v6rVEYRUUxRYsoK5xSvGihaO0jgLZP+rxEjLos8NU2j4fvo8P7KSfG1OuVM2CjkcyMVxhr4vPWsqoCbw1lxDSF2QboCKB1EYptPu6nprH4QXACp31KmRVggt7BDRuwUkgzwQicXuu80yBDnFFNWmKJERKmM8vb3X+WGDTLIEGVSZ7kOMstfINXPOTfYDKd5nxMHPUk8cQWgrusTubtJm7porn9VRtOq9IugAVwLP/reV/jYi3sUEkyvdeMwxSQQina+lj7oLw/6CHmfoxIw4tGwjkpCJPD53zm4e7EsAI3BbvFeed78rqS8rS6cg+BHDSrR/myGRPUofH7SDaD51dlcvXv3bvhIhFQHYcSIS0OGNTqUjDAu1d7wHo9gikmQLcZQiONjL+7xo+99Bdf2490E3RQXLQIXQVEUA6t1Livruj7n6svjiSsAVVV1Zo2E1cppA6xo/+BZLpcIkLq0MrA/sxTAz9/5EYVbYI2GQMJWWTqwxRSi17FbqGNgRzLxbOOOasRuQaKfL43lPA2wH93raH/XCzFF2d/bi7S3PW31rmNvb+/srJ5TIMCdOwcDi0haIEcXwIjLIs0tTQV+U6Bpl3ljsMWUpQuyxXuwRincIsgegiyqonCy4S4x7/98RXVY4TIgyctEHvQk8cQVgOVy2UXt5oE8D8V0puGfRzV0sPMwnztee/UrfPqTL1H6BUY9XgzlbJ+6VTBFVzY0ETyonB+QNWLEo2BVAbh79+5JmX8BeSUEFsCrJNxE5FQ2wDMRl4ffHNwNaVmm7+MRIx43cmlkItF8cDkV1K1QzvbxYjDqKf2CT3/yJV579Y+Zzx3OBdmkSXG4oGxLFr88gNiYQCCUyIOeJJ64NJxMJl0wRCrDKyIsFgum0+k5V/dI/pWqDPcqBT54921YLLCuQX2LGAPFBIoJjXMdl/oqVs08I0Y8KlaDANPx6Oh+RkH9cPdMdQCuChIXwMMh+vzJ0gAZ7pTMTudHjNgKZO7hUDOmF4miYew2znVyRYxBfYt1DSyP+eDdHxNFEmnDbtYOy/UOwel0ymKx6Pz+i0XgDzfGDONmnhCeynY4xQFMp9POdJc39nRdyVOWJQq0sd7KsvHsl/Bnf/x7/N6nP8GkFBQXFgNVFg+OKYqCpmkoy0l3n7XCXkdrwIjLQZLLShRHsEI5hONFngUQx14c6IP1If1hlMRZObEGkegLjEGryXIlCqa73abHrxm8S+ZUH32pPlKhWoTKprM9EnMbV3Wc4Z89Kct8UceCygaHy35vVABGXBK5yV+hlxVh/JXlhKZpKArD8fFxtEYHmTMpLF/49G/xZ3/8OfZLSNQ1bYzrCZkvp7n6wivfFOcy8mn4/+EpKQBFUQyCAIui6IMeEm9yxxXqo7/fY4G2abqAIBe1s7aB/+If3mPiDmh8ixaTcCffMCsUmgVVUVC3LSphWRXVrta4xGhsL6vxBiNGPByMMxgPIg6Pw4nBS8kv70IXAxxnu6ybbnH8+UgqUgLP700QdTjv8RgcBc6EHUrpPTaN340rABllqgerHtEg/BspQl94j/GOF/YnpNIp2nGB5LERBiiysqzp/vAvd8AbgxPwuKBAxLrDoxIw4pGhUQZgulLTQT5oVGINddtSFQU0C/ZskDGgaDGh8S2lO+K//Pt3cZHW36XKsxJklyXIsm7ud3KurzfgnOsC4tMG+cLF8C6Jp7KC5EE7xpiuuldwDZx8BBOVAICiCu9MWeJ9+PzrL3+aT3/8JpbgI/Hd7ki7V0Kuf/XfsybYcMSIh4PRflyLUcQozsODRY0jyjAh7ihSSNE6gdWPQwvsVSWoR410mSvdGCcLXNqw7BvMLXpZniwAqXwv6plWZQqzilgNjDRdD4UbBkKwtFM6ni9x6rsYi7Ew0IjHgkwOnCc7TPZ9mo+FLvndj3+Yr/+rz0TSII+JnBdleQr7bPaxMUHQt23b+f6fZoDrU1MA8rz/FOiwjgwocCpBYlluXegI37ZRm4J33n6TG9eur99RjRixCWg/eQ8PDy9+XQoezIby/v7+gDRrl5Hm+f7+fvdZ19aHWOQODw9RL0jGDDpixKYhYrh+fZ93b7/RyScfN7itk/We/0xvTfM8zfXEC3BlFICU0mCtZW9vDwjEQH0je/9oHrAXlACDusACKF4pgC9/4WN87eUv0zTLMQRoxEaR578H61TIBTo4ODrjqtN3rWkX/VAZMjuAFOl8QV60tZ+mPk2bCdi8BWTECADXNPzpn3yZL3/+Y5SEAkKFLfCeQZFhgRPTX6SnEYeQLpvk49OgA37iCkAy+zvnuvrH6ZjvcBLFR/qk7ycblACgAH76zg+ZVYrElIkRIzaJnNo6mKYNh4eHa5TT1cm8fuwWBO6Mq6YAVFXF6V7N1b4Y9pUQLAAiZqAAjPN/xKZhjEGdY1YpH/z4h70VwBNMXdK7ujoXmA6vBwayMaUDPg0rwBOfQakOQFEUnanDWktVVTjvoq9vjaYjhM4zBvWeAvi937nGt7/xFWgfIOrijmvcBozYFDQG/AShpAIY4c7BaZUA12WiSAwQDMgzf66CEpC3IbWtWwSzCn9n3oNoAYgxEbn1cJWFcMSIp4fgkhJ1+PYB3/7GV/jCp65REANd5SQbYKcERLnnnKOqKqy1nXwsiuKp1QN44gpAalSyAqRiKXVdd0UT0oN0NKHJFhqiKjB4psBPbr3BtYlSGYequxIL5IirA2MKvIOjo3sPwXk3lGDT6bT3C16B4W20jwM4yQWwKr3X50orcHR4D+9iH8tYBWDEdiDIM0dlHNcmyrtvvUHgoPXBDBDlWHJXJUt3QlEUXZp8qpyZy8wnjSf+Cy4S8nQ/GBcDEcG35xVLCJEAlcBHXrB87y+/iV/ep5C2qw8wYsQmoRrGd2KpUxWOjxc4MlE2kHPrhZxIIBApyxJUsXJ1zNtWDKiG+h9r8v9PpUyN5ylwf75Adci2OBYEGrFpJN7/Qlr88j7f+8tv8pEXLFVn5jrbj5/k42rQr4g8Ffn2WFaZtm271D5g4O9PjUqm/9WiB2Lo5nBheouAFAbUI7SUwM/eu81+JVh1VEZo6xo7+gBHbBjOOYJ8U1DBmIL/9KvfXPwGieEu5g1ev3atm/ynMVnuChKTWmrLtWvX8EpfF/00C16eUxjxn371m5AylVIvDeMGYMTGYYyhaWoqE2TTfiX87L3bIRiQNsiwIisvnGScxvCAlSJ5yRWQ7g19XEDCqry91PNf9gbJv5+IC+q6xlrbVThKjWjbtmtgIgby3qOZgtR6hweKArQJX0wFbt4o+e6rrzAtDIJnPj9mUpZYK4w7gBGbhDGGNkq0VgNxz/FxYLgUpBdk63zVa/zfZVmuLRCy6g7YNhLr1VmYVzeEsNBVMT+6V2pMdjyNMS30xfHxAo+h1b5K2xgEOGKzUGwhVEXJfH6M4JkWhu+++go3b5RMkwWr8RRFTGv3vSBX38ezFEXRbZBznpxUOdda27EDJnn7OLIELj2DjDEsFovuYVIFo0RsAHScxlVVDRoomfz2QEsopZrSqUrCwvfOm69z88Ye6hr2JlOs7ZWNESM2Ciu9S8uDMZbDw3sAp1S/W8/fJ3KxQkDbrO6e9WypIFCMmTyBRBN88p7hroeH9zDGBuuBkaB02TECcMRmkWSQtQV7kynqGm7e2OOdN1/HaJBhEGSaEmScJ9sXxMmQNshJfiaZmRPnpe+89ywWi8eiAF/6Dom/OD1M0vittR3HcaoIWNd15woILgCwqQpj9khN47AKpcKNCt679RraHIN3tK2nqR2t9xTFxWoujxjxpBD4+h1iTff3nVi/HszJvN9T7pM2+49UNW9HkBQA1dP7YbAgRcpjhVBdMS6WxpjQ51eoYNKI3URRWLy2NLWjdh68Q5tj3rv1GjeqIMOsQtM48gJXEPRXkRD8l0z/dV0PZGaSo9DLVmNMVzPgsngsCkCK7s8ZjPLqXXt7e7EwAh0jYFEUwQ/io0kw+f2KYAKtTMinfPfNb/L8vuXatAJ1LBuHKSvKKnT8iBGbhMcFq1WqV6+Gw8OziIBOQujN4nuTKeL1ytS776hNfSx0woUrpQ5weHDUsS0GpSv0/YgRm4T3LUVZYoopdeNQHHuziuf3Le+++U0sUEVfP0XZyTlDzH7XvjZOsqKXZcne3t6JCpid2zyTuZfFY3EBpJ1+8lkk839axI6Pj6nruqt7nBqjsWqSJf6vCwg0qId9C+++9Qbi5ywX96OfpKIsQqpU0yzXcwiMGPGUMBDUJgS83btXX9hUv1ob4CpbAPanoW0dE/BDcHgc3a9jMGG+fmyzQ2TElYd4mnYZ4uCqCmuqkNa3uI/4Oe++9Qb7lhjnFq2BodJdn/KuvRvAWstsNqOua46Pj7sxntwAOUFQHix4GTy2LIBU2jcFBeZFO5JyMJ/Pu0DApmmoqqL3Caa5rB6ND/b6X/0pL71wjWvTEiRc57zheN5EheLJ10seMeIspAnqVVAv1HXLvE6K/sVcVEkQ5jEA5gwz+S4hFS/KYwDC5xdrXSgmDPMalk2NV8WrdBuMESM2idlsEgT2vMH7uBnGcW1a8tIL13j9r/60F7IaeQFiaXsDVFUoXZ8CAOfzeSfk81ce9LdYLLYnCwDC5E4kH2VZUtc1ZVl2boHk4wAGloG6Do3wKV3S2mASEZgAP33vFpNCOb5/l0lVcHQ/BFfNZjOqqop+lREjNog4ltV5vIdF6wgFQyGvc9GdzjDUzUfGgLgxoCzLziqg6oKpULNrpa9BsOkUwXzxSM81aDeZ3xIJ0cz9FegaE353pebnQQMsGw386s5jRB7NlzBixGNEW4fAvdlsFvgqju4xqQqO7x8yKZSfvnubCVCmTa614IPM80Bdt4OdPtDFyCXZmctUCGRhj8s9+FgUgCTcEyaTCU3TDGoaJ16AVOSg828ApiCkRDnBiGK94/Xv/BGf/NhNTFszKS3aNkwmBcZ42rbGO8FSjpXBRmwUxhiMVwqEqprwj7/8NTXQAkoIZpXIV6NCLBMcyYASDbbRTjC+eOM6rauD8DehTrmJ53rxXZldQ2DI3DTSc3Rli6NLzqTvTFBkWlfz4o3rQKh3ICYGAMW+8FEV0rRDisFTiqMFauAff/lrqmpCgYSCK1eILGnEDkINQok6wTU1xnom0wLnlkwLQdyST33sBV7/zh8h3mFEwYU4IVNkRu8o7NMOP8lKCPEBTdN0WQEJqzL3UfHYZlAySaToxdlsdq6Zoiv524KxlkLA+pYCeP+dW5Q0GFyowSypAlha9MxYDmzExtHl5/swiY8Xdcf1l1L7+jr3ebmrIdJ5VkyXJheU5KGQX88juHmsPpeoRzQubhJDfGJg7zr2DiV9UYD054n09z5e1GGR9NpZP0YVYMQmYTQn9+3d16BY9RTS8P47tyiIsk2CrGvbvuz9WWjbtnMLLpfL7rPH9vyXvUF6mKSpvPDCC6gq8/l8YAE4DWLjjsYYXFtjgFe++vt84fOfoTR9uNBq9rTRbVwGRzzL8N5zdPRwGQBAFww7sX3tjKsS5JbcfaldE9PXAXpYHB0dPZUSqSNGPAxWZZHPKtuUxvCFz3+GV776+xgIMs7GeMALbOKLomA+n6OqvPDCCwPL+uNQBC6tAKSHSb6K+XzemScu8oBpHWibZdgBAX/3i/dZHt8DdZE2ITyqrpj8BB13ACO2Asknd3BwcPoOfe22t8dsUvQBgFcgBTDBxsXQIEyn1fkXnOLWOzg4AIZ9M6oDIzaFIOaHkzjIqMgJgg+p68f3+LtfvN8lurV1s8J9czqSDLXWMp/Pu9g64EIb7Iu04VJIaX9dHnT8bNVnsRYC6g3GhiWiAr7yh7/DFz/7KfZLgTaYPBQTRH0yt4g/0fEjRmwGBlVBbIGK5e7hQZ/ic0qk+4DqXvqVYDabdVXBrpICkKwZqtqnOQbyhHOvTX0oBAVAsKEi4Im6aiNGbAaSCG2ijOrkFUC7ZL8UvvjZT/GVP/wdKqK7z1rUmwul+kwmk64WQJKzKS3wsrj0DFoNRkgLV/JXnAk1IBbfKlVw/fGzH7/J1LRMCsVmBOiaRT/3GPX/EduB3AJgThIAZhiO2TySPykAycyd7rnpaP+HRb6opDakwN/zeQ5irE/2SaQG4e7hSQvAiBGbxYr5X4ahadYok0KZmZaf/fjNsNEtwLca/d/ni+AkS1fH/eMIBHwsTIDGmC5FIWctujBRgXiswpc+8yG++bWXqUxNfXyPKlZR8pLt/juMwn/E5pEC1NIO9+jo/kNd380XhnUAkisgH/G7sN9dfd7cnbHKBXBeIMDqt0dH94OCNFr/RmwVclkUZJWP7uqqMNTzIypavvm1l/nSZz6EVS5MYJfigaBfK8qyfGw8GJdeU5Kgz4MBITz4uQE7EiJ6J2UBDt67/QazAqjnlIXgXHP+9SNGbBhpIqYiHRedl7LyflJWIQuAk5bBnbYCxJc1hklZPRLBkWokQIkBV1chQHLEruOk/Fmt2ulcQ2kN2j5gVgQZhyPIPD3fhJ9XvcyD/3LF4DI4VwHICQnSjyckPuK8YEFOCVxV1UAhSO+7HQECtBR4PvHShO//1V+g7QO0XVLaSLCC6cwkgR3NI6pjBuCIrYBTRazFKXgVfnPnDk57wquLiKnEgL2/v59VFvRXot594jhPbdrf3+9TpS7QOcHCGIhT7ty5g6oEalVjaf2oBIzYPFQIqeq5QqAhDkBEKK2i7RJtH/D9v/oLPvHShAIP6hHpLeYQhHwu8FMF3VzgJ3mbagIkJNm8KrPPwrkKQBLo+Y93F8fP02KVKH5TA+q6Hmgr+QNCCJ6wgKs9//DzD6hoKXxLYUMDahfPF4m7iKHGpVtBhTLiWUauhRtjuH//4VwA0O/2E4V2uu9V8HXn7UiUpnBG7NPaL8J6cu/+/WBZTEyIV6B/RuwuPGawEU0yqg9bhdq1gR7fKoVvqWj5h59/gKt95LoYFvxJAfXJqp7KDRtjBpTBSanO3eyrm/CLzI8LuwDywKTFYhELc/RcxUlTsdZ2gj7FBZRlOah01C0CCjOBT94sefWVr2P9EiNBK3IoYoou/180aFmJFMhHDrIRIzaJLsJdwvu7d0OgWlgYVsfnyfGazOMGOjrtdN+rgrwt0+m0y5Je38KTfaYxUeLu3YOhP9RcnT4asZvwZApplE/JXecxiCmCLBPFiMf6Ja++8nU+ebNkJr1rryiKQcXcXHZCUAyS8K+qaiB7nXMsFotBwO1Fca4EzdMP0s0nkwnWWpbLZWfqTPSFuUkivV8ulwM/aZc2SOiAv3nvNvsFlMahbhkKJRQWLyaaV0JVcKs9/akK+FH+j9gCpLQ9j3J4mPj/zxf+q9jb28NeIcG/ChHh2mzvAieu//jw0OOzvh4xYpNI9NcaU9MNPsoo7b73YjCFDdm+bklpHPtFkHmiie0yWMeT4FbVLvJ/nTxtmqYLvl8ul1hrmUwmJ7KHLuJCPHdVys0KybyfBP6HP/zh7seSppIYv+CkJpK0FQgaTyFwcwZvvvaXTEyDJXAKYMLuvnWpfmKgFjX46AbwOAnGljEWYMSmoRiMFCwWNc0j+KSSKDuRBnjGNXlRoE3ivOdIX62mAT6K+G48LBY1xhRjDZARWwEngotDUaJdWjpmQKF1GizV0aRvcUxMw5uv/SU3Z6HwXbKIJ6t6jrQW5HI1yVoR4cMf/vBAIWiaZq27/jRcaBalRSkX8iLCvXv3OoFe13Wg+oyaSEpVSA8xmUwGgQ7hoeG9t1/nxqxkYgXXLKjKcP6yVWxRdoQKJnWw9haAwLq0BavgiGcSoXBNP4UODw+7GgCPEqWedseiPXveVYBFghVPg5XjYaHaUyodHh6ufHt1+mnErkFQMZGsKsimnLReMdiiZNnG9L3K4poFEyvcmJW89/brqDKg9xWRjkTPWtul2CfLuzGmiwtwznHv3r1BLEA696Lrz7kKQArwS9oFBGGffBbpwauqwnvf1QBIWklutkiBC+nhbj434/YbP6B5cIg2C9AQQ+BUcAqaUR2G4iLaO01iDMBoCByxSeQ+6bt374b3jyCThKGSfBWRFrdHaWHqlrt37+IzrpERIzaFEPefFfiSFAOQlcMuCpyCUwmbYXVos6B5cMjtN37AzeeiRSy5trwfuNOTtT3VBPDeU1WBTjuXwUkpSFb6FCh4Hs5VAFL6nqoOhH1yCbStR0x4gKoM+5a2bamKcqC5G1uGnxOLd8EP8t1XvsrN52fs700QlOl0ymLZAIaqqqgXiU1Q446/p1lKZVLHJWDEpiAKSJykaji8P+8VUnUM84SzmhaDm0RzHTAtSorkPzSKX00qzmD0ZM7xJrDuGUTp90FGUaMY9RhRpoXtSh+fOnl1JcM6pvs54ODBnIZQJjikXm1BJ4x4JhGCd5PJP9IAS3JLh3FZL5ZRYBuWiyYE+oqyvzfh5vMzvvvKV9kvwDsXqwOZKCsjYo0d17aBRbC01HWNWEPb+s7knysFSVZfhIjvQjwA0Kfz5BpJEOgGjcEMrnFdhK9rm77EqbW0pgIpUQ2L3Q0P//rd16n8nNYtwAh14zBlFeosO8fEmi71z4mhlQIn4XetegofrQIjRmwC4jG+obDCEss//eYwrAMpuCeeNtTDA/+3kgKIwvh9bjqh8Iq2NYaWVhzOhPLhXRnhzN0guTFsw+iVgPSMMQYIcOJppQFpoa0x6rgxs137s7vE64f3TmlVLp7yT785ZKkWaw2izZgIPGJjEFUK77GqoAYnRZRRfTGgiQ2yDDWYsqJuHCpC6xZUfs6/fvd1bvggE1UBKWlNhY31cQzQNk1nZ3CNC1WzPRALD+UW9zzt9rHxAKQb1XXd0XmeVenPrBydB+o2PHCsCf7Gd7/Mx1/cR6QGNIb29YvcIO0vftel/qkZfDdixCaQiKlUPU4KHixanO8ZbmXdFnclbiBhUlgEH33/Ho/icSdyjcM9fHfctBIgufBfOaqAQ+Ps7jN5qrIIn5zonnVpkmkxC+vIg0WLkyJaF3efKGnEbmM17S9PT19NC0TNIEJApObjL+7zxne/HKxihiAjmxrvT86o09C2bUcjnlwBFy0odiELQPJNpACD5Ne3pSGxoWv3brjjEWOjqu+BllI8E+DWm29QVpcvZjBixCYhYruKdUdHR+cYpNfsVuMcnU6nA8Kcq4a8bXuT6SMxeCihjyGyr8mj3GXEiO1BWVluvfkGE6AQD9qCRrlr+3Ugl62afRpkcM+4mWR0vnE/CxeyAOSkPylCUURwTds/VjJrZteGb4Qu4V890nq+/c3f5/c+++ku2GHEiF1Env4mIhwcHMX3D3GTQSngi+xoM1fADqbCyWpJ4IteF/v04OAIkbBxGFOAR+w6mqbh9z77ab7z57+PaZMsVRCDXxngnXwVSNLVNW2nXKcg4lxmn4cLrSA5lW9OVTh8KhN9EkN0kYjqKa1SAX/z3ttYAsf3iBG7jFAFUDBiOThI5WrTtFgn4TzriljNZrO1vBm7jnV5zV1FwIvUAoi92CsAB4GLxINuAxHCiBGXgDFgxPGL929TAaV1wQoArA3ilyxWRtM9zpDP5/3+eSfkmkTKQ0wuAZHcjWcI3v2VW9qQOWCNIq3nGy//Dn/0+5/DNXNMzA8eMWInEQt+QLIADOvVP8zQ3pvOggvwtACeLLguYHe059SWxHLYWQDOwcCVGK89ODgIQTU5swAAIABJREFU2UDpnFEHGLGjEFWMKL5e8K++9Dm+8fLvIC3YRHFti5MBxNm8DyyCDOoCDCz0j5MJMPkYiqLofhBNBD3pcVYXKTDx+soo1wp4//YbWDfHqsNry5jGM2KXISI4Qv3vw6P7Ax/dRXfwRk6vA2DYnmj/y8BkW4XZZEpx6pkrVhB6ZcoDh/eOAEH1ahRLGvFsw/tIHuQWvH/7Da4VUNkYEr+WyS/I2SRtUboNeZLNXYze42ICPD3K8AINbBqMVVzj+dzvfohvff1lTLvAGn9hM8WIEduLfgwvFgvgtPSb9elqQrCbpYBY6aT9xdLbdskPnix+ZVkG6+HAgpjjZNtTny7mYf3xKT1yB+MgRoxIMMZQise0C7719Zf53O9+CFcrxgq+WZ68YGXC5KyjF83SG/w+BAG/ruhAQirzm95DIANK+c4BK/WQu4894h0F8G/+4ecYt6A0HsYc/hFXAN57rClBLP/8q+P4GV3NjPOghBS3a7M9CmNjzq+A18Gu+cR1WyT4z7JQpGjkRBxmrQ2Ux9qnS54FJXCcJ3/oP//qGMRibbneRzpixA5BVMF7ShOsAP/mH35OAYhfJRKLyOZMEP50JEBJNqd5lmNVvicFweQ8xN77sKDFsoOJitAY07H/Oecoy5LlctkFO60+nGb0HIJnZuGLv/s8L//h5zG+pq0XFEVxIR/FiBHbDCEQYc3nS9YN57NklGj04cHAd5dwugKxPbve854kb0MeS5RqJpyH1R5wLvS1+tEFMGL34ZyjKAraeoHxNS//4ef54u8+z8yS8Qvk8yB7F9eP5XIZ2AJjvF5VVd0GJMlxa20n36Gvx2PShanwQJqwqZBPmmR1XaORlrBpmmDGM7Zf4DSkAooEbT89ZmXAN/Dzn7zFC3sVhSjWgPMNtjzdEzhixC7AS2DBODo6CvUrIKTErpNNa6L/kxl8f39/EAB4unDbjUBAJfSNxkilnFF0f38fWPf069UljbSKCjiFoxhrMRKBj9h12LIIstBAIcoLexU//8lb+CbITiBmwUh0D2qkAQyzRYwdyGRV7dz0ItLJdaDbzKcNflmWwQKQmwvS+7y2cL4wtW2LtbbTLvpsBI/QxrSoXkuxCr/9UsH3vvPnzO/fxeC73f8YAzBitxFDcdRwdHhv/decba5PU2VvGngAcsKcM10IO+L7zpWZ1Ka9mAZ4avPO6bdEBjRixK4jFe4pigKDZ37/Lt/7zp/z2y8VWO2V5CRXJSPeU/qCQdZa2rY9Qd0PvSxflfOdBSAU9WkHeciyorUnJMHftm1fD4A4Z7MHBNNFMP/9B++yXwmzMlQUdJGxKGkqI0bsKnwUcEdHRzGNL3yuF3VQB8NZ0N5doALeDdH+8BAR1IW5n7jBTp60JgCw24yE1ebo6AjBxmVwxIjdRV3XwXwfqwDOSsN+Jfz9B+9m6UT9+SYrsJfqAKQYvnXutlVroveetm07i4FJKX2pilB3a2NO7NDLshzUHW5b3xETWGA16UAEPvHhCX/xza/jlnOqRFiggNhHqpk+YsS2wYuJ6WmPhlllBgr3VZwXedtEhL1LuP8O7x2FLADtk5BHjNhFqCqIpY3pfJUxuOWcv/jm1/ntD0/ChkL7TbYANmXASKgIWJaheqAxpnufsCrHU6XAlDpo0gfL5bLzDSwWi8HuP71vmqbjAGiaJuYpDlkAuj+swVp480c/4MbelImFevmg80kkDWTEiF2GREX26OjokUvT7O/vn7C2ib86SkBHBES/K0lxAA8LBxwd3ht5AEZcCSQLfPLN18sHTCzc2Jvy5o9+gLWANZ2eO+QFEUw05SeBnrL18p2/qrJYLLpYv+Vy2W34jbWhvvBkMulOmE6nA39BUhISrA2BB965jgY4JQEmKqBSPBOB2z98nWllaJslha1wKiFLQFlLHbwJhBrOw9e4sxhxPgKTl6pjPp8DKYxtaAvLq4F1rwgD7E2moWKesaiJaXNqMPE8FVDxfVAdrDWVbwI+e6cSA/+ge75Q1VMQVdRYiO2bTqvhpgFiTmRfEliUbBr2Acfz+TzES5jV6iMjRuwYJMhCxeBUKGxF2yyZVobbP3ydiQRZmuRqnxEQ5omPwXy5vF615ucy3TnHZDKhrmustYGQK12cX7RqjsyJBfr30TRhLK33FEYw6hCFSev5xfvf54W9CdrOQUocLRB4vKUocC6Qg5gNTWJPFP6neF0ldndf3ZyunGOiI70sl8F2qEAjHgVePF6XzCYV//gf/0MscWvAG5ChPSCM8mSyNiAeo0FVmE5KEMGhOE8v/KVn11ATlICgTCRRGFTuTakCXYBSJ6Q93sT0JAWjJjyvGlCP8+AMgDCdlFigDX8OzPkxdGn4Y2rAKF49//gf/wOziUGXS+w6+vERI3YAHsE5QYoJ6kNOixMBCrR1vLA34xfvfJ9/+9//zyxJGwFL6xUxtouNWS2ql+TzOpdiZ42LMt/k0fhpl9+2bcf5fz4U9Z6inOC8QxVmJkzJD27/kEIbrLaB7lDBxBQGk8lNT2jd0z7224vTl9C0tKRd3ONearryyRto/3i83BE1qDpa9T0LoLdxWMWRIqvs3alWeP/XtLCDqN3uTO3HXRCycbSIR3Q4Zldrhz+dY7/Lz6GZdcKqwWp/hYggRkObWbWz9dRHUU/oISb0LYFxsVWPquKTArQF42E8jseHWj8ijPZKb3jvsdpiafjp7R9iCDJVFZx3FOUkCv/zN5+pRkBSCpKMT9kHZtXUD32w3/nBSB5bGMDRNvNg+gech1uvf4WPf/QFLAsMS0ptsIRXwZJCG0yseqQieDFP/Qhg1VFo072MumDFwHWWidXF9vFCNtb+8Xj5o2JwHu7dPx5WALygf7oA9icTjAT6LCPaRchLFG8Gj/Ee49POOrnagiKwqaNkz2GInObxOYOv0vev2LZwrrBfnVUPYHWKpHoAoXfv3T/GeVDiv8EWjIPxOB4f9ghgtMVog40ystCGUhsMSywLPv7RF7j1+ldwPshWA7TNHHBR9p4tm1Luf4q3W3UNGGBAHJDj3GICAs7VIB5rhdIGnaQE/vZnP+H43h0MDVYdQoOhiUeH0GJwgHZmzad9NChWfXwFK4WljYtUbOKK8H8SqsCm2j8eL3cEEFvgVDk4WM0COH+kJL/e3nSG1eFOWkQhCwTsd97D38+Dgp72MbzvrQBm5XMDJ9KQRMGqZ2827drf46zEvr4/Dw6OcF6QWGl00+NgPI7HR1s/FIOLMifISJEgI606rDY8uHeHv/3ZTyiJstWCtQLig+w9B6syPCf2g7ABGQQAJlPkRYsJJEJiIwouTOgfvvYnfPwjH8K6B4g6DO3/z96bR8uynYV9v+/bVd19zr33Xb0nCXh6AulpAEtiRhgRYyGGmCEQgxdTwBCwEATEClOybGzAXssmMXiRRYAAK0qMYzCGJYYlAwZiSAgCM2lilJDEICSkh6SnN91ze6ja+8sfu6q6uk+f4Z5z7+k+t77fXX13n+rq7qrdVfsb9re/b5kfoBsLpCmEciet6+PJ7pbY+zvRzqm2HhqT5RDVP9LbVccgWNyZgC7n1ogopmOSFTzSJQJKQOjui8O5sg//1lf2xpjFHAjYICL5GjRl1U9+sta/PdayFBqYtMmNckcYCTPlyuQUJYENupqnPaXnkceeIFGAlkicb3UMcZzzs5zaw9qpwRpBGYWSB97/KfzXn/mxvPI//m6uMxIsS612jDmGNt1+K9fbPD5t6nFtBX0Igel02qUTBFYi/49Cm9idOmaDJQBf8sVfRB0riqaucRKy6wPFKIgSsu4jeuxn32lyxLJgCFECSbLtb5IdmpGwfIivDnDWsHw9Vynw6OMHTfS7dDdxS9b109qW5iOAyXg/3yMGUfKjvV9ic01Gaa/LZdvfvq1He3z9Y2u3R802Tmr/bs4xSS5/bP1OoJ3TNIy0qmy3+0hOMf7o4wdUJhgFlyUjouOsk6/29h4KGEV3v6RmAClUqGPFl3zxFxHI908doSsjegKtDG/T+E+n084r0CTzK5hOp0wmE+69996uklC/YtBxpGiUowKpa0rgEz/+Q7n//vspQqKONSWBWkbZAyDtCUu3BNA6l8h2qHvjhzXJFVITrd2L00CsLXGUVYM2ijtxvgEoyqYUSs5lIElB1SoAT/SM/SMv6Oxh6v+VgHJvD0JBLXlKDDVE89QCqk1e/Xwxaq6P1/Ma6dYWwgkcOo7144xqJG2Sf2mgRkAD5d5ed/6n+7LWgwCPPgFVClTBEClXAqoc57JgQqPAk/PrYEhzP2VjOVAnoQgl999/P5/4CR/K//ubf5hfLwqqxcnyuW/gV1XFvffey3Q6ZTabsbe3R1HXNXt72R03n+f6w7dSpS80BzLSrJn8g5e9DA0liUidAhbG9OfRs3aTLSexlN13mhBT8jKnC2w3/ihtBQbtBjPyT4FQE4QmZgC6KY0zWiFGoNaSKLqd8/f2XG0SZWEFVVLmtkGY2ckOewF0PKbWAjFDREkBUKFOCtos0W2j6KFRPqWxErZrAa8fx/pxYolClQpFNVCbYhrQ8bjzkiwnCA731LoulYC5ZQVgboKpINQ7cT146+0ttSwVANHs9teerDRRFjEgRYGGwD942cv4T7/+9RCgWtRIUWDV6abqW5meq/gKe3t7Sw8A0FUOMrOcIlB1pTbAkdgyWckDT7uPd/zVX/O+d7+bsUaq+c0mbeHyhBJNIqA2BliyHaCmJLnYth1wpDfwaOOibAe0GCNX9kZUswPuf+q9fMTfeBbTxx/mnv0Ji8UsZ2k6hi7lYrOqov27LEve8/iU3/njN7PQcivn7+15r5+suT/y+JSgsDDI/n/dvIJGmuus95IE5S/f9W4qg8XsBqWE7Par65wjvE6967F5v1hvoMj31FbYeBzL41SsszyKoqC2RBVhtLfPux56N5LLgvY+j40rm6yte2o52VAQ+JVf/Q3uvWcvj1M7cj146+2ttTQxPokcj1ajGH2DORoU430WKXCzMp72tPt4x7vf191zp6GV5e3S/jYWoCgKxMxsNptx5cqVFYHfpig8fgDIJyABJOWTuDqCakGXnsN6j7TWHvqoC267DuodQ/u87YmSLqyLL/zsj+Sbv+6ruHevYKw105s3QcKx0wCbFIA298K7Hr3JSz7/W5ht6fy9PV+r5OuiCHAQYQGNKq+QaiblmGoxX17vrSA3miV+edNeGYhVJAEjyTd9y1HufTnh9YvipOPo32dBspKkQCgD0yr2xoM22LEfCAXlaMysmoMWkLJHYQRcCdnjGMmPXbgevPX2VtuW9nrvt5DHl/YaL0dwY9HErkmBWb4fTmJdlqsqBwcHTCYTiqqquOeeezrh3+7cjwU4EssLeSzm5TuFwnSxKkSbWc3cNmfdBjjAaqIdk4tv6X0/srqUCXKmMqFRBMIEDSUHs5ss4iynaJZbm7/vl2hc1DH/uFs4b29vQwtMSrhZQRgJWhvJoChL6lnNfDFfqoayfiVkS1lCwUEVu5f78+JFADtrgYEdQRpBDfmM29OxKhFCgcWaQ5ZMb3ScL/K0ZFGW1PM5qhAKYbow9ktYVH7/eHt52774VsvXvlgW/MKq0TxdZNuibjfKurl6mNYDB0vZnlLinnvu4eDggKLduLe3x3Q6paoqxuMx8/n8VFMAGgIp5gMzawMY8o2/iKtKQDdXbu27l+t+lRzheNGt9QZmMQ6hQClgBrM6UZkyKUaUGimCcNIUTFvHud+XrTfAUo5qjls4b2/P3xpw0CjW84U111Kins9ztcwTPGgJJcWEIZRlQUo1i2SIggjMN9x+R8UUtNsvuj3p+KRxn5lBbXkNs2pBVUVSTIQV4b95vCnLkmo+BxLJYLYwRuS+j/j94+3lbQ2guQdyhsD8rFWLAzBqDAEj30fZpQ+E0GgDR9PKnVamA52sbxL+5S9vi5nAMhjwNGVJU2+dYS7zm63mWYSK/Dy794qsFUigXwRIm4dsoV0eQQHkoIz1R2uhV0BsgrJCMcqVl+azE/unnwSlX/Gtn/p1W+fv7fmvHwNCMQIRwmjUxIQkUh1ZXuUNjYKwJO8hIlSxJibrPrN9INK7bwLW5hiQ5vNEyMvjwlba1eNoj685VpXe4r5MTEYV6959caiXVlAg1TH3W9DcxyKEYrRiPOzC9eCtt7fadoj27vO8HLB1/c/ismZGWzYYgFME67cyp5XpsJT1qoqaWVctqE+/hvCRSMrHXeoy4YBCUbJMVEB7Ys1ggZHnLVZDl2xL7dEDkDbH3ioxoCEnY1wsFsSmCtNJtLmY28CL9gGrCta2zt/bs7cGiJQ5La0JcbGAlAijEckSelSeC8k2tALaBgyaLUeFIEgRoBDM2usmP08011B7DCvbL7pdPw7LQb7Nc8wghHwuQZqRT6C5B8Km/pHVP1WUZLlPSYm4WOS+Trnvd+E68Nbbs7b5cm/n8m1FmUaUJDlVXVFIZzfH1KQB1ua9J7Auy9vKgE0gYEFd18QYOyF1qgDA9kRSAm2EHCnP9zWKiQTFYu+ONmsOOHUr3/Npnzor+O3H2qNYKiQGeZA2JYwmxMbSb4P3Si0puvDAEz5+zepfEfrSLAXZ5vk7Z0aA2izLuaIgWgVmxLhYl2OHaG/J1AbxiOTYQTNI1nnWkFwgR5q5qjYZlTXKtJz4TXeSw8chJs390yTOijG7K5vDVIXU1AxOltBGETrJlunSnqoQpKCqcwqvRIEd/1bH2Uly1H8mtrLEFHreMdU8FlR1vspVIbVGw2lW6UG36qyqKkSkK1xWFAVFa7m3ioCInC4AELLCEsBiRbJ83CFkz4QGad7fWNIbBG3+iFN4Gu4oh48JoI1XiItFPi/Jc5GpqolaU8ZEnSokBPSYMTg1ipU2WcxCTwkQO40K4ewqWZ0VDMsXvTQbI4xH4y6Azfpv6NpeTAhGSjmAECFP/DWfg8XmHsn3Yr50ekpkFyWobJ6lv5Pt+nH0jzNH86/4PCOkZuIzbxKkjQPasEQSspIwblcCSD7PGGuEgLV97ziXkP6Vm4eOnhIAQCKmXGcnRcuyNWWj2yQhqhuChPvyNH9eGwjYX/7XGv2FWf7qWNeNhz5XI+vP7Rvajjy9A843rvXW8ZotI35ju5ZJ1vJ9WTtw9g9yu2JwqW+tH0lWXFRyp9984oD3PvTX3EwH7NsNBKO2AjvK1Qtdp7flF0MIOeuTCA+/b9r8XKesu+DsGLpUYFvB3Fz2s8W8+e1l+br0r67efbP+pF5/YUORnEMb0nbaleM4ophPf5Cytsni+xDCymcqUDWKVB6YrOtm6UYSV6Ody0l75XZ6/QZ52crSeu0+amXv8pZpjG0Ayeq1WcxGKHSyPdY5xNCMw77npe7RfE+jIOQJiLRivazdq5s5Yodd1NuPHEYaN209XzCfzpDqAEs3UKupGZPOqAAcPDHdqgPXOS+t+558QdtSmTTa6Z/+FNhhFXMZI9p+SK8VO6nWx27SP4X+3+1z8lTBigJgNIOPNvsvVxSt7NN4H5bvdeHvXF5OVuyPZzm66OpWa4tn5zFnXa633MLkc2q0ilVnwHoJ4ctGzrmcPRotebzKc61Y7JIaqeT9pNeh/Wj+TayUQm2e91cBCJe/D4eMtYK/mZsXbk1oLwsGblAAejfwbrbrrHkF2nPb0B+t+/6Wsmg02oQgXb4O6+IQHGeArApjunHjlGNQowCsWibt0p0VeiU5+0sYkl32WbgmuCr7F3vb8yRs26UCSIpdroP8ztMPX32hvx79f5rlls6ukn+7/k94ml9zxfXX3U2Xre0/Py47QJ/19655UY5zKzbaRBtvkO/YS+olcZxzsiKHyQk32gBc1mTMUSr7IQ/Aodu3tU5bjbuZR1g/kMvI4XFDe56A1GxZPoQaNZrlTk1sQOdqOeI7esv+2qQM/dTAcHn7zznM8kq4mODWbV87m+6hzPpIskl52BQzsPo+W99irUKeujBEnwRwnMaQ7BTp1oO9vMM23Se3tv6sEf5tUC/kgOWtFSM5JwJYl/5PyEUY+rMqa8OTBJIISQNJJjlVQ2pXdB9NGwMAyzWZIkJofAjbXcrlnBVdU/1OFESSNlu3/eDA01izPSvZ1jZddLvkpLNPh950VsNdWRbQbideHGdo6Jq5kUhZ3t9CevqTFYC+VtGjzVcQrY3GvXwkoL+OYn0YWR/oasvlX40SS8ZYFEv1SvzAOm0xINjsAVhGMzuXDSMX7zGWBXw2Tp+1r9jqNZbddRxvxm967VTRtxfFmmDfdBO1rfT2b7etn8eh89LV97BUAJqVhX7/OIPEyMvTl3FE7QsxB+0fOzeWZdHxCsChgSZ17vAgEAyujzlUQOduQqXJ7jqHe0awVxi6yOlHxFIzQ3J8EKCqdgK/7wFQidxXwP62UyE4ZyIJVDVUrfA/QwTvKPSWofYWDbSOqfX40C7gbW2/bbASfHfE8Vi7X++4U+89dTyNLrOMFRCy8C/JNTqunpyM03HuSpLAzXlOVY+1d0hvtr+3muYoZCm+lzcY9KwT005zz9G31t2E//wffR0f+YynUtqcy8vmuUpbGdASwWoCkSLVBCqKlD0HtZTHLgM89pslsJAxUTwT4GWk0pKbeo3v+F++jz9409uo6RW+QhstfBlTsm79j4AXfsiDfPTzn5cVw2RdyeiTBLvtgALQ0lY3W81z0N8h3x8Jy9UzG6/Y6//4jbzmzX/KAsXa9zaDmdhyAVMei5YxOaXBiz78Q/gfXv4yJukJCjtd1lLHuZuoZMwb3vYevu1ffn837hhCknb1EN34syLXe2yUPCs79d4psoxZFiBYZJymTNLBec9lK6y7DnPKg2ZVgKwGK0lj8Qer0dzNnDeLoVpkbNOTd3R2krmNWci4WRrapxH+HUdHyYxSZBwr1LLLzsya+PajPWtpw4ep5e0X3a4fwyaFOklsesEQIqiQEpRprV+OmwoxBUnd2KMWKWzBJE4Z+T3kDJBZyMYo9HJwthZB6008YbrwkAJwkkGx6vVLzWMHzJAz0h+0UpP57/C6YsVIIEotoxwsKMvXzsNl7ruhk++v2CiFvZvwCDYtkktSk7QGVSTlFSXtOpujnHeb1r2nZvtFt8vOSJunQEyb/dqQybxuP0kiSTwcBrApLgAOxQAoiWAJveTjj+OcFTHyNHT7N0fIbzk6HOBo3/Mx2rhwUYuc7ixqdAF8RmvVWFN45fDwa9J6B5ZRltkzcBFH6+waatYJoFVLtrdOZmUaINP60RIJEzr3d772DGsTbgmH59Sl/xk9B51sqe2OI2083lUrxEhtitKjpgtY7p/6qZbbKcrm80NKiB2RTthxBsH5F8De8uTzShoPa7LinRBocDnonZkcznXQsrTOmsV/bRnHs37rXdF3A0WXVmh/aex5EZaCrovQkcP77ALL41gV1JumCFbRVQ/CLXyhWPa8ZOX9bhl/HOfWyFV60qEcnbfCKQ35tfzlt/glu0z2ODZBSr0YALX2kbpHdre4xeFk2gBROacAyirkWqIcO+LvXW9756HNNkmrr5loL83WZlZekeUWtd43uOB3nMPcgoi6JQ9APyiprwScNQp+Z2gD/wBEmwE9n2x/NlaB1Axqx5UAvhUufd8NmNblrU2Q39kuiX6uySZyx5ooXqO3Cqf5W9o4lUa4ttu31B46jm4pY6sY9J9LXtfYrgu0Vp2+dduln3vD7yFnmOSp6v64o3Zrd1KxeRlcL2NZb3lOTpyz1MCPS4Bzaeii/lc3t5HOh0l0lREhSwB3CgyXxldvrFfT6C3D6ea0m7fQu2RMe/u2SsDSYk49YbpcmaLN1x62ui+6XT8Ok4SYnmJkWF0lAXSdIrbWl51Skdc8t8GGd8X44zjnoB9zk+hNu7XB7SfIpmI5GK3e3KEpL2A9jT5JXqbUVse7K25A6Vv6NAN23paVgOVA1foB8ppn67/dGSBiy9+/os0BkC1hoQba2Lc2aWdfW19WlFxa+W1U76o2ermq3bVz+6l3b6Rm3l5Yqf/X7bBUAKT9DGAldXKjKEVJTc+eL/bGcS4/1sQB0MtB0ubIPCLzaC9W53Awf+fOo9u1+wBZvt7qBHo3luFak+hJsosxuxl1ZTcX/k4rvIzVJYCrVwvNvdO7ftY+pU18s45pAmlXC6zuvwvXX7sUuKV/nNnTn3oJglKT7dCOzHGgzb/eF6wOYiK97ILprs5C6jgn0b/+89NWAViu1uvupv7UXPv+O3t4juM4juPsIq4AOI7jOM4AcQXAcRzHcQaIKwCO41wcx2UAdBznQnEFwHGcO48LfsfZOVwBcBzHcZwB4gqA4ziO4wwQVwAcx3EcZ4C4AuA4zp3HfKhxnF3D70rHcS4OVwQcZ2fwu9FxHMdxBogrAI7jOI4zQFwBcBzHcZwB4gqA4zjOBo4uw5xQy4+mCnu33dshtlzaqpTFtg/AcRxnW2Qhnst+A1hT8hwTVsZ0sab8ckKbWurQs6CMnO3Q2+G1NKV3Vy6Y09nW6Ugl82JwBcBxnGEjifUB22S1FROsVQJM6aw/0zyIt4qDt4Nq26vGetdPkqwMtO0u4wqA4zjDxhSOtMTywJ4VgQQEohpimr0ErUCgVQq8HVKbetMALdbs0bYAjfto53AFwHEcZw2xLPTbNqOdImCypjQY+W9vh9Ue4eq3pvhV50HauNf2cQXAcZzBkmR1AF8aatb83dpw2g3mCQUUJQERITUuYW+H1YJJoJ/cSjqbv922qgiss23HgCsAjuNcHJKAsO2jOJZu3tbyfwnA2oFcm6E9ASnvu+0gNG+30wJstO3TqgdphwMBXAFwHOfOI+loM2ibNMek3YieDg3pwQDLe6ROEciDe7DsC1hafN4OpU2AiS3jAHrmfOMnyG3nRaIXM7IbuALgOI7TkIV/2hi93fourBn827ngtAPCyNtttFnmq0TEFGuUR5OEkKeIBO2upXQopmStyLn2AAAgAElEQVT7uALgOM5gKYqC+XxOOSqpqooiCKoBSUZMFRYTqKBSICKICCklJBkpJepyt6cznDuHGGgyBEPMKMpAqmoW9YK90R61GYUKVYpIUOaLOUFLxuMx86omhJCvry3iCoDjOIPlxsETXL9+nfnNKSEERGE6m4EZ4/GYogzEGKmiQQQRgaCoKkGEOkV2d4bXuaMISFCsjmgZeOLGE0zGY65du84jjzxCURREzYriuJywP55QJ6iqilQnQti+8ugKgOM4dx5T2EFRuT+eUM3mhFHJdDplf3+fYrRHMSqpqsjBfEEIgaIckQRSSqSUIIGaoSK9lQLOkEiizFKiLEfcmM+5es+9pLri4cducO36fdTzGUVRsKhmpJQwa5TIoIQgpLpCZLtKgCsAjuNcHL0lU7uAKiwWC8pij2v3XOfxGweU4z0WlVDFQJg8iSolpgaCoFpAkSdxLdUUO6jUOBeDAWG8zxOzKZNrV5nFSJWg3B9xsKgJWhJjQnSUF4xWVfYGhDFlUTKrFoinAnYcx9kGiWQJDRBCyMJ/cpV5NKpUIJMJD9844B1/9RBv/bO/4N3vfQ9147oVEWJKJNGdCupyLpbZbMaVvQnjMvDU++7lYz/qI3j6BzyV+Y1HGQeIizl7I0UQwkiRakFd5/n/QnRDHsGLxRUAx3EGiRqURUFFzeOPP87ePU9iFoVZFKwY8e9/4mf4+f/nDVRka69v66fm78guTmw4F8XeBGazvDrk6gj+r5/8/3jgXnjpl30RL/yIF1COZ2ismc9uUAZlNNmjmk1JMeYYAGOrBYFcAXAcZ7DMZjcZj8dcvecaj92cYqOrPDad8e3f8Z286wmoaXK/BKhiFvit1VYWJbGutnfwzlZJwGKmIBDUWCyMEvjLR+Bf/a8/zqf87Q/mCz73s3nylTG1BayuGZVFjv5vYwK2nCTYFQDHcQbLeLzHdD5jUuyTpKAKE/7pd2XhH4GKRuhHbdK/h8blLyzqLtXLmYbxbaex93Zze1oMzZqhChEIIbKIkQSMAvzcq9/MBz34J/ytj3kBT756lfrm4yyqGgxKzbEwtmX30W5F5DiO41wQSZSYQMoJiySk0VX+z5/8ef7ifTAHZsACiJIHewGUCrGKnBo4bwHF1h4c8Vjfx8gf4+3utMc9VklgEWINsSZGI5KvmUcj3AT+95/4Od5zkJjP5xQq1MkIownTqka02Kr7H1wBcBxnyAQFE25O59QmvPo3X8cMqBESIcv4tfStt3XQFG93rj2lUM67JVgJ5ctBoZE8ffTYHH7rtW8gJrLSqAXRBJXQTAFsF1cAHMcZLGZGjJHxeMy73vUuHj/Ig3lZltgR4X29zO75L2mFQEKaByc9pHmcZHL6YzuPIzjlbh0J+O3X/C5FUaCaE0illLqMktvGFQDHcQZLSnlZX1mWvPWtb2UUltsd50zYsrTUqBTe+c5HUdWcRZKsdPb/3iYeBOg4zmARCZRFwY2bN3nf+95HHaEoNK/V1pL6NFn+zuLJ3b731+Fob/9pf572/Zv2T0BVGVPIMQASEQkIEERyEqAtTwO4B8BxnItDdsuyFhGqKqIasnsWqOt8jMd7AXbrPJzdxMhKQl3XncUvIpjlGgGbqk5eJO4BcBznziOJXUyZl1IiRmO8fwWVgjYze9BAlU47y7vk1ON5u+6MW1t65uwq7XWw2aYOZYGEuisoZZYwizm19BZxD4DjOIPFzNjb22M+nxObNdwAMUWkE81prb1NuOS/6wma9bw2+K8tCqSqFF4N0HEcZ7tUVYVquRKUJQjpFPZ8G9ld13U3yDcfgIZAivHEz/BwgG1yOhtYRCiKgqqqKMuSqqo4XiFUjETdLPSIMSKFIJIfKSZU2gmC7eEeAMdxnDORSCnP70IWEmVZIiEPq6cR/ivrzr3dTnsM4/E4p+5t5uwhK4zdsr7Tf9QSSciOaH3uAXAc585jyk7auibnMsJCCKgGqroipkhMjdAXyRHeIsv5/vUWWLHBti0Ih9we+l0y8/l8+YcIoSiIdd2580/txDdtrrUEp3/XHccVAMdxLg7bRadjm6p3fdtxCksCCmKMxJR4+gd+IJ/8qZ+KmWFmiAh1OoUHoPlesUY+eLu19tAvY3mKJ4TAww8/zH941au6186yhn+l+I+09SS3ez+4AuA4jgOceTA25WM++mP5gR/4IcqyJJHdxaEoTu3zUMtlYb294Jasym365cXy9E5ZFrz2d17Dz/7sz2IpIarHp/EVhdPkj9gBXAFwHMc5I6KKpUQSmIxHLNo676pUMQcGHkvjEUkA5u2Ft01eipVs/j3Z3gr6K1euYCmBCKpKrOv8O/fjPIRjPVwiArbZ27AtXAFwHMc5I9nQU2I0qtpYLGr29nO2tzoao3CCAnDrnmTntnL4B2jTVajBeFSyqOom6h+KoqBunovIiR6e1tG/CbVcaXKbuALgOI5zHGsjuJKrvUFe6tcWFBIV9vbHVJaXfe2NSk4TBeBsk8ORf9ZsT5LL+6oqVYqIahb+IgRV6rpaVR8McongzR8txoqHIJcCPmoC4mJwBcBxnEFjNDX6eqN5FFbTtEszlq8pAynVYEZZBoxEQkEgFIGaXqD52vtuV1LEXXInX1asF9C32p1CNBByIKCl1AQPpG6JpzVCXmh/6yZ7hKx+nlheMth+UxQIsv2E0rsYkus4jnOhnEkgS8paQjuP7O78S8lRSlS7uftdj1gt0Er1E4Wp6cr7d+F6cQ+A4zgOsH177NbZwfIKziXCPQCO4wybHatQ6NydHLt0cEu4B8BxHGdLnFckuAPAOQ/uAXAc5+Jwa9sZKGfJHnincQ+A4zh3Hkk+Ye3cdtyDcj7cA+A4juM4A8Q9AI7jOGfkNNngjiOZEUSIZpQiRLJVWwBV89qx33+O774baHP5xybATkQ6qzaXa6Lr09C0dUq5dLPIies+lkUdD/e0yPk9ENvGFQDHcZwzYmbnksJlI1hMhGlVMSlLoElMlBIadqd07C6yqGpCWVBIm4YnKwMiggDzpjaDkBWBAIxUMWBW14yKYYvAYZ+94zgXg51UXneY1ClXDhwVgUlZosB0UZFS4spkfHJmggF3qQlMyoII1DH3lKp2ygDAJIQu06MlozZDVVGBSVFcwswPtxdXABzHuTiOqZY2RAoVkmYLdVFna3VvlL0Ap6kjMOQpALE8TaIqXdGldWUgmnXr70NQAnnKJvZK/V4U+Th26xfzu9FxHGdLCBCriACTIlDNF9TRSJa357mAYx4Dp1AhJWMRE7VlgTYKShmUIFnojoJ2CsKsqqmToQKjCxT+u4r3gOM4zpYQcoBZnaBQctGZJvhPSp//Pw2quRRPIOtEVUxYEwcwCkqVshegCMq4LIgGMVnzvotDdjBq0BUAx3GcLVEnmBTKokrM5jX7eyMWVaJaRP70T/+U3/u93zv2/SkN1w2QGgu/KApUlcViwWKx4OrVqzz44IM885nP5L777s0rKUSwRK7UKGAIsU5oMWwnuCsAjuMMG9OtTc2qQUwwKpWiGPEXb3sH3/SN38hv/dZv8Z6HHmr2amvGr7fktWiDJ+bfMIS8Zq9VilR51nOewzd8wzfw5V/+5exNSg5uziknYwqFJILYsPNTuQLgOI4DnCUk6rx5ADRkKz5G+LEf+zG+8Ru/kcfe90i7+Dy33WR/00paupJ3zKW8Fdr+qNe8ITHxZ3/yJv77r/nv+OmfeiWveMUrePCZz2BWVaiW3RTAcUpA+zNsygOwgzF9t8yw/R+O4zjn4LwV3qqqolDll37pl3jpS1/KYw+/j6IoCI01K6QcJ9C00Ar/HAWYXxvuY70/1lFVxuMxv/rLv8Jnf+Z/RR0TkzJ7AtSVJ1cAHMdxMhc/nz4uS97z8MN89Vd/NVbXANRVhVnceDxLwZcx0qAfh1ldJpFSYj6fA/CWt7yFb/mWbwFgf3+cTX+GPQXgCoDjOMNmSxUKxbKY+s7v/E4eeuc7ARiNx4gqKSWKgWepu53s7e+TUuJ7vud7eMdfvTMrURccP3Feb9GdwK8wx3GcLTGdTnnN7/w2WKQoSxbzKQCFBmLjEdiE0Jv+H7AFux4Dsd4VrZdgOr2RN9TKH/7hH/KU93sqWhYb3jEs3APgOM7FsSVreycRY29vj9e85jUgsrKkL6bT5AF0boUrV69CCLz61a+mLMsLt8g3BRJuG1cAHMe587jg38hjjz3G/OZNMCPFLPT39vYQVV/idxsYjUbd84MbN4DEe9/7bgRDxcWf94DjOM6W2N/f50Oe//zu71AWTKfTXAlQb2F4Xl8WOIT2FAb8YrEAyFUVRSBGXvCCFyCIe1lwBcBxHOfMnNetWxQFH/w3PiQ/H4/zNEDzkSklZG2O2liVfbnsraAMsF3re8l5lZf9I9IpUSnG5rnycR/38ef6ze4mXAFwHMc5I+eZRzaE2hJf+qVfCiLU83le/09WDHKSIevtv/EAwCzvN7C27fsm02/TFdYpBtZUAiya6oopRj7yYz6GD/3wD2NR1wQNg14CCK4AOI5zEXgZ4I0UGvisv/s5fMEXfwmIUlcRQkldJzSUS+km2eIVESRo9+i/PrRHJ+hFQLVLkiBBc9+hmAlCAFOK8R7f/d3fTQiBUVEw4DIKHX5XOo5zcbgisMKirjAzvuu7vosHn/tcIAeuhaLICYFYWrvdv5SWj/XXB9Yih6dhUow5oFIEDYGqWhDGI77ln/xjXvziv40UgYN5xUXXAdrFPAB+NzqO42yJUVESEzz1/e/nD/7ojbzsa17OYjrHVEAFJBz9QAf/0HKMJXKlPy0IowlSjEAUEJIoT36/D+BnfuZV/KN/+I+5uagRUcbjkmr35PGF44mAHMdxtkSVcp36uoqICD/wv30vX/ZlX8Yv/6df4nWvex1veMMbgMPW43L+WzChK2gzpBaaWgpFQVEU1HXNbDZjPB7zrGc9h+c+97m88IUv5Au+8Au5fv0qBijahVX24wUuAhE51cqFi8QVAMdxnC1RqHBzXnFlXJKAG7MFf/PjXsiLPu6F1BHCmo/2UNCaQZJcVnhoLWQnSbJcAbhNndCkU+j+FmC+SJgKVazZG5c8duMm16/ub6H6w27hCoDjXARrmr+1A5coJkIURZrao0mkG+jagjDWJC3pxv+LM1xOoB1C8/FZc2DSJVlJzatKxJplWoEouZZdNwDb6qe1yFq/nbT9TJhurT8TsDcuqS0v+9ufjKhTtk4LEWLbIU0iJUFWBCFkqzLC8FqgitmKD5K3aVoqCLWBREMKQQrFkrE/LpnXiXuu7lNbViCGjCsAjnNmUjMwt3XaAbSZkFxusnbf9rkAotSWsGLCLCp74wnTxZTxeA8RIS4qQlmupIddfsflQVWpqopxURIx5vM5e3tjZtUMKcZN32inCvT7au2TABCL+Vnb720t+NtztLf8DmnWnZ8HI1uqISh1cxiCkIze763dvkbuoe5aGjAScgekZmogQdaJ2r6T5spSUBUiUBSapwN6UwlDXQ7oCoDj3G5kVQlY0tvWRMO/9o/exNv/4m2klFgsFozHYwDmvTXhl50Y48p5jUYjVJX3HExJh4RuohPEfcnaDNBiuxW5bGZ3TAgfJ5SGKrCOou2Po1pnM64AOM7tYsVi63OER0ASJjSCMKM3Z8u949HV4C4dN2coTU9M5yiNDpTaKYJMtmyPmZkVu4OBVEOfER4eQ1cQXAFwnPNyaEJ6KUhaodfqBkrrrsz79JciqeZ5yzbgW3X5/LIi0sn4LodL93dzbk3+lo10SsOdxAsVOReA2ZEWwtZwBcBxzoGeUkD3b3sFYjMWtPO4ojkYMCcwAUSIl136A91kq1l+qgGkSWZjS6VIe7t389uO49xRXAFwnPNi6yVblNTMbp9kW6qWpBixCI2IzKVgAdsYR3D5EMlR9pYSqW5Fu6IhYLE6tH9f+B9SBkzWtzjOpWAX8wDsUjyN49wFrKoC1nsc2suyUDyEWeME2C134VnI1erYOJexfu699RSO41wA7gFwnHNyeE26dK7svo7dD25rl7+1wj6/Kz9rq5gFDUS73DXLg2hXd73NwWatOmTZ45FIrNr1m/rssDJ02ukXx3E24wqA45yDQoWg0qzlFkwVUkK0wFITxS/LZW1pLXFOfrZq93apStPhRXKXjU3n0J5fQjtFyJqeMXTZXyRUFNGCGPOe1qYaipFQCByeQbhQbkceAGe3ycGrl98bt4nLPr44ztZQIFZzPujpTyPQpG1NEVQwa4X/6nuW0wE59K0VfEN8WG/N/+q6iSXJEjEumpRthmre44GnfQD1Yr7pZ7lQdrHCm+OcFvcAOM6ZSZRa8uAD9zPij5hHA2r2xlepq0hV9d330iQIyu9rN8HOxQVdPNZmuUtNn/QmBAzKMlCOxtw8eAKxPGg98+n3E1QQL+ruOGfGPQCOc0bEoEgVH/1hz0OAe8ZCAKY3byAxNnnGWwHVivleprvugwb66GEb/2piA1JkevAEAbg2ym/9yBc8j9LuokRJzl3PLnqLXAFwnDMiGJJqru+P+MxP/DDmc2McYFICqQlSM+gKlltqZF+jFOzeeLBF2j5JvQcEgAiTAsYBFgv49Bc/j+v7JZJqfAbecc6OKwCOc0bUEgWRNDvgy77o83j2A9dIEYItk9vkbP7Lme+NN5wN9MGyXToFln0Ven3Yhlc8+4FrfOl/84Wk2Q1KSehdkivBufvZxUBCVwAc5xxoqrl+dUKQyNe//Gt4wXOfRqzzjVWw2eutLL0AYsN+ZNJKNkB6/VVKVgBiDc9/zv18/cu/hoLI9asTZEMSIcdxTo8HATrOOVBVpgc3KcYTHri+xz/75pfzq7/+G/ziL/4i73pvomBZuxz6tQGylbt7NsHFYrkA7ko/WPN3AMYGT32y8Gmf9mm85MWfwMhqRmnGfD5lbxSIt8MBYHooJmHXEGPwhWuOo+2f9dY5HlcAHOeMJFEqK9BSmTCjpKaOB3z2x7+Az/74F2BJ+OM/eTNVnaiqioihqs3acSEl0MNZhAZFMkE1x1OYGSklRIRxUVIWyvM/5IORJuOPxkcpgECNlCOqlEhyO52Yt/5ZtyMPQKsUVjEyDiHXiUhGEaRTcMQOH56IZ05MdaIslCCwSEAyQiGowCIaqk3yqcaTdGO2oCxLRkFY1Imi0EErC64AOM45aAWQpJqCmtAu7Us56vdFH/YcYoykSKcAoALJiJYIUmCSENNBthZBQs4SuFQAjEKVEAKL2QFi0uUG6utLt1f4nw1rKxqdEQUen80YlyXjEDqBHhrhH9odZXnuqfd9A9cfKURJtRGtUa5VsAi1GWKGIGiAeZVIQbk6GRGBeZ0YFXpu5e2y4wqA45wDM1sJ7ukG5GZbNZ811oXmuX8zUswtzXuzQLRhtqlJDdzUDFAsZ0ysI6muci0BkdxfJ/T9+bl4ezoC+5MJJbCICYuJsiyQZhVJvyR02wNdCmQDGbgGEIJQp1xdMoR8j1V1RCUQCqGqjToJRaHUKVGbEmNEg3bZJoZq/YMrAI5zbtr1vevCSCRbtYog0s5NChARFBVDJGbP7kBbU1v2i1qjJiUMy+WCNwj4276eWrbnSBfyILyIiTIoGpTf+PXf5Bd+4Rf4vTe8gde//vXdvu15tzESkPL1NVAdIAnUdU0oC8qyxGJiOp1SliXPfOazePazn82LX/xivvCLvogrV64wLpU6wagI1MlWPCkXQf79dkvbcAXAcW4TfYtUsG5+OG9q/bcRUUMxRIU08Ex2QZWEQcrCTAwQo62cKrIq8Hcxmcp5SCkSU2JUlDz+2GN80zd9Ez/6w/+GyZUrzA5ublaAGi8J0Fs6OUwsKMQmzFYEVcXMeOS9D/O61/4ur/zxH+M7/ud/wQ/90A/xKX/nv8TMiCaIhLUCVMPEFQDHOQetld+yyS3dWW6pVQLAJIEJki53tb/zYlnCZ6GWIBG7qoiH9l0T/ru4rvpWCaqUGvird72LT/7kT+btb/tLAGY3DoDTKDwDFv6QhX8ITZ6ISGqVgUZ7DKHgobe/g7/3OZ/LP/m2b+Xbv/Vbm4BLI1k3U3chSKvV7hCuADjOOTChCcfePEcdmju+P5BnwZVjAOwuEGLnQdpEPn1Lv6dExaMGzLYC444NqLeCGBQixFjzdV/7NfzZn7wJgHI0IlZ1tyJi/Rz7c9Yy5AlsabwhMWY1SKDQAhHJgbcWiTFSjMfU8zn//J99O5/0SZ/Ex/zNj2VSjqhSE4E6YLYfRus4l5jO5d8T5OsegXXh3+57t7mzz0I/fmK9D49y/W/q80uJGHWM/PRP/zQ/96pXEUYjAKrFohP+rXek/4+mb2zDa4P6Z0YReiLMckxAVVW5/xA0BOp5WzVS+KqvfBnEdAcCSC8n7gFwnHNgrenB+oCy5pptA81sGdXdlcLdgeVs26BL42tx2SdtF1rbJ03GxPU+MuGcK/BuC+fNAyAivPKVrwQgLhYUoaCu63xePaVntTd63XSO774bqOujp0DMjGUihaxMvfVP3sgf/MHv8VEf9VGEYsSwJ+DcA+A4W2Wowh/ujnM/rxdHRPjt3/5tgGyt1jUhBMqivB2HN3jMjKBhRZl6/Wtf13hPLvcU0u3APQCOcx7aEeTQQLJms3U175u39TwEtnU7djv0bWdr++vIflx/81H9frl49NFHeefb385ob4/FdEoIIc9fr9mmx4b6DfPyyZzi9+88c5bTKf7hH/4xIbiCBe4BcJytYH7rdQy2L0y4du0aV+65h8V0CkBMkclkAoCe4CExGLbwPwWqSl3nehNtyP+TnvQkClXSBVeS3MWYH/cAOM45OMmFeBo395Br2p91GuBucd2GEHjBh304v/Of/zNalKRFxWy2YDzeYz6fc7KNNtxlgKchJUACqpqXCAr8rb/9Cc1riaADVT4bhn32juM4W8IEFrHmJS95CRQFqa6giWqfz+eEMOwlareLsiw74X/lSdf5iI/4COqUKEJxoWmAd3HVgXsAHOcCWV3DDZAGncoVdEOfDIcQAt/wzd/Ej/zIj/Cut7+ddmlDWY6oFouTP8AGbsP1VtessuyXlFLu08mEr/3ar+XJT34y0YQS958M/OpxHGfwbFGIqijXr1/nB3/wBwEoerkAZODu6VPR/Xb9dtlvokqMNWE04sFnP4tv+7ZvoyhLVIXqyCxTw8E9AI5zgRy2cPXCi5LsGrtj9d+6wD1vHgAF6kXiMz79M/iJn/wZvuIrvoJ6XuVMh2bQj5E4lEo2NR6Dgdqxpk1gX8j9ZAC6DIwUgRCgrvmMz/wsvuf7vpdo+fcyySWnisb9NNSEiq5iOo7jnJHzRnZHg9GooKoin/7pn86b3/xm/v6XfznX7703C6/VL1t7DFRq9VAtcj+0ytJalzzv+c/nB1/xCv7tv/tRnv7A/exNRhgQgBBc/LkHwHEcB9jGjHAbFxZGgUDg/feezPd+7/fyw//6FfzZn/8lv//7v9/ta7bMGLFMoWxNOWUG1wLEaBRFLgccY8zlgEcjHnzwQZ7znOdQjEeUhSLA4zducu3qPrP5gqIoCGE1/mSIuALgOM6w2aILvaoiZRmI0SiDsKgS167ucXO64FkPfhDPeMYHdfu2zoaVNMCSSAJqDK4FKFSZLyKWEuWoJGjO/ltVNWZGWSjzRc1kVHDt6j6LmNgbjxCgSobqxWkAWWnbLY3DFQDHcZwtMSoDN+cLroxHVNGIlihQinHOU78enyiszttGsnWLMLgWoDIoGu9JZVDHXJOjHBcI2adTFAWLOjEqlCBKjEaMkbIsBpyBI+MKgOM4zpaY15GyzGlpyyCUIQurXK0usCnEoB80OtDwv44YIyEEEhDNUBFCEwpQp7wEsCyUoEoVjSIIhhBCkQMwL/BY5VAQ5/ZxBcBxHGdLqCqlCvOYy/+mlBgXOfgvsowROAph52TKhVI0fZWnQ4SUDLO8gqLty1lVU5YFRcidWdeJEJQ6lwYYNAM/fcdxnO0RVJjXkRCUoMK4CCxiYhETKfWLJR1+9F5ernwbWAvZ8k80kf2a5whUhVERqJIxKQti06eLKjIqdKNnZYi4B8BxHOeMnDcPgLFqxUby8rT2M49z8bfeAaGJipfhta3lb2R3fmvRtn2pKl2fAojmpZddgcDT/EaW4wjyc0NVsZQOp2W4hLgHwHEc54xss8KbkQVhuyRuaO222MWqfmfFPQCO4zg7RuvivntEzZ1jkxV7QuiE0+AeAMdxnEvK0BPZXKbT30XPgXsAHMdxLjGuBDhnxT0AjuM4jnOHkZPWdG4B9wA4juNsifWAtnVr/qRYgN1zKl8c3ZLAW+iEoXtL1nEPgOM4w8b0bJHlbZ7e9Xy9m3Y9QvCYLF9z4XRrtD/Zev+d1J6Wk3aXtQ/ctGSz20MSSNq539g9AI7jDBohW0LaE+TB8jryTi+wowSCImWBoWhSTEEFYpOlR/rFZjY/bdayn3yMzjHcSuagW/gYFZhXi+XrEpqqjIIIiFmXmKl5R9Om7i8BTBKJNomToqZIMpJs1wZ3BcBxHOc4jsu3q4LVNSlGtBnLE1Co5Hz0tmp5bvI0DNmNv1UEjkq11OUcEGVSjkgpgYFhjEYjqsUCLHUfY/0nR8zbmDZaZY+2uuG2cAXAcRwHOG1pnZW9UnYNlGWJCNS1IYVQ14l5tWB/b7Ly3n4cmAv+XWCzBd7+TkouOBTjUnKnlK+AcjRmvpjf6QO8o7gC4DjOwDl7TT0NgRQjxES1iIgIBUJRKKNiQp2yB6C1KF3o7xiy+bc3snUezQiiXNu/AmRFr6oqBG5Z+HseAMdxnLuIFCsARqOClGr2JmNqM+q6JoRAECGJR1vvLkf734VlXYaDgwNCUVBV+fcuRyNSqon1RRYUvv24AuA4jnNGRHLp2Ve/+tV81Uu/ksViQZJcPCba8Z6FfjxAOxfs7XbbdVJKlGXJzSdudMJeVVksFkC6pX9FKecAACAASURBVOBMzwPgOI5zF2FmiBjvefdD/PhP/BjWzA8XZUndWIun+yBWg8i83U67jghd7WCBUBQrikD7e5+WJLls8a7gninHcZwzkQd/M8uPmNCQh/e6qhA9xfDaX0Pm7fbb9nlLJ/wFRDrhX5ZlFwx4q2wz6n8d9wA4jjNoWjd+Xt+dKUJBjKe34NsAr1Qvo8UtNgLiOAvz6M3OltgYq9fzAgBU9emuDW1++xACZlV3ncUYm7iR23LIZ8Y9AI7jDJrsxpfs0m221fE2BnetW5o9XPjvHqf+TeTkVR3Jssu/DR4UEQKyM/EArgA4jjNYtHHTtwPyUlbnbG9nRdYeHZvczM7WsLVHy6Hf7RwUIQcTigjazSjITiwLdAXAcZzBIiLd4FyvLemyEyX1+YfP7YuA4XJRfb+IWdFslcz2ejtrDMHtxGMAHMcZNO3cfwjL+OwggWTx6DetcAZFoJM+yZWAbdPGaCybQzUBzvobtR89Go2AZeKg7AE444feRtwD4DjOYGnn/82MpzzlKd32XZmjde4wF/Az75VtEGCW+G28yS5cY64AOI4zWMyMEAIxRp7xjGd0a7RjOqX1fzsni53tcYd+RwOe/eyn5ec9BWAX5v/BFQDHcQaMkVBVUqp52v3vT6lQAkqk6ASCNvtqLhEszbZjBMam5f3OjnE7fj/pXQ/tNdG8uSBfSx/8QQ9AinlJgEVU8jLAlLafE8BjABzHGSxFUXRz/fujgs/7jBfx4z//W5jCNKVmIXcA0dx29Vw3TBxv4GTh7zbY1jiFZnZol/WlAiioghSQqub1yAjYA64X8Fmf9CJKEqUG6rqmlIJpk2I4blk99KvPcZzBMp9PqeoFV67uIWnG537mp/LAdRg1FlyRLA/sxPyQVvBHsOTm/ZAxUBVINcQFEgJYJJAYk9XF//bzP4n3u2ePtJgjIgiJWNWoBiRs3/52BcBxnIGS2J+MUAzqOfV8ykgi3/YPv56nXoMrAmOyJTehprCaIlWMLDIiMdaEnKOUsHO5ERJFrBhZ4uooEqpZvi6A+67Cp3z8c3jJJ/wXlGKkVGdHgRZ5ykAL6rZW9BbZvgriOI6zBdSgXlSMVLFUMw5Coua+a3v8q+/4Vn7slT/FL/3aG/O8v8GIbDEJuQpASnkATa4EDBIlXxMJsLlxhewQ+sD3K/mSz/scXvSRH8bEZixuTtkrC2KMedVJKFApmM+nlGG7NrgrAI7jDBaxiAKxrtAkTCYTLC1IQfjqL/18vuDv3uAd73yIP//zt/Geh99LrI3QRAfGGCl0l2q7ORdNsES0xJVr17n3vqfwvOc9j/uf+hSmB48ySnNSNWOkxiiUzGY3AUVCQcLQUGISt7qIxBUAx3EGy/7+Po888gijyT7joqCaHqApIbHGYsH7Xx1x37OfxgueeT8JRVXRIuQ13CmiKSJbr2Hr7bZqB6eUV5HUSSknY6bTOUwf5YF772F+8wnEFqgKKVaoCBoKoiXquqIoCjh1sqk7gysAjuMMlvc9+jj3XL+XlBIJwxYVV6/sU9eJOi6Y37hBORlzZTzBBBaLGfWsRiQQQkBTJDuB1duBtWKJEAIpJoIF5o/f4Opkn2I84sb73k0RDDVDFepUU5bjvJS0ST6VrN56EJ4rAI7jDJIkyt7+VepoVFWNmTEajVhMZ4QQGKkwGo+oU6SePoEJFFpQFopZwmJqigm1w7i3Q2oFJZihgFFTjgpiNaWaJ/bHJUEgxYoQhLgQRIz5fIYUJaOyJMaImG01kZQrAI7jDJbKmpquRYEY1AYE7eq2IwkFtB37UyJJuwRcyesAtm3HOdtAJWEp0RWRTpEgEIJCik1waMJqUNUcM1IUJBFSXCAmINtdR+oKgOM4g8QQTBprznJWQDGapD8ACUxBEmKKSY72V1vN4Ka9/bwdUtteJdJcB0th3l8emoSuDHC+fhJJdOvCH1wBcBxnyJjmARp6rthmYV+nCIBmMb+yTQyC9WIAzNthtRBluQokWeqE+lLg5+slNY6mbqulZruyTVwBcBxnsAgJtTwIy8qgneiStIg2Fv/qYK3WWnqtteftkFprrgdDERImHDmdv31bfzOuADiOM0gEA0u9QTt1z2zFMkur72m3Cp3ysO2ANG8vvk1NIaDGH9BTIJfXy1EWfusB2DauADiOM1iC5bz+tjafK0YvS2vjEdjAqmfA2yG11qmOjRdIrJkeWKWf7feQl2nLuALgOM4gUcvx+0LCuliAxt1vqVECjrPg2n23XNPV2Q4CWfADZs3zlOf/hRwo2GKyvEzEGtG/+dq6SLZ/BI7jOFsjNU79pTWmtvr6Llhqzu6iln0B60H9aU0v7F7fIYXRPQCO4wySw/Oz2hu082h91FC98t4dWM7lXDz9ayNfAgq2okr2XtvNa8QVAMdxBsu2l2E5l5vDut/lup4u19E6juM4jnNbcAXAcRzHcQaIKwCO4ziOM0BcAXAcx3GcAeIKgOM4juMMEFcAHMdxHGeAuALgOI7jOAPEFQDHcRzHGSCuADiO4zjOAHEFwHEcx3EGiCsAjuM4jjNAXAFwHMdxnAHiCoDjOI7jDBBXABzHcRxngLgC4DiO4zgDxBUAx3EcxxkgrgA4juM4zgBxBcBxHMdxBogrAI7jOI4zQFwBcBzHcZwB4gqA4ziO4wwQVwAcx3EcZ4C4AuA4juM4A8QVAMdxHMcZIK4AOI7jOM4AcQXAcRzHcQaIKwCO4ziOM0BcAXAcx3GcAeIKgOM4juMMkGLbB7Bt1Fb/TsjRO8vqzmqJvg6V1t6aPzv1Xl/ua7LxIy+ejQeSUNND59NHLZ+v9ftLrPmY9px19Ts2fI/roI7jONvh0isAWQgv6QtZWBNQa4iBmKEsBb82Amn9cyCBJRTr/hZSp0AkaQW+9l5v3tcda/5c6wvOTmhuARNMNH9/d24JJB97K+Qz+bza/s6vKwsdYYBQoySQuOwXAwhg2vRnat6//J7U+2zHcRzn4hj8yGvSimjrDNXDlm/fil/+bf3uM4VOeQB6qkIftbR9q7+HNEpLeybSbesrVn0vx+olo9YoA4BgjfBfVcra/cgqQvNFh/dxHMdxLo5L7wFYt1DXkY1iOGMK9aF9Y35u8ahvJHZfpZ2cTMiKpzsBiKKmrArT5p2WFY6tKgNijeW/fnyNL6BTZFY1olYJUBOK1PSgRLJVv3ZOZpgk+n0Qez/VLilDjuM4Q+LSKwDnJQmNgMrCSAFp5/YlNZb9JvL2KNL93VcAsnBPRAFZc5+3bdoBB8y6n6Kb4BAw0W7+3hqhL5YwpBPcgdhsgyQJjOW0AuTphKYPVZYeFOs8CepKgOM4zha4CxSAzUJ0kxt6nSjNFEA7f98IsNY9fSi+gKXQWkr7/rZmv+YlbXexhGAk0ZXPVEsbYg0ummXYY1/498/RVo5Rm21k74HVBEvETiHSldA+AZC69zx/Xjv3H+7AGTmO4zgncxcoAGcnBwHmmek26K2dE8eUhK6uEmit4F6QQPYeNG5+AUy74LmEoq21u6YESCsCbVPA4UXRD1Rcj19YnqMcUqbWAy0VQ4miRAmdUiWWECKh6eNlwJ9H/zuO42ybS68ArK9iO2T5t8FmG1z5ajBKaRlHYNq5va1n0XYfZUuh3X52OhQw13x2025SAnaR4+b8Dx1zr4+TFCSBSgK1FtSNAiAGIpHSFlnJIYEYaglD83TAHT8rx3Ec5yguvQJwXkKCAEQpciAfBVECiWIlyl9IqCSCJayJdgdQmuA3aHzolgVps8QuW76rSkASJZxiiuLOo1hjja/P+cNS8B+eTsk+kygQpSSKUktJLQW1Zqe+WCIQG2N/QWEpK1DSTAVY7nef/3ccx9kOl18BsPUZ7IbG8q8XFVevXuXmdI6IUIwnTKdTRIRJWUANqgUxCUkLYthjWsPr/uCP+euHH+Ev/vJtPPne+3j6096fD33eB3P9yh6FVmidKIIhySgCLBYLiqKg0MSiToxGE27O52g5XlECluhaux1WVlGYHHo9WI2IICLUdU1RjqmSUceIjPdYyJhHD+a8/aGHeONb/pS3v+shrl69hw957oM8+PQP4APf716sBhIESZQamE6njEYlKSVMD3+n4ziOc+e5/ArACVy9epVHH3+M8WiPeV2RRJns75FS4saNKcFg/8oelcGCEa/5gzfyin/7U7z7IC8RFMD4MwpA+Xk+9+98FF/49z6bchSJ9Zwy1MR6wXg8pppPGe3vc/PGo4QQuDIZM6uXEe+pcX3TuMEhbcg5sA2Wbv8cwZ99IWqJGCOTUcFiMUe0YFbVjPb2qCtjTsHr3vRn/OhP/Qfe+vabwHJZZfErryUAn/YJH8xL//7nUVcRjTV7Qbhy5RrVvCKIksx2pA8cx3GGxd2rADRz/tPZgsl4HzNhf/8qMRkHN6eoKpN77kF1xCMHM6KO+Tc/8dP8x1//E2pgAVRko9gad/VE4cf/79fzO3/0+3ztV34Fz7r//ZgfHHC1VEahRGTGjRs32N/fJ9YLZlWFlBNolhceFnS7EAjXT098+HiKouDg4IBr1+9lHhOLaUVKgSoU/Ot//5O86tfewoxm8USA2KRPSMA4wC//xpv54zf9T/yPL38Zz/iA+xBVnrh5g70QmM1uMpqMLuQsHcdxnFV2QQLdUcwMgiJFwBAev/EEV65dpxhNePzmgvceLIiTJ/H9P/yjnfCfCcyAGAJJFSsVmygHBpXCW/8q8i+/7//gbe99lPGTnkoq9nliOocw5vq99zKbzSiKgsmoOFQP4DJSjvc4mC+oEpRXn8RBCnz/D/87XvVrb2EKpCIrS/MEOioI45IKOIhww+DP3wv/9LtfwZ+/+zEOopDCmCop+1euHV97wXEcx7lj3PUKgBQl1f/P3ptHyZZVdf6ffc6590Zk5huLqgKkmEsG21IbEURBQVQQZFChkbUaG11o2460qNjQjUqr5YCADUIpJSgyqSwRF04/bGltVJBfg/xaSoYqqCqKoqZXb8jMiLj3nLN/f5xzb0TkyzfUmPkqzwei4mVEZOS9JyPv3mcP390FFGFzOmG8uo+gcPzEhNWD5xFHB3nd776Lv/notXQkw98BGAPG5VtN6CIq4A3MgC8cgV941Ru44rM30LlVWrtCdA23HF1nvLpKUEXFsnUWwHLR2847BosFfrKdTLFY1DqmnTKjZoOay972R/zlh69hCsQKupCFjxDa1jObdZiqIkh6vrXwxXV4+a+8kU9//gaCGyPNiKkvFYCFQqGwU9zjHYAYI8ZZuuCpmjFr+w9wy63H2H/oEEeOb/Lrb7icv/qHf2EGeMlhf6AaraZ4dlDoPM34AJgK77NYsIPrb1Uufe1lXHPTUbwbM9UK24xpg9AFpW1bILfE5eE3w9e9hv4usIHmpPbEviDQ0EVFjaNeO0Bral53+e/zF3//GVoHrTV4b8BWNM0KYBAM1lbE3ErZBsNMIY7gpg34xddeznU338rxSYtau23aoVAoFAp3Pff4q69zjhgjIoK1liO3HGVtbR8xRt50+Zv5x3/+LGIsKkKraReLGrSdQYxYYyGC35wiXrFSYzAEb7ACt5yAF7/sNdx4dAOqFVp1qLG4qsGY5eWdCw8pZmGS4E7RD/Lpg/Bbd/8xj/fZmLVMPFz+++/if374KqbALDrUNIDFYplNpxgNjKyF0BG8x9SjVBgwXmXawkzgyCb83C+/js/fcgt+y/yEQqFQKNx93CMcgLkI0MnPhXaGFZOK2SZTpBnR0vArr38Lf/fxGwnAZlS8CmIqFMEZS/Ceyjqib6mdJcYuOweR2o1Q0s52Qkob/JdXvprPXn8zramYeFBxaO4dSMc4D6+nHnozlwzW7Y89PR6H2yLDSGGVbdr3zuxc9M/3Kn79e0ju11eBaAzejWB8mDe94938+d9fRQtgJaVIQjqm4H3a+4uhCx0A1lpi14FzMJ2BdWBgpnD9Bvzia97M5246RicVUezQhbB4npodkPlzi+tx+vMrFAqFwunZcQdg0cBtp9+/aAS2vQUYjUY5ER1o6hpUiTEZIYDGWXzb4eoRG97w6296B3/58S9ylGTAlUgk4mOHLtx3oUWJtH6WXxOIRKZ+ml4PzAxsCNwwgZdd+jquOzLBrB5m4g0qNargjCF6nwyYMQQFqjHToIiCzdLAvWHrDZ2wfOvXpzf+KgaV7GSozA3k0uuXJ/H169wLGbVq6ewISHa9cUropvgYiNWYdca86vJ38uf/8BkmpO4IAHyLYQbaQV4br3GQRQqhgxggR1LwHmL6/glw3QR+6tLL+PzRKZtBCAoiirOCn02pmxE+CGFwpFIaxWpcWK8773NYKBQKe40ddwDuCKJQ147148ep65rglcnmDGstVVXRdV3a+bct0widaXjzO/+Yv/k/VzJF6GSu9nd2tiSiC7de+18NqIMjE/hvl/4Gn7zmBmj20arFuBEaIqO6TroBVcVsNkv99SurCzpGhpP1+E/GbFeoh1kaviMndR7Mf81b5w6Im68V5L7/1TXErbDuDW98yzv5x3++kuMB2n54UtSk4hf79EEc1rC/9euFxiyBnJINStIK2FTheICf+rnXce3NJ/C2IUrFdNbR1DWz6YTVldFCpMLm31W6mVxXUZyAQqFQuH3suAMQpb+ZbYfinG7/jygSO6rKsTGbIU2NG41oo+J9UuabhoAZH0BXzuNVl72Vv/j7T4Lp8/BZou72olDVDo0pABGAWzbg5371jXzu5qOY1QMc25wSUSorWAlMThxjdTwiho7p5mRIBwSR4ab9nl8MmiWJdcuvyqhiYkTU5/NYejZVGSxo+y/eopghBeGiZ3r8CCujhiiGE1PPpjdMpOKy33snf/vhT3OiBcRgbQ1YJP+e7G349KjqSV/PPBxp4ZWvupyrb15nM9aY0SpKUiCcrR/FaDq3II7WNLSmIojNa7Ac3SgUCoXC2bPjDsAdwWik62Y4q4xWxhhnOXL8KHUzwlQ1mz4Qq1UmpubX3vhm/vdHr6El9atXbl6Jf0foZm0S+rGOFtgE1gO89Odfy7989lpWDh5GXcP6ZBNrLYcPrtFNN6iso6lqIBn/FM6f36JJhjuInOQcDSmT7Bos7rv7f/Xa/osKf33F/VA7AGhoWR3XeI2oMdSrh9iIFZf97h/w/g9dxYS0Y1djCSGC6mDM9TbuvlUVkfmKh/ze12/CK371jVx9ywmmUhNsKtwcNxZLGJyAtB5uaUBToVAoFG4fu+BKOg99Lz26pTZguxuAtULXzUAjk8mElZUVOoUjG5uMD17A0U549WW/y//66LVsClC7pPS3ddN8O+nNmfcRdQ0ex1EPN7fwqt+8nCs+dx3BVURjMcZw9OhR1sYjJHjs8N15DXQ+hjiy4BD0gfat4fstNQL9brjf+Q9Gfun70s/qH0tDjpS288zUMaHht972bt7/oSuZknL2AUdMYw8RYzAmTTXwerapkzm9EyCS0gFtvl23Dq941Rv41HVH2dQaN1ql6zqseizdvP5hwQlI67ELPsKFQqFwDnJuXz0lYm0yrJPJBpWzHDh0Hsc3Z6yd9yVcd3STy//gT/jrf7qaYKFV6GLa9mseR3tHUsgCVEaoXQUYjE3CQVEqPHDNrYFLX3s519x0jOAaZhhcMyIEJQRP202Zh7DnOgF9Xjv29QnbOAFzg78cBt9upG9f2S9bQ+YqIBaPhWqFmTa87s1v568+9GlaOzf+g5sjko2/Junfs/j09Mb+VNiqoQM6getPwCtffRlX3zzhhDeoqVEhu0Mdlm7QKwhilzopCoVCoXDb2HEHYGsX20ndADI3jCd/s8FHRcWwOm4YNzU33HQzUq+wHhve8Pb38pcf/FTS9Q+kGfQ+4KqKiMGNV+5wDiBEpfMd1jli29K7FG5lTAvcsA4/9vI38IVjLaFeY6YV0Tiqqh50AhYN9FDxn2/bOQHDWi0Y8z7sv9X4wzZ1FAutftQNm96wieN33vFuPvBPV9KSZHxVKkDSp0QjxEDwLRpT9V88C++pTxcsOgG6kEbw3YyqHhFxdCLcsAH/9Vdfz5VfPMHErmQHBCptqeIMF1tMHqYUqU4610KhUCicHTvuANxRhnByFI6tb1KN9kGzxq+98Xf4wIc/SSc5h51b1wXw3oNr6KbdMDTo9mIG++izMxGhrplOZ3iZ6wT8zCt/kyuvP0prGja8IZoqfT+KIWAIWE03IeTdOts6AX0UYHg8F/xtdRJ6g39S+qSvFxDDZrC09Rpvescf874PfpINktSxDjt/hRhyqiA7HArYFPU4G/u7tQBwkaZp6NoWU1UolilJMfDnX/3bXHXjcWZmPDgBVuNSTUDZ/RcKhcLtZ+cdgG2FbJjv/KOiIYX6Y4yYqsZrCoUbYwghULmGNoIdH2AjVvz6Zb/H333k02nnr8nciQIhn3AU8JFT1R+c9aGT8uCR7ADELvXFzzbSjhloDWwAX5zCyy59I9fcOsGsHmLiIyoWVcUaCL5FiFTGI6GlsULsZsCyEzAn5/IXqv23XUc/Aw3DzVrLtGvpgie6hplb4zcufwd//Q+fSnLIgK3GgJA27T7137OlaDIoQ93C2azVKZyA2WwGRGI7yytq6ICbJ/Azl/4W1xybcUJrumjACJVVQjth1FSoD2f1swuFQqFwMjvvAJwBEUFsMvSBpK9fNTURxSs4W7Mx69gIhqkZc/k73sMHPvIZUld7ny/fZqN6B3f+w9ssHitzud/58wZvDd7CDdOsE3Dt9UknAINxFSGmnXBSHXT46SYxdKyOmiESQD6ffpff1/9vDfvPi/vSzt9ay7ipCN0MYwxeYby2hqnHTKLl9W95Bx/8589wIqY5CAGHDxFE0eixpFHIJp/ffNW2XdXbTn4bIxFDijREYKpwooOf/LnXcfXNE2bVGp3UTGYdde2YTTdYXam3zDAoFAqFwtmyex2AXBEfIoxHq2xuTqnrEaPxCrO2I0TFVBVTH3Hj/cjKIX79jW/lzz74f4nWEklG0ObdKyRjHYZdfxapucN95CbvWxmMZb9bBqAeo2qZaUUrcPOSTsBBjk1mBARjK0SE9fV1VlZWwLdMJxs5Z3+qoUHLEYztBuv07zlaWSOIYXPWMQmGqdRc9nvv4AMf+hS3tuDFgKtTTkMUNOKcWTL6y+++LPlzuxAgyyUnRcT5+iWJZriphf/26su46uYp6zSYZh+KwWpkun78jv38QqFQ2MPsXgcgIyJsTCfsP3QQYx03H7kFsRWr+w5wbGOKNqvMbMOr3vA7fPCjVzEDJkFx1QhdyIgrfUSgP+WQb3eCkMxiEePW59o2PWprojompAK7l/78a/mXq66jOXg+0a1wYjID23Dg0CGm0ynOOUa1y4b/1Md4JiW8EALNeJVOQY3DrR5gI1re+NZ38Vf/+DkmCkEA64Y+f2Kf6w953RJLR7GNbPNtZksURmBw1iA5a60IX1yHV/zq67n65gkTUxNsTYiRZlRtKx9dKBQKhTOz6x0AWzdMJjOMdaxvblCPVsBYbjlynLVD53PrTPi1N76Fv/3YtcwAm8V1Zl2L5ABxv/Ofq+lFJOe271AQeyEK3rcULhtJkkHVCL4FZwnAepcU8H7lDZdzxeduoHOrtHaF6BpuObrOeHWVoIqKXXpHsyW9sLUFcHHg0PwQDNFYpp0y1YpNabjsbX/EX/3jZ5mQwv6QBvoko6459x8JcX5eYeH8BvnfO1GJr38nze/fNw0olk4sX1hXXvGq30w6AbHGjteYdWFb9chCoVAonJldf/WMMTJeXeHo8WOoWA4cOkzrI65pOLbe8pY/+FPe/5GrUZtz2L1REiGK5vr6ueFnaLO7c09eZW4kexssgDWCcw5UqYyACJ0kXf1rjwR+6bWXcc1NR/FuzFQrbDOmDUIXUr0D9MV383bIvs6g9z/ScJ9Fy98XBCaxnIBBqxETtbz+d97GX/7DlWzavtq//08chvEMPyeL9YSFW0/62XfQ+EvMJ7Ll5yxGVKrU6ucRvnhC+YVXX8a1txxjvVOwTWkDLBQKhdvJrncAvPdYa2mahpWVFW6+6QjWprawN7/t7fzZ31/B1MA09/mr99RVMidutAbGppn0eVfbG//01R3OYi9OxAE52VASOkI3obLQtVNUlQi4ccMMuPEEvPhlr+HGoxtQrdCqQ43FVc2gEzD8qGz4c+3/wmS/+fOLRATrKqY+MIuG333nu/lfH76SmcAsOnA1IuAkF/qpErxHw0Kfv7j5bWFAUe9A3SHzq6SJgQQwFu1nFGCyxkDqDqgq149fSjUUv3wZn/3irbRSbVv3UCgUCoUzs3uvnrkNsLaGbtaiYjkxabGr+9mIFb/99j/hLz50TVarM0ST7DxACIq4Gj+dzi28Llex93vXvugsYRZupzgsthq9Ld8zhK5T+B1xufUwYvKTVe2YTmeoJLW9GfBfXvlqrrr+FmY2CfNEM59UiIRBxU8lLvW/9yFwo30vQMgiPwZvHJvqaKuD/PY738P7/vdn2NTUupjkEHVJz196R0DAOnfadThT8H/7dTr5cekXi7itN5F0AjyuGtNhmJFGL//8q9/MlTceZ2IaOlMRFwYE2YWxystHu3DUp2o/LRQKhT3CjjsAzhoETTs+I6jJIeiYDFnlACJd1yH1ChNZ4Td+/z386Yeu5Djg+xy8GmZ5Il+IoF3KaYsGKpO6AQzMJffz99XAaOhxM1CvkCbeZaV+Yclqmfy/ZLgMaA0yGmL/1oLrBfTqhqCWQIVXk4V5oOsHEQhDOuCLE3jpL/4PPnvzFF07j1m0YA0a26SH78Bay2w2w7oqSRlocjJCJPX5+xlrlYXY4RE6t8oJd5DXvvU9vPeDn2Yd6EjCSc4ohA5XV3hJwXzNCXhRCF0cnCdrDaJzPYCmqRBbDa2Iy0bdDMV8Nn9lXZ11gw2rjR0cLmMrxOTIRtT8+0oKiM4KxjhmMw9U+C79tjoME+CG8u/BUAAAIABJREFUGfz0r/wWVx1rOSojOlMjxuI0Il3HinNpTfrUiaSpiQafCwfzPITiBBQKhT3KjjsAIYTTKsVtbEzAWEw9JtqG17zxcj7wj5/gWDTEegWyShy9GE6+9TlqJxCDp6kbjHXEmIrcjUBj5yq3o3EDzqW4tyQTv9TON7DcFCfqcdphBZraEP18Sl7skhpBf4Ani/mkZ2eaBHiOe/iFV/8P/uWqa5liiWIxrsK4itlshveetf376LqOqIoYM4TOVZW6rjm2fgJbN0RbsRngN9/8dv7+Y59kAgSpieJQFfCpx9933XDAJmnt5Ni+zV8IwbeMHFQko97NOmLs5pV6S2szb4s0gKIEH3H1CAA/S7p+Te2IIRAjrKyOcXk6o7XpOELQnIPo18zm97YEgYnC8QAvfeVruO7ICTajwWOJmmoujh07hrWLsZ2UP1n+fe74x79QKBR2jB2/AvbGv28/NwoaJeeDHW68D28bNrzwxst/j3/62OfSDBsi6ruFN0pV6WmXGged/E5BqjGbbaAL6bHGgolAgEu+9AHZqLXgPYQsM6tx2/qAxbC3JfLVD78/deywGoldRAyEkIr/rHiEDqFD8wAd3bLkfZrfGvABbrrV86rX/jY3H9vA2zEb3jD1Sj1eTUN4Qir4MyYZ/RA9VZV241MV7GiN9RZaHG9917v54Ieu4PhGKiY0lV3S5DdZ6ZdUh4eP0EUI0cyrGbNSYfQwNvCg+x7igoNjrAIaTlEDsHyO1hn8bMq4MnzFIx7IigFtcxeGCBsbMzoP5GPweZFFckqDDmGGSaLO6f8KXQsnNuHSX34d1998lOAavGvwtqJeWQWx81RADvkv1wyUFsJCobB32XEHQPKEuWSYYiqSEwji8FKx7mGqNb/3B+/l/R9Kff5iwIjJBWTMjRhZhIf5w1iHz7Htuhmn8HOANQOPfOC9+A///ru54PAKMeQmN+dwdYUgWLO9eVusH3jy1z2KF37Xk6nIO1iTjKcEReJcRS/t8bccXO4Q7Cvg+wz18Qn89Ctez1XXH8GtHmQzWIyrERGm0+mwszXGIFEJIYBzBAxTHN6NeesfvIe/+NsrUpufpNfGtkuDfPq1yYdjZB610F7SKIfsnTPYCCOB8w86fvLHf4gKT2OXe/a3W6MIGGsJ3iMGus7z+K/9ap777CdRkdIvaZIi6WfV9TzVYoWocQjbWwKCX4gvpPe3Bm4+AT/7C5fxqWtvpKtXWPeKVi7NfICsN5Bv2o8R7rtFipJgoVDYm+y4AzCfKZvy9UjaFcbsAMRmP3/wvvfzp3/3r3SkjdwspB26tTJY0N74L52QkMLIxoEYunZKbaABLtwPP/2jP8hF97mQrp2m79MIocO3U5RAPMO4OwHOWxWe8U2P5QXf8Y0pRO4jjchQcLhUKb91qqGC2NShECM4O1fAu9XDr73hcm5Y73CrBzm+OUNVqZxFYhi6I3oHymNppSK6Nd77/r/jvR+4Ikv7piWIMbdAiqb1pS8G3GL8xaUiBuMARX3LioULDxhe+fKf4sLD+zGxG5ofTvoALRVBktINwKipsMBq7Xj2t30Lz3/G17PPQuhaqqrCOpdqIyQVUYSoy05KjuwIISd4KpQUsVDgSAe//LrLuf74DFk5wHrrwfapIJDoQN1cN0DS0KVCoVDYq+y4A9CPhpU4HxGLsWAs3tRc8bnreNeffYSWNFkvGDMP4+r8Ar71RJZMbTdDnGA0YCM86N4jfullP8n5aw3qZxAjzuTK9xwWd2Kwp9niahYR2jx+hBXnefoTH8cLnvkExoDVtI92Jh1HgAUvYHHUMcSgVHU9PBNIPlEwcNWNkXf98Z8TTJ30/1UZ1xUxdFhr8d7jnKP1XSrIq8Z84rOf5/ff80FaIJoUdwj04joyOA2KSTUELGgX9OmBECC0iLZUwJccbrj0FS/l0EpFhUdingV0KmQ+qDjGiHWO6WSCAGF6gkpnPOfp38p3PP3xrFnQbkb0LcNwA69D62ZK9ywt2QIu7eNzN8V1R+H3/ug9nAhKvbI6jCs2fdcDfRoA5mOmSxqgUCjsTXaFAwCguX0t6cIIXRQmPnL577+LjiTy46ViFgxBobYmd47Fpah634c/FHcbBTpsN2VV4KH3XeEVP/EjXLBvhE7WMX6WBuVFCF1fA5CiEOEsNojNqAI/ZX8Vee5TvpEXPOMbGAGrNuezF49lyXq5dDNp5zukqYFpTN0BncD7/vb/44orr8Y2K4gIPrRAGvITgmJtSgtI1RCl5q1/+B5mJIO4GSHKgkSQBoJvczQgK/4OGgk5DaMx5/Y7Vi08/L5r/NeX/Aj3OTQmbhylUk+VHSOz3adnoap+MQVgrVADVjvi5DhVnPLcpz2Z73jK47nPmqMm1WYMBtlVYB0xSxX3KoTJWdHeYwEsrUoa/lTDX//jlXz8k1dyYnOG2L5Qs68DWHAez9jIWCgUCvdsdtwB6IvSFu81gveRaRv5zLXreAGfh8Yglqoe4UPEyjwb3O+ew9b27ugZuxT2v99hy8++5Ec5b6VCug1GNlJZi8s20Jr5cZgte81TYQzE0MFsnTps8h3f8gRe8PQnoAEau/Ae272dyrDrNibXIAK2rpkFk3bxwMc+/gm6LqRQv/fZOQmIs0wnEw4dOsSs9dx063GuuOoIHnK6xOacvgGRYYNvDLmOoG+Fy1oCIggeh+dABfc9WPHy//yDHGoiTI5yaG1EO9kYugXaeGYT2jsbGlILpJNIY6DWFtdu8oJnP5WnPv7RHLQgISbnwpAWI+sOLzoBWwm5QsA2YyZtcrg+deXnsKMRYemDMNdqmL9Pyf8XCoW9y447AMYYOh+wYnDGYEwa/VuPGj5xxScx5HCzq7MaHXQxDIancS63mxlMPSY1q1WYqgFgxYDr4OH3tlz6shdz3hhc3MT4acoBaxIPMKQdcR+R8NGffLBbjLgCXY6F185Q4RnT8e1Pfjwv/K6nQlCqbXf/6ZvFyDB4J+ZctnU17RACTyHuz15zLbbKDlDUYZ1iTJGAGCNt23LNtdcO+1oxLv3QvONVTRr/VZVenwoHbRbfzx+D0DGSVJx33wM1l778Jzl/RdhvPVU3QbpNmsoSArQKsCBWNKxRH9HpzevcyYn5O6x6jJ9R0yLrN/LC5zyV5z3t6xgDxkeM+vTNdQXikKYhiiyNbhIUZx0iDsXSzlKhIQKf/MyVGHGnbS8tFAqFvc6OOgDaF785h4jQtu1Q3Oa959ixY2lHbCTlpfuK7RAYjxuiQus9K+MVwBA7DzZVlcduloryAjzoXnDpy1/CgSqgm7cyIrAyqiD4s58mJ7B1eh2kiIGIoBoJXYuGKftHhq/9qkfwouc9DZvlexc3m1VdI3iILWiHmLQGCHkiX3pdjCk1sH7sKN2sxVpLVVV47+m6LlXoW8v6+jqHDh3ihhtuGH5GHCb6Kcba7DBA1/WtexF8Nxf7IbJWC1bhQec3/NJ/+2nGukkTZ1RxhtMO06drZMG4b8vWNV2cGtAr9QWcdqxWke7o9TzjWx7PC7/zG9hvwUUAD7MOaZrU7qlC1dRZoTB9JkLohjqGajRKvpTCTV+8iRhj/jrHiBby/bJwXIVCobBX2fEIQMiJ9qxun6rareCMcGD/GnWu5Heub/uLiHNsTmYYI6yMRmxONslvkkraTTJkI4Uvf8AKv/gzP86YCfuryP5xRfBTgk/987C92M9Qxb7UU7iMAKKKRVBx4NKuU7Tl/uev8a1f91W86DufxJhUb+ZGI8DQtS2NS0JDVoB+R655CyuCqRyVwAg4sG+MxJBeIxaxVarkj5HJZMK+fftY3zjO+fc6zGrupKudHZL0sRdbymmAqrI0VZ3THQEnyoqD2Cpfeu8xr/jJH6YJm9xrtR6M/9Lgn6E8vxf+McvP6dmZVoNHug0OrlYcqJVve+LX8d3P+kb2GagVrAnodAIK9eoKXefxPuKqihADlauSo2Mt3XSDWlL85373Pg8NXdJHkFRQmY53Me9/esnnQqFQuKez41dAsWZQA2yaNACn6zqcNTzsIQ9M9hwI3QQIqZC77++2ho3plAiMxw2gVCZiQ0sDPOQ+Y17yQ9/Pvlqo1UM74cSxIxzYt0qIkTaL/iyrwd7GJfER06vUicU4oWs3iZNbWWXC077xMbzoOU+mAcLmFGeTToD3SuPm0QFFkapOUniqxHaSxv8CX/rgB9LUybmYdh5jK0xVE0KgaRpm7ZTKGh70gIuYtakdMvoOQotzqWKvb8dTTVGAtmtTVwQRGwPi4YHnGV76Y/+RC/ePWXMK3WQQVFJMWqfFKMhJ0ZO+t35hpy1z3YGY13dxva0VunbCbPMYjbQ87YmP4/nPeiIHLLigjOpUmNhubqZUgkDXzYBI52eoeohJVMhoSl889AEXUZE+V1F6Ry4ttJDVALWvfdjxP4FCoVDYEXb86uecA5P03hRD0KT7r6Hj/MMHePj9x6lCHGgqIAZM1qttu0AA1lbXmE42sHikm7ECPPTChp99yY9yr9WafZUwcpbNzQ0OHz6PjcmMNkTEuKV58nPDJAtagmzZzs53kQawIti8Gw8hpLo+E3F4GmnZbzqe/oRH8wPPeTJrgPGe1VEyym3OaiQNApOm8IVkqGqBFdLtkRc/CGdT4Z6PgS73t/UtfSHPPbjPBffiIfdtkl6/SY5A8EkF0LrlnLgB6hxhqIH7Hxb++8tfwvkHGpgdY2QjkoWWoliCWBRLlLnmwjwUsGBIJaUwttMHSE5AivRov8YmtTGO6opKO0ax5ZlPehzf8x3fxAhgFji8fyU5GzHQjFLLpDU2zQcUBavUwGquX3jkQx6ERXO7o+ThSen3NqR8NJ1PoVAo7FV23AHoC9lUdVBuayqXDH3s+J7vfg5rZIW/zmOJVDkPDAZXNZzYWE9998AqcPGXrPLKn34x561UhOk6sW1RVdbW9jFtPW1UTOWIfVl831V2G2rG5gIzeW6AKIhH8wAaYyOOjjEdtd/gmd/wGP7jc5/MCPDTkIxhjvi7/rcwKPLEIS3x1Cc9goc/+CJ8OwUi1lW5dqIvHkzr51AmJ47yI//pRbj0FnlgUc7WS3KaxBhWR81cIwl45EVrvPJlP8FaBSPpqDQQfJfy6DgCjiCO0FfZkZ0flgsl5VRrmJc5peiTHK+KIYplGsE1K3jvqQxUcco+4/nmxz2K733W4xkBG8c2h/Vo2xZbuZQCGFI4Iadj4CmPu5hLLr44CwfJMPQvmn4oUMy6AL0yYKkDKBQKe5MddwBCCGmnJuA1Yoyhrmv6efcPfsBFPPVb/y1jIRXUAbPZBFM3SeY3zwOoXXIAHnLRPn7uJ3+MNRsxfpODKyO6bkbbemYecA2TtqNZWaHz/uTr//D11up22C6xnXLxKRNeGxACqgGfIxn4Gfsk0MyO8ZTHXsKLvusbaQBTp82+5luaxVtBVQERB9z/XsK3P+XJHNy3CrkGwFoLKkMNgDGGlaamnW6yf6XhgsMH+PfPeSKWtMNfXOf+eGezGQCrFTzowoof/0/fy3lrDVWcEqebHFgd48RgjCOQdv9RLBE7CPH2kstLtQFblxDmdQ19C56YIQoQMQTbsNkpYh3ddMJq5Whoqdp1nv/sp/F9z31y0g8A6tqgMRJy6qbzHZiIxsihVbj/efC873gGYyc4UlHpPOUQWRyrXGoACoXCXsed+SV3LZK3dqJgjEOjENTj20A9buj8lP/wvO/k4L79/OGffoATszQ+17cTYH4Ztx6e/c1fzfOe9RSqbsaBUYWfTfFtoKlrxBimXYtBWV1dZeP4CVy9lvaw224C+1Ax8w6Ahd1tXyQo1hJCh2rAVYI1oCZ1NUT1BB9oakvTOI63gac/6XGcd+EF/Obb/ogbj0YqyLn+QPCpmLEGnvjoi/m+5z2Tw2PLxrEjNJXNqomCj4GmqjGqhBjZ3JywtrbKickm1lQ87cnfwIEDB7j8re9BZhCISExaCSaVUbDq4EmP/ype+NxnIdNj1DrDOMHkrgIRizibnJM+X77NOm3d8AsLoj294Y19c/9WZ8GkdWtqNESapiF0M9QIhw+scustX+CbH/9o7nu/+/Cmt/8hV39xSu2g83nSoJK+z8AlD7oP3/u8Z7NvZHG5PqCpHUH9vG6hVwHU/vd7JzgAvQd5mpkCW53MMn5ge27TOp3FuhcK93TiPIidGOq0tlGxG6578y931AEQzRPp8u7UiUFz+LuuHOpn1Ap12OBZT3oMj/3Kh/GX7/8bPv2Zz3H151ta4N774ZIvfyBf95iv4eKHPIBRFQixw89mVDbl1aOmn1EZm4rjgMYZujxgJi5eeBSSvEwOsQMaFw1FXPqX19RPbzT12gef695E00BhZ/FiiD6lBmx7gide8mAeeb8f4H/+7Qe54lOf4dNXbTJVOH8/XPzQi/j6xz6ar3jEw6mMx0afJv/lSYYqYagFEIRoLRbDbNZRG0dlIYYNnnDJQ/maX3oxf/Le93HV567m6s/NaIELDsLDHv4AHvM1X8sl/+ZhuHYD6wLiW9DkJIjLRY2qWAXViKIYTfJIkSS4k5yn5Zx/vzrz7omIWdJrDHnAj2JU0ocgtz52GnNbBHg/YVwLTloeffF9efB/fhF//6EP8+GPfJRrr2vZ9HDBfvjSB92Lx33No3jUJV/GuLJ0kw2iEWpn8V2LuP4vxC3UdJicZrmDw4AWpgv272XyH1nM6oqpZfJkz6nXZ9zuub3E4jqc9JsYxjfP0zZR2HbdC4W9xzwGm+Tms7psEplJtjS/csklkLyZlbgLIgD5b9ds+Rvui7VUIWwcw4rhwRce4vnPeipVPSIERTUwrgXRmHeEHp1NsZouHN5H7Jbr60JpXw4Hn/risfytW3ew6es+xyx9z6Auf7fXiPcB4yx1VSGzFuc3edgFBzj0TV+Pe+bTWG89tbPUOQxeO0NdKbPNaRp4tHTMc+Oafm5q7Us9+hGJXeqKIFBbeOF3fTsz36GaCi6ttURNgXwXpxhmGA1pvSUSB7U8GS7JyXzLEO4fTnNYoC276T5dov0/A5I/ar0GgWh6Pxvn76MyX2PJRQzWb2Ks436HRnzbE76Gp33j12Grms1py/6VMd36ERpnsMajvkvaRpqcPuvMQuHj9oJFdz65QFR77QGDpB6P+Y8VxfQ1HJKcBImCGt1T98lhirmwdP65m69TWs/5tSFi1Cz9FRYKe5f5NWyov7ot+wk1O+8A9PS78K2OQF3XtF0SxJnNZjhJanjGQPCB6AUNM2JM+v3O2FQdTx4utGWiX7wNYd8t+j1nfy7MR+X2wj29hK+qMp1OMSqsrozY9C2VZL8tBAypAC/QYU2yjtvsjQZk4Ug1hqQhYLKWggrOQeUaQlB8CKj3GGdRjfiZp7mT0uC3N6B+KjtsNL1nnScD4gMOwRqLEYuJgcnmOgfX1uimm3Rd6vvv17svjrxLEc1O5PyYB5El8npEFgxcHCIEluRs9edpMHn88d65R2NyAjWtgC6Naob08V+c9TH/hA3rXnb/hT2M1ZD0ZACPZ5g/u7D7P4kFh3rXOACnIhVyQVM3+KiYqko97FWVuwfShb+/2EefBXM0OQT2NC6Rijn7EOyQOz41QyRggb7IEU0V+3VdE2PEe08bO0Yrq3QK0bcoUDmLM1n0yMiwg007ynwoOv95ulDl3zsDqilcj4HZZBPjKowxVEbBmCw1ICkSsKPXz5PrAhYdQKOk9ADJ0FpRYvCIQF1ZRlXFZOM41sggId07Wne58R/OYNELXz6XFK3JLmcOuQkpupXSX7kuQ5edg71y3zfb9uuU1qJfvBQBWvx76p0rs+AIlGhAYa9itB+Tvhh0Pd22ta+YS4XQwi4oAjxTMc+ocrQhEn2g6zyjFUu0ufdeFGuEGDy+y/3uYjAiOQeiC/n95f3p3dX9FUJqV6uy4FFfuY8VVmrL+uY6tqqoTfrFWIloCKgPmIW6u2Q40r8XHQGJuiBHnF4QNLk1qsJ41BCiEmMAVTR4chkEAEa2L+67u0jGce5dbT0U1YCGVPxoMSkqEgNWFT+dJPGo3BbZt5EutpXelY6A0T5UvU1x43AC+f6k1xROJs4/ALo8uGnxczE4WppcgbiDn99CYceQuSHvTXvQhZwq87+frVef/qq48w7AGfDeI6pEScaLGFJLXPRpp2vT7tfkATk2G/4QUiTAuZ09xarKcrUm71+yoVIfqUcjVkYNYiD4mM8pGXUjijVurunfXxzVLEUDFumdAKOgpCFHXYx5EJAM+glLjsgujaD2zo6pKkQ8iOCMoQtJQ6E2yQx0sxYlnUv/u475nM2284rvZAZdAbLqoFmozF34JYkZnAU9RUfFXkMxBOZrsVg4ubhAfQospVgW1/tO6uQoFM5ZzILKKkuR6sVL+zAVluWO9h13AIYAwCme77qOuq7TBLxxg7NmuMBb5/Chow/ka/B0+Q2ttTjnFmYNbPkJuar4rkZE0k60cslImaTe101bJDsq6kPSEjBQWYs4yf3uYRhPrMyN9aLxH55fUPlbfKzOkYcQPD7MhXuctTjraP027SJ3I1vVFrdGOULXpXUw6ZW+nREUxuNxqnXIksipRXLu+FVVxWg0Yjqd3qVH3xerRkkzEYKkCvWwMGZ5QJbv01Akv5RG2EtEhDgITG1hacuf6gSUiFVDlLTuRtOY6OIEFPYikXSd6aekpit571AnezG/up/8N9KL5+1qqqoa5gP0hX6CEoLHSOoaS2I6miMBvfa9DvngnaQX76mqitlsRjdraZomP+fRHBlwLg1CirndT0RgMP6QWqD6Hc/8Xo1FNSBRiBKxWNToYEjbNk0RrOskodsbyhgjs9kMsTv/EVCZX++jkCMYCWstoS/wdAaRUfocmHxuOg/xq+rg+MUY2djYuNtqARSDNzarJlqCGNRs4wTQOzeCUcXmQri9iAJBekXO+Wd2oJ8poalo0hIAj801BIXCXifkv4oIeWsv+QITh3bnoTAwowuP7PzVfwu9Nv/imN4QwhDiJ3gEqIykdAD9qeVCu8HnMYPCILCjoW4Roeu6lKKozDz8jg7GoDfMLO6GRObh/r73OQ0bGO6TiqBJv3gjxCjzMhARxKW2qbjUDSFgbPpRd8O6yGni3X0b5ZxFBQYgxiRIBMz64gUBwvZV/sM6wt1g/A1eI65qCBG8qZl4Qd2IG4/cyheuv4F/+dd/TQWfXchpCQciqPbzL+yeNWWGmFdAkyCYKjEmp72ukiP3yIc9nIvudx/OO7Cf2gSiVxojiAoa+6rnQmHvoQhiHYF8GbdVHxLDNg1hthD97J0Dkt3sL/27zgEoLBOzY6PZCQAYFO160zoo3C3e56K6XRBd1lN4GYuGf7HYa7Gb4vQFXjubA44CMULTjNk4toFZqWkRfu01r+efP3ULgfQH1nvo/Tn2Dlr/+Mlxnb1xD1tlpROLRU3v+euP44Avv/gwP/1jP0xtany7yaG1MbONE0n7pFDYo3RdR1OlvXDwYZBIDdMO5wzex2T4XZXzBD6r1Kbv3z1/Plu6AbaLBJwdZuntzh3mcrULd8sRAVK71FnRv88ZXrZ7lmloYsxfbtUWPMV37aSDo4JUDccnLd6N+NjHPsGvXfbHeCAYaCNsV4HQG/2tj+kevA9Ax9zgb8UAYuHjnz7CC3/45/nxFz2TR335w1ifeeqqSVe+3eDlFgp3M0LuBAspW2bzlSVqdqp9pJKkVqu+Y7jGqhKYO9qFc4b5lEDRc/+6d64fvwqoa4i24db1KW9+xx8zBTaBjWz823zzJGPXAh0m1QrkdMdOG+GdvA952mSHoc1r5BfWbQqsh7Smm8Bb3vkn3LI+IdoGdc056OgXCncWSmMiEtP8mH0W6ghj0pj3CqiyM4B6MIKpKlxVEQHrdoEDcJIh25IUjmK2vc33DOk2f/z0PyhNiM/K47ugN9sogzBKKtzIx6n9P+PCLT+G3mm33cD8XEkSwUtX9fT7Fd3+tpOkan/L8Tbwuje9mS8cT7vZIOAF1Lrh49wbtmHFhVTDsdDGsxfvF2P/ytxR6tdNXYWXtKYtcP0JeN1v/Q4n2kC3MBOgUNhrWI00tJxfJ4NvQjL+By0cNOkxBxwe51B/8ETf4n2X/tbibkoB7ADJmO40yQk5VW//EkNe/2THxQztUeac6o/uZxsszjg4V4jA+nTGsQ3Pv352fRiQ1KmBqib1dtaAx2ik79TUxQ9elKFIckuX4D3+vneCIILqsBFIhcy5SUkB29D5DiWpnv3r5zY4tjnDYdm3G3YxhcIOYPA84sEX8Zr//iMcuvd9aTtPF+LQ+u7qEa04nvLsfwcHLgSpku4GKV0QYrcLHIBFXVsWjYBs+7J5jUD6cmvr0NkaEaMn/YgdQYjDMQ+SsfOvlhn0z092AFI+Jw73Z9rc96IruwFBMcwLU4BT/iK39szvrAqcoV5Z5SMf/FtackhbyNW4/QcsyVJH5p9hUUXxSzvfPYkC2sIWRzxC+qxLBGx6nasIfoYY6CL8v//8cZ7+TV8P7Trbjj4tFO7hGFVMnHJoLPijN9J2HaPxKpA656btOnZ8AFYbUI/3ES/10FFnTLULHIBzhTNepc2WASVnskzpDZfs3GlD2luMvpp0gezvz0niktNz8mSA3Y/3kWuuuw7IVf1K2vk7l0tz8wvzOVrSr2yYU2V2gRe6k0TtO1izngdprQRSSiwvVtChaNAC133hBuK59mEpFO5kbIyo94zqEWvjFdp2xmQ2Y3V1FeMN67NNIILvcPUagiVEJcSAM7KLHIA+vH3K57d/eOsO8GwLy85m59inJ0/7ltrXUobhAEyMMAgQLVf3L79bMuDDsZw2n7lVVc4s3ZtcUNbfn/697nxO99NOpwOQjhXOdh+82675IsrNNx9JoX8gKXAFaPuBC/P6diWrVCyexIKC40nLdDYe0W4JH5zqV9yfwxDB6y393HFVnftJluQWal/2vCACAAAdaUlEQVQXo2nGR3KODVNSNOXWW2/FxLLzL+xtAoK4JDffTicgyri2hG6GSJ06ZVTANfTXIWMEhwDnwDTAu5I7J+fcG/jbun9Nrz1t4eKZfubCfR/S302h/Z5T6QDckxjEOEj/sMPjuR5DeinnrZGc+T+TBoLMnYJAdiT7LfHWe84caLpb2eb3vGijRVKth57ib0YhubAmr1v+Np2/cypdnf+ck9QDC4W9Si4eV4mI2oVrw1Z7kdE9XgR4Jvpo5G0lytwA7BXOnbLD3cX8c2KQvDNOXbrJOEZdNvxmiwOw0xGRLSoVJx2PWfiXDNoUy8d+8ncVCoW7g3LNPlvOYqd1rlWxF3aW9HFZTBGkjgCDy/+yzBM8/X9h2azu3P3JFw9z0vMynJNBcvNpf/bl4lMo7CwlAlAo7BCpH35597v16/nrTsXO6QgsM39ET/pq8Xmz9HiJ4BcKO0dxAAqFHaQf+igixKioLtSP9q853Rvo4p767r0/1UFu+7wqmmMcxphhaFMJ/xcKO0dxAAqFHULIXSsKxi7shXVe6nfmiQi7ZA+95TAWjzudS/+CgCEQ9Cy7bAqFwl1GcQAKhR3CAPe74BCjxlLXdVKDjFnyOYcBZGs4gLly4m7hpONZkHfspTFUFZUkQBKBtvVMZx2fv+mWIuNTKOwQxQEo3OWcTgdgLyPAlxw6wFd+2cMxxiAxhcXNGdZr9zsACwJVC+JWEUFEUBFihI994gquu+mWu/+AC4UCUByAwt3AXtABuD0YwOKpY5fq57MDYHO//Fa205LaSUcgdSj2glRxy/GE4b5/XUBTRMOkegerXekEKBR2kOIAFAo7iGhE8AgmT2fsmwETvdBNXNhl65kK7u4mUv2CQRcS+bIw3AoWjltNepFYVAUhDq8tFAo7Q3EACoWdRBTN0xvTNMck0TnX0F2+V9n6+M5y0viK7dQO6ecfJOcGkXzOO3/8hcJepjgAhcIOEkQIkqSCFUVFENFBUkcxuVQ+7bTn0tFm4b87x7KUdcziPyZNRWRBBUAMEUXEoCIEIZ13oVDYMYoDUCjsJNpr5qUQuWa9vCXNvayRP7xeFu6B00UM7sr7YYjVUAfQf71wfkuv0S2zKooDUCjsJMUBKBR2EAOImqEIUKJgRJFsVE2+j2Jye2ByCDQbz3nR3d0vBmyzYzJMJtD58SzWAEA6btHk4CCSzvO0468LhcJdzZ52AO6cCuqcx5S4q1qzdoKljO6WtdhuU1gAiQajJosCpV3yshHti+riUiFgr6Aji9GBu/0+twCy9TjmnwSj80LA9DrJRYxmz/+9FAp3FEVQMQRccrYFIP2NeVPjpc6j4bdOAkxf72kHoOf2jhQ91f7FLExrPYnd1sR9R9Glu5NOW4EoMq8S17Q+mh+6Jy3F7UEXw/hpVi79YsXcWnfykKne2Yw7PoBKdPEYF3v+5/+d0/9hyML3FAqF24MiqK3pMMykIVLhMYit6LoOYyqCqcAD1hAjGAMxZ/Ki1+IA3F6Wr119FEBP2vmemt1RxX1HWZJyXfxiwQlSnS/KorN1T/OFbi+RxbHAvXhuNqwm3w8h/7jwul2ALA756bsUoD++odVP+/9YVE7nIRcKhbNBxXDFZ67i3e/7f7hl06NujJoGW9VMp5vUdc3V13yB73/xz3DLeovHYF1N8J5UchyKA3BXEGXxgl4oFAqFwp1LxCDNKh/55DotEJjSMZ8h4gSsg41piwJ1XdP5+QbCUlIAdyplX1MoFAqFuwPFMA1CCyBJe7PNEVVLyiZOu2SXnDX4ENAYEBGMAQ2lD6dQKBQKhXOOKEIrFTNgU2GiKd2v1oKFFqhcqtL1EUJI8tyqAQ3KNqWBhUKhcBciu6R2oVA4x1Ggy3ogHWnQNm5EiMIspOcnXgk6L7gVMzf5xhQHoFAo3B0Uw18o3OnEGInZwJu6GtoAwQwaY8alDoBebdTVFdZAiMUBKBQKhULhnKSqKiIp3x+7DkKA7AjEmB7vC/9MVYEqvusIzIsF9zQxRpzLBXxy20v4+hY3YwwhhOHrEALGnPvLKyJ474F5Dqk/LTnL89u6riKy1BpYKBQKhduOhBZL7jrTPGCrbRnaiBcEWmLX0cuOhzgX9t7TJGO05TFjFuRKzvz9McY0x91anHMYY26XM7FbqesaAGvtcJ4AGs8c1jXGLOsAGEOM8R63RoVCoXB3IkkKaHAA0tU0OwFnub8qDoAIMWYNm2yoRPrJ7GemN2gx9h6XDu9zT9jl9pGM3mirKjHGs2533G73369VPAsHonAPoej+Fwp3Olb7CZzZCVBlLsK1iAFJczgWzf6e/6tMxi0LlGZjdVsNd+qrTMaxD5ffE8L/PYvOjTEG75Wz3bz3aQNEMCynRooDsAcpjkChcKewNCvk9r7HnXUw5zoRhtB2jzkLIxdjRERwzg25bWMM1tp7hIFzzhFjHNbGWksIKbdk7NnpHVprB+fKez98vXW9C4VCoXBb2GrCT2O0lFwUEOnjAHveAfDeU1Xp3yEExJizym33qCohhCFEvsiw+z2H2RqyDyEMRZNn6+CICBpjKjpZSCPck6IkhUKhcHcSJakB9kH/lLY+C7O+EODe81dgVWXfvvHw70XiWWQC9u/fj4gMxr7/dx8ZONdZNP59R8ChQwfSk2eZKvHe0+cMDh48ODgS94QaiUKhUNgZhChCIDkAAfLoXwvZMcg9alu+b143sKcdAMXgqoa1AweHSkprUhWls9svzXzYXTKM9zrvMKO6QTVgRIY0gIgM1fO7GulHz/YfC5MmuuXHhYhzqWK/qipUI+cfTOtV9W/Rv5cuvSWoQcQiGBonWOC8C87H2gqDYuLiiwuFQqFwxxgk/xYe67sCTp5Wu6cdgChCq5YHPuRLEfJkJO9xgA8RzT6SmDwzyTqMrdIaGuHwgZp7HT6Idi1GIPp+0ILDK3QLIYS+ZWPJ4MruWX4VQxRDFMnnHUE8MbYYA13sCBqprPCAi+7DqgGrvdOUDHrvUTpbY6QGDFZcciu6lkM1HD50Pl0QXFRGZnk8cKFQKBTOlnnQ/+Sn0gZ13h7oh8fADCmD3WOBdgCjSuUsX3XJlzEGamAk/WRzwFiqeoRqxLkKox4NHSuNoVblsf/232DVJ+N+zhqyvm+0Vz7o586D0Zjmz0tqbexmU4iBR33Fl0OEUf6OEDsUxRqLYulCJGrEiEFjhyNSAV/xyAdwYN8K3nv2r62wfuJWds1c+0KhUDjH6DdQW6Owi4/14f5FOe6+bmBPOwAWj6zfyJdddIgnPvqBHLTziLRiiFHougBiESImRhrAziJfsgr/7tuehIvndqGf0VPtwlM6oKpqjAqj2mFFWRs1POT+X8K3P+mSwYNUkv/gSVEVnEUqQ9SWcRVZsbDPwfc87xnMNo9QWc8tR2/i0HmH78YzLRQKhcIie9oBMBo42MCoO84Pfe93s3+U0gAGGFcOYw3GWaxEtJtRA2v59iPf80zue6DG4nf0HO4IRudeYh/FSLc+CpDkjSeTCRoi2gW0m+Gnm3znM76NRz5gP7WkMFNlwVoFPIQZVj21gHYgAV78g8/mwoOriJ8yHtWs7d/HkePHdurUC4VCYc+zxx2AiE6Pc7CBym/wyz/7Y3zz4y6mgZTXDzOk28SGjhVgFbhgBS596fN5zCMfjJkexei5HQGAHPjfGgVQATVYU9FUIxpXMW5qJHhWa+HQ2ogf/4Hv5QmPejAXjMF6cF2kEXAK1kcqhYsOw8+95Hk86hEXs2IDtYETJ47RRcU1o11VB1EoFAp7CbfTB7CjSMSKMNs4QdWsca8Da3zf85/Dox51FR/8p4/zmauv44YbjrEyhosvupBLHv5gnvINj2VfDdZPcOaO6jDtLkRTMWCPSmA26zAGtOtofQBb44xhfeMWHnTvC/iJ738BH/7o/+XD/+djfPqz13D9TS3NGB75sAfwpQ+8H9/2xK9nrVJMmNG1HXXlWFs5QBc8ISjunrF0hbNFInl0SaFQ2GH2tgOghmgMo7U1TkxaYjjBvtEaj/2yh/JVj3goSEXbtohR1sYNfuMETQUmTBmPx/h2etZDF841VCCqYKoaEcUKOISqrml9x4HVMcdvvYHKOb7hyx/ME77y4XQe2hjBpHoBCR0VgVrBGgsobRuJ0WOrmroaEf2stALuBaQvNC0UCruFPe0ARDFYKtanHU0zpu08FZ52c519oxWCThk7ZTQaMd04SqWesa2YdYHJxGclu3N3C/v/t3cuMbYkRxn+IrKqTnfPw2L8GI8Bgwc0w8NCgCWMQALECiQWgJAsZMlegATyBgk27GAFGxZskFgCCwQCNiCQ8IKXJRbGMsZGGsn4ja0Zjcdjm5nb3acqM4JFVp1H3+7bPffRp09XfNK5cU91dXVX9cmMPyMjI03WoX9DatRfrNZrX6WQKv3yFNoWEWG5PEEkUfoTnjxoIBe0LCnDEnU40AaxvtZCUEcR8ukp2jSoJlJKHBy0HJ8sESlX3lQoCIIgeLjMWgAAZBRpOrIVkgo2LDlqHc13SKN38uMTFqKQoPR9rWHvdcdA2fMQgE33yHqAZuNyERUobmjbkKcik1rz/oWCl4KgYIXGjQYQW9brCXhRjLpFssm6suIwDCwS4DkWAQZBEOyIWQsAl7MRfBsz4+va+OQbNQFq7brprD13+9u4KD7Kmcn5T7u2OYAo4raOGGycU8atk2vBiYyOm03Y9ORkrFMt9b14LUMhUpMndSxKEQRBEFwvsxYA4qzmnzenoZ11CNx8HBlvbGOqbrcme706/9W7jdUAU62otQiojh0mt11UydJgKK33KEZrNazv1GdUpIoBExvFQwHP4+oJpdCyz9MowRXxqWJEEAQ3hVkLAJgc/3oMOoXE1bWOeNGxhKJunadjWcV9FgLn5WStD53XWU/3WvMEXKBILQI8iNK6MqjVZ8aYVwBjxEDHRDAbH/pYn1pmX49qXnj8rYPgpjB7AaB+1vlXx1bD1jUTHlFwGR2bjU6yOi71tWjYS1xA1rkM4mcD8jpGQKSWBB6fUT1r3DNgdOCFBDJtEmiry692n3JDxiiCoLgqmBKZgEEQBNfP7AXAesS/fXxrdLz1ZooE7P9IRkxw0VUURMYpgOlup0di4xtf7TS1njbpLG8JIKPWU1avI/71tTeFhZCl7iV4C3ZMDoIg2EtmLwA2R/wV28oH0HMcvW8UMrFbsoZdxoTHtDUlomxOfohP0YAavk84yTKIYTTjdECaggXgglBQVwQbn3ODSRpjApDWEwVBEATBNbJTAVCz8OsQcKpDv10UxkaHNG7OI3WzGUNXc/QP43eov8BozoTAdRQH2z/vzF7L+4qsN5MUsZrY52n1DKaqgPXZb6wKoI7clTwm+huFtBIBJrLeHtgN07qroIti6HhOqpUHKXWjJV/XJXgjtmIknyIY27kZjqwExqrmwSrEIUQRoiAI5spuBQDCIHX7nXacH3Zqkph4dUgLSRwfH3P4+BOcONwp0B0+xjBANpDm0brgzYC/bR2d2GMBAGwm9t1rUuO8ryqG6LZYOHve2UV+qyWVo+9NBsjFAqDVRF8ymCEpkRCyjzkFqSWL04rh+ZjWBnR06H3ONG1XZYgbyX01DaEORdJqeWOIgCAI5sgNmQKwcSd6A/fVYjNcGYrx+JNv5rU+81opfGOAT33iP/n0C5/hq197lTvL06gwusdc5nuXyyVd19E0DaUUlsslbdvy9re/nWeeeYZnn32WH3r399D4kq4RTl7/JocHHV3XkYuBpipOzmzatJrOCIIgmCk7FQCC0/qAYDQ+ZuSL1c6ZWkXO2paTrJzoY/zzR/+DP/urD/PNvn6/AwOxunifuexv1zaQcx7LFNWpB/MMX/48ic/zePp3vu9d38JvfehXkBa6xRFZYbk8ZdEd4KspgTqNs8bOmXIKgiCYD7sVAG517nkM0U7OHzEKiknDqXWcSMvv/+Ef8V+ffbU6fAWz2qlnDwGw11wyCu/L9jmaUo0PmSHmSIFPfObr/Opv/gG/99sf4Pl3Po2XJYuDQ5IKOef6jVPOwDpD8ZHcThAEwb6w87Vs6tM2tLX8bh2ZOSbKoIly8Dh/8+F/4+OffZUlcAKcmLLUloEGp+YQxGtPX37vV5M6VFuStkDCslfVZ4KK0gNLajmBP/7Tv+Arr95BuqM6XXByXEWmG47U11i4SN22akAEQRDMjR0LgJoV7qIUrdnhdUc6AU8YHS98/kv8+d/9K0uBUxSnrZl/Ds3BwboufXAryTljpVBKLTHcNA1NUwNXxQ1TJQOvGXz6xZ5/+KePMEjLUOoujptJiNPna6KuPojPz7US7TUIbgw7XwXg0pIBZCBJhgKMosBQPvqJT5Kpc/2khk5b+mGJtJCXr6/Wrwf7x1Vcgcj6VQqUXJP5BNAkFFNkccDQH6MO//gvn+KXf+HneOrwiP7467RJUYEsNRnQHHSKNq1KPAePHLHza08HQbAzdt771bXjDUUShWYM0Y4vEV74n89srffvh2VdzpUzGv3JXjN9+GrU5+JX8brk0+tSESSNx81BW0pfaoEhhRODF7/6Cjlnuq6762eGDwqCIKjsfBngah/6cWves9na//vFV+hayAOr2gBJncHW31/OuW6wJ1zikP1siWbfPFangtAEIljJCPC5L3yR73zqOQ4PND4cQRAEF7BzASCran9OcsZqbbUokLjz1je3fP2lgSZBLjWjuxg0DQxThnjsMLa/PEgyvkA6OqIcH9eNisZrPX50yNHREcPpa1sfcImQfxAEwYqd1wFIngFHPK+XAzoUMZTMt73tLXzupRcpBdpGaZsFx6cnlE3nv8db8s6aceOh+/3rFYdy53WkTXReSw8n4Lln34WXQsmZ1CZsXPmnMu1h6CEarxtXYullENwsdh4BSF5Wof0qBNZLAgXj+5/7bj72yRcpQM7GST5BU4ttVnaLTO5ZIoxTAv2AYxwC73wLPH7YIWK0iwPMSvU7UgWCmK2mHTb3OAiuiRBeQXBj2LEAsLEOfA33C2MewDgmFIyf/LH38rd//xF8WZd6SQODl9qRJGCcFgj2kwfN4VCFhTpNhgXw8z/z03RkLDtJqqyUUVjWT5ausv8fxmZSQRAE+8qNqANQHX6qW8mSNtZrO08uOn7j198PBk8uwDJ1c5euqckAY41YIew+WiZ7ny8xw7NzCPz4D38rP/Ej7+Fo0WBm9LkA68I/yUHGfSfC+QdBMHd2KgBcwCSRpaXQ4t4ySItJFQEA6pl3P/ddfOgDP4vkOuhvG7B+uTWl6GH3z26+uY+XOCwUWuA9734HH3zfL9E1Tn98h8NFS9M0W8v+1tX/6ppCJ1RAEATzZec5ADCu90YpaqttZWGMD4iA9/zUe3+Q57/3Of7kL/+aj/33V8heqwUs4YZ4s7Bv2G6gbG+7fBUrwDNvSnzwfb/Ij/7A8zyWDOlfR5MyLE9xUXTDyU/bDO888BUEQXAD2PFmQNM/YFL3ZZcxoa9xAEOk4DZwIMp3vKnld37t/bx2csrLL77MV15+mddP+i3REOwnNfnzfFvcSKKgghcjtQ1Pv/VtvOOZp3nqySMazyS7g5oxVvxHBBxHvIYKTBR1KAK1mlCM/4MgmDc7jwCsdmOd/nOmY7ZSUFUaL3juUVWODhNve9fTPP/tb8G0xWNEd2tRVUqpaYIpJcyMnDMpJRZdg/V3kPNCClCPb3yYIuM/CIJgzc4FwGWICKq148450/c9KaXVC7cr1ZQP9hR3BMPdcXOalGhSSymF3J+G9AuCILhPbrwAcHfcHRFZOX13rw4gL2m7BSkkwK1FENIYzreSKdlRVZLI+PXzR/9BEATBvbnxAmBy+D7Wed0UAimlHf92waPGrJBSQrSu2zerBaOYhKFGDCAIguB+uPECQESQcbRXxn3h3esoUFWjENAtR6giYIoCNSmhqrg7Zh6xn31DjLqYNwiCXXPjBUDOeeXsm6a5KxogpMjmvsU0TbMl/NyMPCYFOkCKCMBeINN+zkEQ3BRuvACYHEDOeSsh0MwwM1qts8ACYW+hPTk5QVTryD8l3IwhZ3ScCsqRAhAEQXBf3HgBYGZb0wBncwGmELD6utBL2NtjU9PVuX+HXKwW8kkNOOH8gyAIHoBbEz+daruHnZcNgiAI7o8bHwG4jKjnNm9iGeCe4Mq5NaCDINgZtyYCEATBHuDR5QTBTWHvIwASg4p5EwGgIAiC+yLkeBAEQRDMkL2PAEQIIAiCIAjeOBEBCIIgCIIZEgIgCIIgCGZICIAgCIIgmCEhAIIgCIJghoQACIIgCIIZEgIgCIIgCGZICIAgCK4PscvPCYLgWggBEATBoyccfxDcOEIABEEQBMEMCQEQBEEQBDMkBEAQBEEQzJAQAEEQPHpiG+AguHFEqwyC4PoIIRAEN4ZojUEQBEEwQ0IABEEQBMEMCQEQBEEQBDOk2XrnxoWawNfGgAz0umDQbv3FIJgRWVoGOaSXxV0t4K6yN759ZGpHRRSTRFbAHFFBRC6+ltzdQqdWe932LDb9ggCid53jBq4CJIpCEbn7OQG2efScrsWofc9SD1E37v5JQXD7GXRBry0FKNNBcfAL/LHD2Z6pWZ9qG+etm6Co4makVik5o6oUM2TR8MKXvwoYnQ0P546CYI/I0nJHjnldHqMfj6mCmSGqmE2taLNtsfX/UxKfe+llnnjiCXLOeDHatkVE6PseVcW39QBypn27jO3+mu1Zzvs9zYyu63B3hmFAktI0Da/93x1O0fXz8OlJ2V3Hpj5oepQF+MbQ8fEvvMKRHdN49D/B/Oi15YUvfw1ZNJRl9c1mhdQ0lJy3+qDz/XyV61cavi8WC5bLJQApJUopHDRCyk7auFDYsHOxGegFBoe2bVHVVRtpmoacM/dCgBZIQJOEXHwtvLk9cbXNe1GgaSDn6sgHLr9PEcHHUc3h4SHL5RIz47BVdLDof8LO0magNMJp9pVPhm1ffRmX9jPThTcbYdu2lFJqZIDaqG/CAwkb9jrtFHo724BUFVW9kgBYJPByfiOcwu37zEX3IIAkWF5w75tM/c06orK+RvQ/Yedqp/5HVEkpMQw1Ejb56k1RcBHT9S5EN8IIi8WCvu9xd1TrvNv0tZvwQMKGvW57cHDAcrlciePNRrcpms9D2J5LF0AEbPwWFS6cztsXzrufzVsyLumAVtfZfpYpJVJK9H2dfNn15yBs2F3YTT8sInRdtxr969Y05PlM17knm+HM7YaoIGMXtquJyLBhd2oNsFW7EKlJfJc1vM0GuPq/sPcO/zIEwTe6nDdyu03T1Mhj9D9hw271P8CWb77KFCScXQVwASml1cWm0IKqgiSGYmx3Y0EwFxxFSLoOv03RsauobwBESCkhIjUJkG0RcXZFwL4xPQ93r52TQNO0uHuNlFxB8UzPY7NDa9sWc6E4RP8TzBOnTQ14nR7bDPdv+ux7IVxRhE+d2rYChyglEMybtfqe2sdE27YrYXAxF7Sf2xQOuOe9XBKiPGcaZTsSEP1PMGfW7UfGwYSZvaEI5D17makT22yIm4o+tHcwZ9I5obbL5v63zk3jEjdXEANStdP722ZNVu8lgZerpzmezTtqxuVOQTBXHO6adpz6n6sMQATwzXBl13WrxJrLwphC6O9g3lw1iS14+ET/E8ydy/qfy3y7dl23paj7vqdt23rxK4YRgiAIgiC4WUw+vG1b+r6naZrV8a7ragRgsVgwDENVBKqICKWUK68jDIK58qCj/7m3n3h+QXD/XNZ+Jh+eUsLdVz6+bVuWyyUJ+N3pC1MCwTR/edV5zNoKtS5LCBt2LvYhBP/DgT0Eov8JO0d7hf5n05dPK/gmH+/uNJvLlialMIUHpqjAvdGwYWdsH2ya7MElxNzZ9d8/bNhd2nv3P9Nof9pXpJSyncRvZq5jKcGrVjA78yOueF4Q3EYiT2a3RP8TzJkrLvfb8OmTrzczxMejIrK1icDV1jAHQfBgzN2BhYAKgkfJpi+ffPwkBsQr9c24nnBaInCVSEDMYQZz5sFD+CEAHoTof4I5c1n/M/nwyaevKnKOX/t/wCkGgqCfDNYAAAAASUVORK5CYII=;" vertex="1" parent="aiQ5Y6wMSga_zLsW2kGR-9">
          <mxGeometry x="12.637189669874488" width="44.72242597093457" height="44.72242597093457" as="geometry" />
        </mxCell>
        <mxCell id="aiQ5Y6wMSga_zLsW2kGR-11" value="&lt;b&gt;CLOSED&lt;/b&gt;" style="text;html=1;strokeColor=#82b366;fillColor=#d5e8d4;align=center;verticalAlign=middle;whiteSpace=wrap;rounded=0;" vertex="1" parent="1">
          <mxGeometry x="396" y="53" width="69" height="30" as="geometry" />
        </mxCell>
        <mxCell id="aiQ5Y6wMSga_zLsW2kGR-12" value="&lt;b&gt;LISTEN&lt;/b&gt;" style="text;html=1;strokeColor=#b85450;fillColor=#f8cecc;align=center;verticalAlign=middle;whiteSpace=wrap;rounded=0;" vertex="1" parent="1">
          <mxGeometry x="694" y="53" width="68" height="30" as="geometry" />
        </mxCell>
        <mxCell id="aiQ5Y6wMSga_zLsW2kGR-13" value="" style="endArrow=classic;html=1;rounded=0;strokeWidth=4;" edge="1" parent="1">
          <mxGeometry width="50" height="50" relative="1" as="geometry">
            <mxPoint x="392" y="163" as="sourcePoint" />
            <mxPoint x="584.5" y="163.18" as="targetPoint" />
          </mxGeometry>
        </mxCell>
        <mxCell id="aiQ5Y6wMSga_zLsW2kGR-26" style="edgeStyle=orthogonalEdgeStyle;rounded=0;orthogonalLoop=1;jettySize=auto;html=1;exitX=0.75;exitY=0;exitDx=0;exitDy=0;entryX=0.5;entryY=0;entryDx=0;entryDy=0;strokeColor=#0000FF;" edge="1" parent="1" source="aiQ5Y6wMSga_zLsW2kGR-14" target="aiQ5Y6wMSga_zLsW2kGR-20">
          <mxGeometry relative="1" as="geometry">
            <Array as="points">
              <mxPoint x="423" y="130" />
              <mxPoint x="423" y="119" />
              <mxPoint x="648" y="119" />
              <mxPoint x="648" y="217" />
            </Array>
          </mxGeometry>
        </mxCell>
        <mxCell id="aiQ5Y6wMSga_zLsW2kGR-14" value="SEQ=100" style="text;html=1;strokeColor=#82b366;fillColor=#d5e8d4;align=center;verticalAlign=middle;whiteSpace=wrap;rounded=0;" vertex="1" parent="1">
          <mxGeometry x="392.5" y="130" width="60" height="30" as="geometry" />
        </mxCell>
        <mxCell id="aiQ5Y6wMSga_zLsW2kGR-15" value="CTL*=SYN" style="text;html=1;strokeColor=#82b366;fillColor=#d5e8d4;align=center;verticalAlign=middle;whiteSpace=wrap;rounded=0;" vertex="1" parent="1">
          <mxGeometry x="452.5" y="130" width="66.5" height="30" as="geometry" />
        </mxCell>
        <mxCell id="aiQ5Y6wMSga_zLsW2kGR-16" value="CTL= Control flag&amp;nbsp;" style="text;html=1;strokeColor=none;fillColor=none;align=center;verticalAlign=middle;whiteSpace=wrap;rounded=0;" vertex="1" parent="1">
          <mxGeometry x="238" y="542" width="113" height="30" as="geometry" />
        </mxCell>
        <mxCell id="aiQ5Y6wMSga_zLsW2kGR-17" value="&amp;lt;SEC=100&amp;gt;&amp;lt;CTL=SYN&amp;gt;" style="text;html=1;strokeColor=#82b366;fillColor=#d5e8d4;align=center;verticalAlign=middle;whiteSpace=wrap;rounded=0;" vertex="1" parent="1">
          <mxGeometry x="392.5" y="165" width="139.5" height="16" as="geometry" />
        </mxCell>
        <mxCell id="aiQ5Y6wMSga_zLsW2kGR-18" value="" style="endArrow=classic;html=1;rounded=0;strokeWidth=4;" edge="1" parent="1">
          <mxGeometry width="50" height="50" relative="1" as="geometry">
            <mxPoint x="767" y="239" as="sourcePoint" />
            <mxPoint x="501" y="239" as="targetPoint" />
          </mxGeometry>
        </mxCell>
        <mxCell id="aiQ5Y6wMSga_zLsW2kGR-46" style="edgeStyle=orthogonalEdgeStyle;rounded=0;orthogonalLoop=1;jettySize=auto;html=1;exitX=0.5;exitY=0;exitDx=0;exitDy=0;strokeColor=#0000FF;" edge="1" parent="1" source="aiQ5Y6wMSga_zLsW2kGR-19" target="aiQ5Y6wMSga_zLsW2kGR-35">
          <mxGeometry relative="1" as="geometry">
            <mxPoint x="488" y="257" as="targetPoint" />
            <Array as="points">
              <mxPoint x="588" y="197" />
              <mxPoint x="492" y="197" />
            </Array>
          </mxGeometry>
        </mxCell>
        <mxCell id="aiQ5Y6wMSga_zLsW2kGR-19" value="SEQ=300" style="text;html=1;strokeColor=#b85450;fillColor=#f8cecc;align=center;verticalAlign=middle;whiteSpace=wrap;rounded=0;" vertex="1" parent="1">
          <mxGeometry x="557.5" y="217" width="60" height="19.5" as="geometry" />
        </mxCell>
        <mxCell id="aiQ5Y6wMSga_zLsW2kGR-20" value="ACK=101" style="text;html=1;strokeColor=#b85450;fillColor=#f8cecc;align=center;verticalAlign=middle;whiteSpace=wrap;rounded=0;" vertex="1" parent="1">
          <mxGeometry x="617.5" y="217" width="60" height="19.5" as="geometry" />
        </mxCell>
        <mxCell id="aiQ5Y6wMSga_zLsW2kGR-21" value="CTL=SYN,ACK" style="text;html=1;strokeColor=#b85450;fillColor=#f8cecc;align=center;verticalAlign=middle;whiteSpace=wrap;rounded=0;" vertex="1" parent="1">
          <mxGeometry x="677.5" y="217" width="87" height="19.5" as="geometry" />
        </mxCell>
        <mxCell id="aiQ5Y6wMSga_zLsW2kGR-23" value="&amp;lt;SEC=300&amp;gt;&amp;lt;ACK=101&amp;gt;&amp;lt;CTL=SYN,ACK&amp;gt;" style="text;html=1;strokeColor=#b85450;fillColor=#f8cecc;align=center;verticalAlign=middle;whiteSpace=wrap;rounded=0;" vertex="1" parent="1">
          <mxGeometry x="525.5" y="241" width="239" height="21" as="geometry" />
        </mxCell>
        <mxCell id="aiQ5Y6wMSga_zLsW2kGR-24" value="SYN-Received" style="text;html=1;strokeColor=#b85450;fillColor=#f8cecc;align=center;verticalAlign=middle;whiteSpace=wrap;rounded=0;" vertex="1" parent="1">
          <mxGeometry x="679" y="153" width="83" height="15.5" as="geometry" />
        </mxCell>
        <mxCell id="aiQ5Y6wMSga_zLsW2kGR-30" value="ESTABLISHED" style="text;html=1;strokeColor=#82b366;fillColor=#d5e8d4;align=center;verticalAlign=middle;whiteSpace=wrap;rounded=0;" vertex="1" parent="1">
          <mxGeometry x="393" y="232" width="87" height="20.75" as="geometry" />
        </mxCell>
        <mxCell id="aiQ5Y6wMSga_zLsW2kGR-31" value="" style="group" vertex="1" connectable="0" parent="1">
          <mxGeometry x="277" y="62.5" width="91.34000000000003" height="123.5" as="geometry" />
        </mxCell>
        <mxCell id="aiQ5Y6wMSga_zLsW2kGR-1" value="" style="sketch=0;outlineConnect=0;fontColor=#232F3E;gradientColor=none;fillColor=#232F3D;strokeColor=none;dashed=0;verticalLabelPosition=bottom;verticalAlign=top;align=center;html=1;fontSize=12;fontStyle=0;aspect=fixed;pointerEvents=1;shape=mxgraph.aws4.client;" vertex="1" parent="aiQ5Y6wMSga_zLsW2kGR-31">
          <mxGeometry width="91.34" height="89" as="geometry" />
        </mxCell>
        <mxCell id="aiQ5Y6wMSga_zLsW2kGR-3" value="&lt;b&gt;&lt;font style=&quot;font-size: 15px;&quot;&gt;Client&lt;/font&gt;&lt;/b&gt;" style="text;html=1;strokeColor=none;fillColor=none;align=center;verticalAlign=middle;whiteSpace=wrap;rounded=0;" vertex="1" parent="aiQ5Y6wMSga_zLsW2kGR-31">
          <mxGeometry x="15.669999999999959" y="93.5" width="60" height="30" as="geometry" />
        </mxCell>
        <mxCell id="aiQ5Y6wMSga_zLsW2kGR-32" value="" style="group" vertex="1" connectable="0" parent="1">
          <mxGeometry x="779" y="52" width="100" height="140" as="geometry" />
        </mxCell>
        <mxCell id="aiQ5Y6wMSga_zLsW2kGR-2" value="" style="shape=image;verticalLabelPosition=bottom;labelBackgroundColor=default;verticalAlign=top;aspect=fixed;imageAspect=0;image=data:image/png,iVBORw0KGgoAAAANSUhEUgAAAgAAAAIACAYAAAD0eNT6AAAgAElEQVR4nOzdTY8k2Z7n9e//HHOPiMzKqrp1H/revs20GmYxNDCIxSyQZoXEBhYg8RqYDSBGQpqhJQRiJDQLVryBlhDiFcCC3YAQG4TUi6aFRHdfenpmuE33vVVZmVmZ6W52/n8W55i5uUdkVYZ7PHnZ71OKsgx3D3czjzA/v/No9vz3fj8QkcW5LO/59R/9ARdl89i7IiKPID32DoiIiMjDUwAQERFZIAUAERGRBVIAEBERWSAFABERkQVSABAREVkgBQAREZEFUgAQERFZIAUAERGRBVIAEBERWSAFABERkQVSABAREVkgBQAREZEFUgAQERFZIAUAERGRBVIAEBERWSAFABERkQVSABAREVkgBQAREZEFUgAQERFZIAUAERGRBVIAEBERWSAFABERkQVSABAREVkgBQAREZEFUgAQERFZIAUAERGRBVIAEBERWSAFABERkQVSABAREVkgBQAREZEFUgAQERFZIAUAERGRBVIAEBERWSAFABERkQVSABAREVkgBQAREZEFUgAQERFZIAUAERGRBVIAEBERWSAFABERkQVSABAREVkgBQAREZEFUgAQERFZIAUAERGRBVIAEBERWaDusXfgGG4OkSh5wFNPSf6gr29Rc1N2oytrUtxljhqPJbXXgrDZ3WEYhcyWLjas4z3GcNLrpelfu9cdb9/fm7o/xRKFC/p0Qc8Vbmf5ZySyE2k6zwwnh5PC6x88TCeht8ekeIR9lCfFDYJu+ps4R4/+yW1Ri5iwWsQcFjgJw91JCUo4kQyn0PtA+gSG7iWsNifswMErzktbCzCDKPX+lGFwggx5jb8cgC9YD5dHv7ybk2IMFb4LM5FIQLbE4D2ROyLAB+fFZca+eckX61d80v85F/Hq6NenvT4Eboa3P4lET8IZHLquo/QbsiXWlnm1NfLnv80/eXMBz36HDS+Of32RR2Qpsd0OdF2HpUzfb8k+8MwKKwacUh8XicAo7XMqj+EgbD+gy2IUS3B5ycs333B1dUVEYGaUUkgpEfH0U+KjB4DbMgvCjERQ1oW/8e/8Lb65fH3UcwWABQ6k6Szer81HCiIcc+hyJnojRSJHIv4KfvE//T+sT6mAX+OE7SoepRSg/mGFUbc+8Ollx+/+9JJ//9/81/k0/l+IVMPMLbf1dXYhrJAByPRYOE6Qc8aHQpcza8u82XZ8lX7K//qLgf/+f3vNJisAyHkKd1arjBcYSs/V1RUXtuK/+Lv/AT9+cUnPQCIwzwQdfapBfRUO+Kz9TJZmSB3/5X/93/CurwXAWPBD+5xWALgf45s8XPa8+2LD15+8Oep53OpJXAvcBKSpOd/HloEU9RfpwTp3+GCkUhsF8rsEXQ8nNEDwEd0HZkZxh5QwM/p+Q0k9P/l04HdW/xc/KX8EU4P9bbYHu0KiWAsA0WPje2NGoZAdOjo26+d8yY/5P98OXMZv8oqfnfAGiDye+lESWDLCYbt5xzevvuSLzz6jsy2X6yvAyZ5xEkOqXQWdez0/FAAWa5s6ri4vagXJfSrwzWplcmwReMrOLgBEBBHtTc7wZvUNr9bHtQAA1/r49gpGc8AAhwjeWkfKhkXCesM6g3Sn1f99YaRkYLAtBSNYdx30sN1uoX/Ni/hLvoh/fFwLwMHx7gUAesAJD5xENgOC2DhX60/pLuAHXSLzxf0dv8i9cnCn3xZWq8S6yxTv+eKLH5ATPFtf0MeGFJAj1QI/IHByRAsAT7+WJ/cjR8LdrxX+tYwKBYC7tntj2w0GYRlaoXV7YwE/bhLsDX2z9lULzaAWkil1kPyOf7k2e/1phyilsFpnLAoRQcqJvMqMQwUsoo1GsTZe4RZbICyAtMtBaUyv9XHhicELuVth3YoYerwkhmJsB334yflKATkl8kWCgGEY6LfvGNaJt6++5gc//JQgaheAFRK7cUqdFSy8nj93OghYzkWxwIeCey0LDmv+T73whzMIADf1o0zJ6uQ+lpvGuc9vT9SRAjUIGG1gx97r3u/JX/+4OnLO9MNA8YEUQUqtKyRmX3C77cEYAJsFAQMISF2Hb51SCl3qSDmTbXWvxyzyUDabDZ9cPeP9tpDM+PTTT+m/+YqL1Zqh7wkbcCB77e/31v0YMWBRxyNFO2/GsTvaLmQbdVz4Yb//WGaNXQNP2ZMPAHNmdtDkZnc2HWd8nsMeAbfA2n+J+kvPQGsO4PQWQGvP05rmSXvPmVJtZoo2ENDdKd4TOBallt3ensOO2O5NIQzS1CBSuwDIRrLAveBbSG6QC4mgO7rlReRpWK1WDAHb7UDOma41515eXhKxpesyFpAxwhJtEgCdJ2qnmOFWPz+0XdZ2yHkq/EfnUOufe/IBYN63YlhrWpk/oNSC8PhXaP+PmurG0jcgzKE4llvCa0N+bBYKdtMI70fOmVIGhih0qxWrtCKXjlRqa0RKbXriUYKptSMAg2TGXhfIdkNercmkFjSCoFC8x+8ofIk8BrdECuiHgfV6TV51vH//lstuTV8Gnq0z4QMQRCSCsfvR23nQTpvQdpFbj2kMwGiqsEVMXQNP2ZMPAPPpFBEBe++n11H6R7/H88I7MBub/Nvr4ZDBKRiJIbZ0acVQejrLOPf5yx2bGuvUkq69D8OwxWKg7lXBaxPAka/hQJ1mWAXjvGZrzxupLjwUXgc/khK0KYnxxP+4Rb6LG2CZFB3bwUmrNdFvWqtbnj5vwqitdEG9bbZIkKYCLtO4ANC8738s/M9lDMCZ/+XOB80d+/O7f++KUWuF++Hzz0fOP+xb96E5pW5OmLcC+XbbKsE42DFmx7XLQcB+7vLxw/BeA5DIw5lWc2srAsZ0jqepP3C+4lsNBONnhCzSfOzVmXryLQDfxTyT4rhBaW67WQApZif8uAzu2LwfiWQJDwfr6okfY7P7qX8AY5XiQ6y+3ge6GmoxPDbh33I7PkOM3QD12YxcazhjN4d3Y1WJulZCh0W+4yWQRR7eVNC302zemjgt+2vMurt2Y3TCavvbuIqpLMv3YQXIsw8AYfvJ/HZ2J67brObLbEAeDjY2sqc64pfA7Q7rvxYc24zvtF0eA8KttgmbrwdgbTt/D8b7x+YsT7gZwbwlQOScOW1oL/DtH+zjZ42H6v5y/s47ABi4FTjpYjhjtB8LxrT/fWsLDwJSUNpDgrHv58RBgHuL8tzczL9v11Ix1ljKCTWQOqhxfPlxrXOnaw0TTjve2dvjCYa8W35A5FzZdP6eOpZG5Px8T0JsnLgd69FjTdxvuL8+Zm/9vDubAfARz3NDTdtmtx2u6/cx27EJf3o3xpYI89mx7Y599/08qOjDT86VT1/j9N+6Nsb49z9uPyaYy/L4HZYBj+O8WwCiLseYqCPUw/zWW29T4dI03HfeLTCe/IlMwqMFgIAcEJ7oH/SAr4eA7InOa5NEMm613fVhjAsBtdaAcOoVEL2+LxEY0Qa9BJ0PdFZIkTQMUM5aat15NQTsF/67v/2xM3AWiq1OBcTudy6QPF3fh9/72bcA7C6le8z2+htgs68Us2CA1cdH7Te3uLtFiL7dh0fbp3FW5CkNIAf/tvZ17THt6me016zvxbHHJPJ0pIAUY6E/Owf2+PTYm7Yi5+i8WwCAkpxyB80w4yC/RJpqBDvWRvu2WfM2qy0/EGsD7+6cG/MBUPXyaG1sw/SCmWmaYGSIjhSZ70F+lAWrAbqexEZqlYldoV5bCW9aZGw+Tmh/5U6Rc3LeAeDkAvj6met7YcKvPTKszgqIadT8fav7UBdB2n9Bt3F/jgxA0Y5hXN5qfmGkOsqxNXOO3zNNiz5+5oXIU3RQqJPaOT/+8dfb3HadAW2OkCzZmc+COu8AMLmLCP6hqXgx+5qxG267d+PHzu77Yo6n4z6GLMapgFCvdpgobSBgpo4BcAxSvepZ7f6AIQ0MqVDSef/xy7KNSwFXaVeoH4Tb75qkq5kwy/R9aPg57wAw/QaOPQPnv8L5gkBc6wawVhNIrdzPAXFn6e8jnme2aNFdqVe18qlL43rAmEs4ad5Z8L04AWTZvK19MY6lcasdgTHV9tMUDcaCfnehMJ0Dy3b+FaDzDgDMRsEfYZ7cpyl14wDBcSEgq2s7Z0u4JzIdeNQ+cOf0JqC9n/+YAt5nX20WxJHHv78ftcW/fhTm1jpgdYYFHdEWHbCoKwFmrQQo3wupTe41Yne5r71H1FAAu+Wv9xv/43tQEMgynX0AgLEme/tt5bPnaPPiD1fNYwwLpywW8h0HMF0O+LY/O65Xzn5f/cds99QFiWz6cBsHN9V9m96vcdolbbCUQoCcses1+LHvvw52GYfJQNtafC+mf4nA2QcAb7MAysFZeovtfNEfK+yn/3E4cKkThPKu7Iyw2g9w8gyE7/o4uXFO0mRcjc+4/bY9w/6rjeMAW1A4HAs4vSYaCCjfA9P1MQ7nv7a796YK+97PpWi3nPliMLJc5119s8NR+7flHDap7w/6O6zxe10UuF2B72k4PIbbfrFb9ezbbhtDiHmtI82+FzlX05/xrEXQxnPfxoC/GwaYoo2GCertNv+M0HZx2zP//HvyLQAR0b52t03XWY6EjdXQY5rA7aC/77CibQm8QKpvk5HxEnRp3V73PocAzbofWvXbzEiWMc+7sQpRIMqRiwH57N/jG9PWAGAAHC9ByoalDCVgGCD3JCukM8+PIhFBKVvW6xWJxGb7jsvOSBasc2IoY69/Wwdw6grcnUi7AbSh7YK248os80u1p5Rw9+l2e8jFYo7w5APAd72ByTqM7sguAB9/hbVXu40Arve0+1Nq1/+rQ32CTJ4mxN9nAKjcnW6VyAmKO9t+Cwxt3f5ESh2Wan+9tUzysdv9q/zUAJCma6A7WKLLiSgF90JuCwKlBJ2lJ//HLfLtnFU21vmC7fY9EcHl1SXDu1eklBj6fmrpi4Cw0mb+BIUg4bOZQEclcG3PeBsRpJRIbTq0u+Pue7ePYeCpOqMAcHNhW9/wY9/kWeHXOr/H635Pg/7Mavb3wM3AISwR7t/WNX8LcVCr8NZCUSfczdPl+IeVbUWKjJEZHNzTUYMg9wdDtuOaTYc0HLoVHtQWgG4F20LQUcIY+ptWSRM5H5vNhquLS7quq2HbEp4Sfd9jq1UN1wBmpKj3gZPC6yyY+1qhU548S3nv8xm49v1T9+QDAIxNKTfcYUZKqd03G73+0VtoVeF6gRwM7HDIT9RCMUVdKLhLdJYhQ+T7rwHnnHF3BncsdXQ5k20geqOUwFpNvLZgxBHb+cz+OgUQaNMgDe8LgZFz6y4pBY9CpHaJZJEztl6vGbxgJCKC169f8+nlir7vyd0Vm9IDQfZ6XpR6WmBe2w8jTAsBLZS7U0rB3etS7a2CNlZaSylPvpX0yQeADyWq8Y0NHxivXHd8nw6zpjyfLfgRrZm/tgCQDNwpBjFYvTDA3R1p2xeffW/knBlKIcJqi30EfT9QvDUzRdQ5+2ON/bbb+Xs679OP+l6k1gWCF2pzQ2G1MtYdrLuMnVniFTk0DANdXpNXF1iXMRu4/OQF74dCyh21v7fDLRFWKwlhjuFoDYDlstSR8oqU0jRWDWZlk8YA3L3xDXV3GIKrcsWz4ZMjm8BbM/7UBZBqM984PsAgYlfKZ0/QG11kogQxwCZe3+PBBsMw1LEJKWGW8AIWQdd1dBef8sY2fG0/O3IMxE497oS3P4mOLVjBcgfJ8KFgFnSrFX1+wZf+Q772LYNd3MuhizwEB1YXVwx94EMhZ/jq5ddY6tiWd6xSojb3jasDAmF4QLTFgzQddpkG8rW+/nkIeOqFP5xRABibuT2ciBoArO948c1nhKejOgDc2tK+sy4BmzXp1VG/Md3fWcK3dRhgF5nSF74uL088MG+17ZtrEqUUulX7I4sgWWK1uiAG41ffJP6/1e/yPj8/bR9oAYBEsQwEq9hiBENxUu4oviVbYt2teTWs+NJ+xKvPBt6ndye/tsjjSJQygBmD17E3lxeXfPKT3+DNu3f8+MUlbkOrH4znR/0EMUMtAAvnJN6931BK2Wv6P2wJeMrs+e/9/qO24VobwBc2H32/Kw7HQWopQQnHDZzC4JA+N/pnX8Nqc8IeHA4gPDyhC9MABOugH8Ay5DX8eku3+QEX/eXxr94WFKmrENaFjQCIru7J4HTrTB8wDIVVWnGZC8PLP+e3v9jyefkFV/HlCYMAd8cbBt7GAOTopw+4ruvYbN6RU6LLa970Cfv0t/izl2tedb/D+/T50ccvj+eyvOfXf/QHXJRTzp/zZhnCjVKM3HX0w4Y0bPnpi+esreCUdongOgZmaKdLilp5UO1/uQbLvC7ByzfvuLq6mgp+d5+6BZ66R28BCNsvcA+L37E2XlotOdWucdaWKG8G7N0zIl2OXebHbT/k8OSePdYikeM53bD+yCO9WZqWH54d33wXcmLwOjZ/lev0vE1x8ouf8M+2G/6Kq1ZYH/8W7B+etf/PdmQ7+4EBwjL9mzVDd8HWnp10/CKPqfbwBdmM8IEuGba+4Mv3W1L4VAOZKiqzn73vlUDkaXMbCBIXFxd70/3GAYHn4NEDwDHGQjOVjlU5y0P4FvsR6NoIY6srEgxcMtgl7/ns4XZN5PvKfC8MFxub+8f7H3yPRO6dOrBEREQWSAFARERkgRQAREREFkgBQEREZIEUAERERBZIAUBERGSBFABEREQWSAFARERkgRQAREREFkgBQEREZIEUAERERBZIAUBERGSBFABEREQWSAFARERkgRQAREREFkgBQEREZIEUAERERBZIAUBERGSBFABEREQWSAFARERkgRQAREREFkgBQEREZIEUAERERBZIAUBERGSBFABEREQWSAFARERkgRQAREREFkgBQEREZIEUAERERBZIAUBERGSBFABEREQWSAFARERkgRQAREREFkgBQEREZIEUAERERBZIAUBERGSBFABEREQWSAFARERkgRQAREREFkgBQEREZIEUAERERBZIAUBERGSBFABEREQWSAFARERkgRQAREREFqh7PrzDqUngtts5b9vvvD0MN3BLuEEKx+7wgETk41yUnnXpWXv/2LsiskgxK/2MePDX737avyYMLLj1tqpFfFgt4i12j6n3FrqugwHcHbNMfvacX775ir4MfPkXf0F6+OMWWbwL79n+0z9lKAoAIg/NDT7/yU8og/PZpy8o/Qa8kM3ouo5hGCDS9FiANFWpffbd8Q35xrOf1RAScPutz56p7USZPXvy3WM9QUr1SHKCTz6Bf/l3Wa8up4MUkYezjp43v/hjsm8fe1dEFicMfDvAr/+qlp/DppWXrZB1B8v1wVNDQStzo20tcUoA6Ni+PKLgb9uJ7wKAp9ltwHoF/aYFgFUNCDmBvefnVx1fbgYGWx19ACJynIiAiLoVkTtn9uEO7hzBJ+sVr4YNFIcorY99mJWv6WDrB9vTKs8d5d1JTzAZj9NnO2QO79vzO1jZ0HWX9O6w7Ym3X7PqPsOTWgBEHlqKBGbf+iElIsf79gDglPff1Jq/A5Tafe4DBuSuYxjG7rn7CgBHNf3Pttf4/rcGZMjF8OJ49GAGBhcXK14PqoGIPAaddyL3y90/fF842XvAa6u4F4jaI58AhoHMWKL6B4rcDz//x+iAXXPDsdtZl8B8BwMgGZRo/Rq1lYNURwlGa37UB5HII3CddyKPqeu6VvgPUxlpVnvUS6n/rmw3S2BvEP6Jr28tAxynzQCoJf31u8NhADC8DfRLtqpN/gHhCTMjqQlS5MGZmboARO7Rt51bRtC71WI0EqRg/M+TtfE5u0fv0oBPs+xOnTl4SunPuCrAfEzgPAYUUr2hOOvVmqHvKVHagECI4pip/1/k0agFTuRRRFgdzG+5Fu4erbwcYIhW4I8lfTpocb+jMQCpVtFPVloQmOedaT8Nhv4tRmqzHHogtUUDTuvDEBEROUcZa9Pko24jdgPp91rWZ9Xsa3n9hGmApxa/48qA0PZ/dl/MEkENN05Y68AwCPNHWPtIRETkcdl8Tn+r0de+/ZtK5dTKSmdsdd85vhTvTl2Dp4xDE9selfm+pN3tMX9sW7ugXFtPQEREZBkSBax9hc9uH/k0C8D2fm53/ylOHAMwc1NB/sGpgvaB20VERJbBrdbogV2ZOCtL/fCmWYv69QX5bq/bW7jnCIbXEf0tk9hswYIIdqkmarXfIhFkKInsWUFAREQWJ6x1kyf2u/dTay2fm4cDux4IjpWuLzX48du67/W/2guQSEButxvUgj/S1Etg42jGNo9B5b+IiCxSKx/3BvLdVPiPA+xuqvXb8dtuHFRQHbv9EL+hWaNNC7A0rWagqwGKPLy7WkxERG6vXjk3g+fZolzRVgPcTfOL+UC9OCx7Z9MDj9imuyr8a0BpCwPthQoOHqdPHRERWbqDVvUwLPZb1seW9r31AKBNqU8ffq6P3J40CDCYFfPT4ASfXiLm+723olGbHhBWL4mofgCRBxc670QeTZgT41o4ycHrKoAWN1We5xPuP9TyfvtK/J0sw3dTnf7jJydoJUAREVmocTE8G1vQb3L3hT+o9BUREVkkBQAREZEFUgAQERFZIAUAERGRBVIAEBERWSAFABERkQVSABAREVkgBQAREZEFUgAQERFZIAUAERGRBVIAEBERWSAFABERkQVSABAREVkgBQAREZEFUgAQERFZIAUAERGRBVIAEBERWSAFABERkQVSABAREVkgBQAREZEFUgAQERFZIAUAERGRBVIAEBERWSAFABERkQVSABAREVkgBQAREZEFUgAQERFZIAUAERGRBVIAEBERWaB7CwDTE0f7+uCL+X3tgoiIyNlxdiVj3OPrdKc+weHOJRLWdt2AmBX+BhhBhNdb7D4PTURE5GmyaEXg/Ou2z3HiPtxdC0Ck+jU9bdp7cpvu2d/lUw9ARETkfKWD7bdlgjTdfxe6UzOAMe7Mtz9PANaCAZEhrH4pAYiIyMKMRSDj140PGu9LHHaXR9S7TinB77wLoDXuT/8GwByP2W6O/QE3/LyIiMgSWNiuEJwKe/YLxnkIGLvPZ2HglFF0HemuBuHV5wlPFHyXasaC3r0eSCqQAlKipFACEBGRxbGoRSHO1N5v1O1hJXocS7frSm8/dmIL+t3PArC2y/OCfQoD4+EcbkVERJbF9qr/joXPG8hJ04B6x/DWie4nN/2POrujMng8jDy7zX2XUGx2nNEGDuTQMgQiIrJMYV4rxrMK87wbfXfLGBGq8f5TJ9J1pxbB4yBAb7u03yKxO7DUsktgRMn1lcMwDQIUEZEFcqP1BTi41+/9hjUAxq70Nh7A76jrvPMTxwGOASLaHu72K4h2b7fKxBAQgbECDCJhlmdTB0VERJahzgJoAwC6NjNuKNMg+XCuzw6YD57fTcE72smzAHY9CDWa7Bor2r3JGIYei4SRyClRrN4XUQgKESfvhojcUoRG4Io8pmSt7BsK89I0Z2Pw2J8ZcOgOTt8uGE5/Frh5+oKBrTLRO10GL87gNRRgHZYcC8PUDyDy4HTeiTweC8gBWK59AQGEkxPkYpQW0Oc5/dosgBP3obNxPZ64/fZacwTsD+w3iKG01QoCH6I+Nq8Ap0sZyolHICIicoaGPmAArIOIupC+F4ZpVN04DyC1wn43gy61/49F8THbLqj/OnZ76NpNbVBDv62jBFbdBX2bCrDdDvvTBkTkYUWoK0DkEUQY5K4V/tSWgGREqV3pOXeU4m3W3P7KAK0qjWHTlEA/YtuRr46PD2MaMQdrO+izHTVg1Zo2+iAi0duqRY9E98lnlHf6ABJ5DBEBpi44kccQBnZ5CRcX0G+BDu9yC+UwmEFqNWRLYE5EBnwKAES9/0Mr7HzXtuPi0xMOYRYASK22fxAApoUGEtBGOuYMnz7nz7/pWXWXLcOIyEMyMwUAkUfiZrx+902dAZDW4EMdH7fumMrWaOUqxq65fL4U8GlN6N2/+nf+7tFjAOq1fLyuA9A+Q1KM6wF46+9PdJaIobDOazabHltf8NWw4evXb/jqL3+l4l/kEVjpoFszFJ2BIg8uwdU/9xPS7xgvnn/CdvOuLszjQZdqMC8faBxPRFsK2KYxAsd0AnS/7D49qu/gcHvDse1uj11LBhdXdVHD9SX2w8/44Q9/fst3TUTuwlXp+Ut3Lnzz2LsiskjjSrlvAlhf0IffulIfe1cLvGUA+Ka7Ov0oROQsbfNqWr1DRB7ZAzfGaRk+ERGRBVIAEBERWSAFABERkQVSABAREVkgBQAREZEFUgAQERFZIAUAERGRBVIAEBERWSAFABERkQVSABAREVkgBQAREZEFUgAQERFZIAUAERGRBVIAEBERWSAFABERkQVSABAREVkgBQAREZEFUgAQERFZIAUAERGRBVIAEBERWSAFABERkQVSABAREVkgBQAREZEFUgAQERFZIAUAERGRBVIAEBERWSAFABERkQVSABAREVkgBQAREZEFUgAQERFZIAUAERGRBVIAEBERWSAFABERkQVSABAREVkgBQAREZEFUgAQERFZIAUAERGRBVIAEBERWSAFABERkQVSABAREVkgBQAREZEFUgAQERFZIAUAERGRBVIAEBERWSAFABERkQXqHnsHjuHmEImSB4bc4+YYEHDr7W0ZQNTclMPohjU57jJHedvW57SAsNndYRiFzJYuNqzjLZlte7wfsT00v/36O2RAITPYmsEu6bnCbX3KAYs8qgAs0nSeGU4OJ4XXExCwMALw9ph0zIeHfK+4QZBwO9969KMHAIta2ER7E/eLv1YARpCzUcJxA6fQ+0B+YXj3Elabqai67RbzlgamV5zvHJhBlHp/ysTgQIa8Zng5AF+Q+8ujj9/NSVE/gMApqb0DkUhAwvAoFEu4B5nE1Srjr37NT5+/5fnmT7mMlxwbAMIcm73rQQc4OQawqPcko99suVyv6VLmq7cOn/2cX759AZd/nQ0KAO39vzAAACAASURBVHKectfRF2cYnNX6giEKsd3wojOif4vl+jGQIuFmDDaGf8eOqkLI98Vgmbh6zss377i6uiIiMDNKKaSUiHj6fx+PHgBuyywIM7LBcOn8zX/vb/P66vXRzxcWhNWEX+3SXAAeAxEODl3K0BspEjkS8VfwJ//DH3Nx2iEd8LY/9btSCphjXSZ1iegDLz2fXq34F3/zgv/w3/43+NT/CSlqIr3dtr2Ief2AA9xWgNNFj+FsysDFxQXDMJAC1inzJi75kp/wj/7vnv/uf3nFxj6703dA5KG8ffuWq+fPyKzwCFarFavk/Ff/2d/nZz98Qd9vwIJUMkHHkBJuzip8qrxUx7bAaXuu223q+Hv/4B/yrq9/B2PBD2BmCgD3ZUxXcdHz62df8uWLL49+rvEkTlHr27sAUFsbcq6/yIhg1QKAhWED2KsEXQ+bEw7mO7oPUkp4eE2XKRFE/VDqnB+9KPzM/5DfKH84dRXcart3vHVb2AUAzPEIur6jlEIZBrJ1lNVn/Dp+xP/+1Xsu4rdOOHiRx/Xs6gL3gX47EAYrMq/fvOTzFy/YvntLzgnCyWGEDQSptgi4k1rLmU/9iq7tgrYJ5+rygpwz7j4V+Ga1Mjm2CDxlTz4AjElq/JrfTob3lz3vLt5z+97/ujVq0Wfc1ALgBEG0ArhLHSkZFgnLhiWDNNzfwYeRcyJKwd1JyUgtgPZ9j29e83z4JZ8Of37c048BIKy9G4litQugiwEoWLeivK/HmFNH9APb8jW+Hvjxak0X7+/oYEUemlOK0/eFdb4kdR0eAz948YJ++55VChJDLfCpQTw5mDmZIIXjlsgBUFq/orZL2Xok3P1a4T8vrxQA7lh9Y3ffu8MxBf+4jYACtT8vdrV/gDAnWa7jAPD6qJTp6Gq3QL7LX+4YRfbHIgzDQMoJo/6RpZRZrTvy0JqY0gpLx/XBj3sfs38bCQzMU7sHigdd18HFBRYJ94RjDHtNoCLnJ5uRVplM7bsd+vfYZcf7N6/5wQ8+wX0LBOZBskSQiIAUA0btOgtNplqohA+1cmZm12r+T73whzMLAGPKmloCWrO8sWqPyLfemrUugFbw1YadTC3wM84wvZYDlFJTngfJx0L7/pRS6FYrshn9MFAIOgvA97onLIyw22+nYZcBWKImXCeoH3DhUcdBeoHteyiwXnWYGdvt9l6PXeS+Ddue9XrN0Nfz/MWLF/jmNZfrC4j6t28Y2YJ6ktTPnq5t3YIgPvDs8n1mFqTMtX7/sXwauwaesicfAA6b/YNZs0qAlwJejn5+b7MAfHqdceuzCQEGKQMJS9SaQIo7Kvutfa6k2rdEYv55MibJsRsCA/eB4gNBIUXUcQxRWwluvbWhHnP7oNu1P9TbLUFnThQoQ0+OjmSFLgcXqyf/5yPyncwyOSeGYeD9+/eUd2/JOdN1HUPp62SgoE4TtDEwt+7DaJ8hsjjGrvCfbjuDWv/c2X2CH77BZoGlOG4QnM3KWjsMAK3Z3wdIBrNJP4X6fRofc4/GFDmUATNjvV6Tywbz9trjh89R23FQC9Nh2/Rh1loHwjAMywlyHQQ5DAPb2GJ2/PRHkceXWF9c8X6zYZUv6dYrhuE9L158xuCF7TZIaTw55h/0KvClGscAjFJK05iAsWvgKTubAGBWS+v9MQC1EHOCZG1yxq22hyfyOMVj1gowfQAYQU9KK4oPdCnj9/rLHT9wSlsHIRNQZwBET0r1vXBoc/lvPwJi/3UcbNefaWQIw8NIqSPCsJ7WUrECW1HudAEkkYfXeyGt1hCZvjipW7HdbGrLW0qEjeOBqH/708lTBwiPi8HI8kxVxVnf/1j4awzAAzlcQOh22/mqd/OT+HBGQJm+H1cCtEjYA87zrM3/H/qDSrcv/a/t+vgch6/R3oNxnYS2IMr8e5FzN03laysC7qbI1mmA02Nmj09hLRA/wg7LE5DO/vPvzANALYhT5O9+6IeYtdb/+ly7vnh26T9SXXugOB0dFCNHhgKbk/8A9uvjN+xg67O4udkxxbjf7Vlusd3ZhSDbC0WtZyT29zC177Ucqpy7qaBvp1kcFPLQWgtjvK2e72Pff0zPIXJ+zjwAtJ7qExL4uI6/zQvyFgLq+uDe7m+PsXuo+c9H499KXcGgjeBrz3XLbRtYWHOIE60FYBoSYWPXQB00YeZt5HN73zUASs5enfHzwXutnmlTo9fe540Kfzlf5x0AbByBe2whFJQp5Y+je9sJ3b536hBgI+rIf2uz5YBIH66Zf7R2YaNxf77b/oqFxU4JQNEG/TltiAWlrTRkUaijJOqnX7TmzhyBp4GSyllfBEMEmK6DYW1p35tOpe9q6VIPgJyr8w4Ak1Nr5I6zX/DvP28bLjg2Edq4LNBd1X6/vQZSdyXNquUz0/zkU8zXuf4We2FF5NzdVHmoF8eqi/wYnhw+0OKXog1BVhCWM3XeASAgR+25Pm4aYMwGA9Ycn1oB522k724K0G5lvJ2HPvEPX2+8bOmxyxG3MQ9RmzUMo4txYeQacVJbHSCiLnpknknRkSNP75XIuUrtnLYWBtIUCrwNiJ2f87MhxOO68HBwUSBZipvqY+fmvAMAkB3GK+hOF7f7yG1tz/+u3+LB0Pl22d6DjsB7dFPwaPfE+OFz5AfQuABR0EIAs6WA2L098xkPUQdFaRCgfB/sjXW5Nldo/sCbWsh0Aiza92D809kHgKWoqyDe15OPyQh2iwuNrR/Rajtj4Jnfd/4ngIjIUp19ACgJPN226X/XBfDdDlYItHlzw0O0AoxTEa+vA+A2roNwZFP8DX2XYzlv7X9T28d4u42viwYBytnb/b3PLwR2w9/1jfP9Nfxv0b4HXaDnHQCsjYKfT1S/7RaYn/T+gUGAN3voGvDhh1OiWMLt+F+jtXZ+CwiMoa1t3bWpkN6mPUSbbpgt4ZYoZjUAfA9OAlmucdy/td5/gEwiLLWBwfOVQWdhO2B31VCdA0v0YL3A9+i8A8Dk2N/E7sRO43PsTQO0Gi5IJFJd4hHa9cHvcgGQj3ietj/XjNMS7sJHj2qpAwJFzttNf8NtOewYVwHcXxhrTssAy7k77wAQ46j940/CPA0MnCb3txva/GCrazsnS+CQravXBie3ysGJHwB7P/8xBflslHLb/5MG48V40Z/66rk99zi7MNG6S8bhAAHJg4yTYnYxIpEzNBXgNi4BfHC/ffcEWQ0FlHN13gGA00ejh/lsXMB+4R+zwq0uE+pk2mp5d3nWT2uK37YwnQ3UO/ZaAOYwm8Zk03UPZs+NYzHW+utUKSNqABA5ex8u3sfWvvHf1ycOfcT6GSJP1JkHACfMcSvf/dBveY7dIvmF/Vr42DxQan9gHsvOVGvEOe6gBvxdtf741qZ5N99dDdC41XYa7b+bC9VCTy3g6+iKuvxvzK6ZML6m2wnXYBB5AnYrAea23PfuvjQr8KelssZWL/O2EBBqBZOzdeYBYLcIx3wtu4/fzk/ceZL/0OA/J8iE1YIxnszlHn2XI44aBHk7mv8v3zfzwtxiDAbGFJBjvADQ7vHTFFm1ACzU+XeBnk0AiLYQjZmRkrXva///uBJgGtP6R29zG+QHuxLxoE/eh/oDgLEi2jiAKFYvB3pvZs3yZnipK5Ndrq/IZYtv23vBruvi9mX/PBLB7mqAbXEgjJQyeBsi2a2g9/opaEbWNCg5c6uU2Ww25JxY5cQw9KwvOiKCcCe12X+1m3AM2rV7bOx+9DMvBOQ446dfzJaKTinhvpu6bU+mknizswkAo4jYW5o7wghvi+S0rvDbbFvcn83pmC14Ywapm24bi7xMrlfHA+47/ZdS6FYrOuvoh4Htdssqhl0Amg9eHNfq/+jt+Cpp2gaZ2gUw3pbrSIDixLAle6K7WLNerT+0RLrImXC2my2XF1d4MYZtT+oSr19/TZcy6/WKobybTfnbnSdwSrejfF+kVC8VD+DuuLdB4+32MQw8VU8+AJjZlLAOtxiknCEd3xc9Tv9Ltju5W69gGwI3AAFeA0F463f3IJ1yHeJJ7NUqpub8qMdUA09NkmOaTKkjR4eRcTOireN/zHY0rgPgrQWgTi6sYx2G4iSM3K1gKDjB4IXN8LT/uEU+RkShlIIZXF5eEtZTSmEYbJplO9UPplk7ThCaCrhgwX7tnxu+f+qefACYq8vhzppVzOi9EPQcOwpgt8R9aSf3bonbMCdZre2HWe06yJmOTCRvXQP3WwjmnHF3Cl4LfjLGFkiUMgsGRlvU55Zbptb++r/23tZpgIGlTAwD1q3gYgXhbMuWSIX1enWvxy5y37r1ihJO160pAa9fv+bTy4732w08XxFBbe2LRJhRGJfkNoyoLZDqClukCKMMgbtPFdWU0lQ+1VD5tP82zioAAHs1YYDa+nLsCDirrfzsCsX2rMA4Ca5Nk4sAS5gXSgRWDCt3+csdg4fPvje6rmMoWwIjdXUsQD8MdR/MwHvCt0e/4v737dpo5kT01K6AFTk54RvYDkQZSGlFSgNd+vCFikTOQYmg7wvrHKSuo0uXBM7lJy/YlELu6uyASF29SLClOgMmVqRwLYe9ZCmTukxKaWqpBabySWMA7sC8SWVsAZhuL3D5fsXV6vLo559mEUwLCu2a+NwgZ5t+uauUoTcsDBvAPPHOXx/92h+xc5RSarLMGbNEKYUErFYr0sULvul+xiv7a0deC+Hg9SJRbA04XWxp8YfuqqOUQul7cpcp68/4Kn7IX/U9g13c3/GL3KtEzhnLHf37ILxntcp89fprVutLvLzFyIwXwwpLeKpLBFv4NAvIjSPH4Gh7ztti6Vpf/zwEPPXCH84gAIzMjLG9fhxoYZvMD99+wTqOb4oOi1YgXp8FEIDHQISDQ9cCQIpEjkRs4NfDlyccFeyuK35zTcLdW8u8TYly1V2Af8OvXmd+mf4VvuHzaYrSbbdjDb52iNh0XYEueoyBTXEuugsGBlJy1mnFm7jkS/sR33zes7FXpx2/yCN6+27D1fNnrNZ1RpCtMi8+/ZyXr1/zsx++oO830K55EXSUtg5GSuwPgh1bArRdzNZJvHu/qZWyWdP/YUvAU2bPf+/3H7UNd6yBjwPSdhPSxvvrG5qzUaLWyp1CX4L8mdF3v4LV5oQdGAfdTa843zkwg2jjA1KGwYEMeQ0vB7ryBRf98S0Q3hYUsbbmeEntHYiOBOQwnFIv+uNBJvNsFfirf8rPnr/l+eZPuYyXHD0GorUGjKJlwsyW2gqSwIx++57L1ZouZb565/DZX+OXb5/z7vKfZ2OfHX388nguy3t+/Ud/wEU54fw5c7nr6ItTeme1vmCIQmzf8UVnxPYtluv5kSLhZgztcyqHc48X6JYzMFgmrp7z8s07rq6upoLf3adugafu0VsADq+kdVgPrqNwjdJqyePqXBcpUd4OpPw5Pq6EB7fe3latNI8fAkY3rI94lp3Unqs2QKRri+w4QViqnROptoK8Hwr52Q/5C/+EdfdJK6yPCwA37NH0ynuu6sYCyvPEUC4YLi/oxztEzlAZBgxY5UR4TwZsteJtOGn1bErHFm1tzL2FgGTJ3CC2AxcXF3vT/eYz1566Rw8AxxgLzVQ6VuUsD+Fb7Eega/30FgSJgUsGu+Q9qn2LnKJOgPF52x/Fah/v/oPm9z/Ajoncs5s7nkVEROR7TQFARERkgRQAREREFkgBQEREZIEUAERERBZIAUBERGSBFABEREQWSAFARERkgRQAREREFkgBQEREZIEUAERERBZIAUBERGSBFABEREQWSAFARERkgRQAREREFkgBQEREZIEUAERERBZIAUBERGSBFABEREQWSAFARERkgRQAREREFkgBQEREZIEUAERERBZIAUBERGSBFABEREQWSAFARERkgRQAREREFkgBQEREZIEUAERERBZIAUBERGSBFABEREQWSAFARERkgRQAREREFkgBQEREZIEUAERERBZIAUBERGSBFABEREQWSAFARERkgRQAREREFkgBQEREZIEUAERERBZIAUBERGSBFABEREQWSAFARERkgRQAREREFqh7PrzDqUnglO2hw9unpBGGG7jVb+1OD0dEPtZV6VmXnrX3j70rIosUBwWgxU2lKXy4pB2f47iSu/vN8powsOC4LU4AbrWIT5GmAwmDSEFniRiCdV6z2fTYxZqv+i1fv37Fl3/5K4UAkUdwUXq2f/7HbIsCgMiDS3D1+Wekznjx/BO2m3d0CfCgS4aZUWL24FkASAQOhFm79bgAYHzy0+kljuOtGp/q1g+SihUIoCQg19SQM3z6Cel3/yVWqwvUEyHy8Nbe8/rP/oTOt4+9KyKLEwbl3Tfw9dfgBXyAZFAGwCESWLqhmTzYlbH5pH3oeP91fYHg9ltgLwAwvx0wh67t4DbqAeUOBoOXb/hrz/81/ur9QG+rkw5CRG4vIiCibkXkQaUInl095/Wvv4R+C0QtL7dDLUcz4GNBn2p5GlAL/3b7ieduR3l30hNMxpTibUfH28aw4mAkunRJD1CM4ZuvyPkFg6kTQOShmZkCgMgjsQhi+x42m1awD6QouBcMyGEMXtqjx1byWrbaVNMepnuPGbvXHVXz32sB4KCJwvfva49frTJDX+iHLaw6sGC1yh8a1yAiD8FqX6OIPCzDa3N/DLWp3wuUwCgkIMpAJrUiMlpROvb4162Tpjr2MduuPTdHbbn+vR3cbF0m+gIRJEt4QAwB6zQb4CAiIrIs3cpqKVwGMMfDyQk6S2xLbTqvxeT1mnItxMd4wFHbzloGOFXEYdEPhBM9EIlhSK0L4ILegDDCExFGmJKAyENT07/I4wmDYkCU2m3e+vgLYDmYZgTOitbxjL2ryvPJpf/YM7HfU1H7CAoJ3OlWqxoEAHev9+fa9GioCVLkMWgMgMjjCQKP2odP12bIDbUkLWMJ/20T5Np0/FN0qQ0iONZuWMCu6K98um/oN2QSdfZiG95oQYzJR0Qeh8YAiDyKFIZFAlrB721G3XwM/VizHk/RNqburhrNu7sqfg/7IiZtxz3GqQsryANYHQiouoeIiCxRCmrN3xNEnRoYxF7F3wFiN/6eOJwTcLwu7ngNnhLsUkBitzzAOOzQdl/F/IbEICIi8v1nker6OHur/B1OtNu1rtd/7VrXD5cSvq37W4Jv3mQxDwUP9PIiIiJPWUwFZS3ew9I0RQ/qNL/6uES0yX/zqX+n6urSvado/RZxkFKCOuWv9fHXvo4EketBeya76WpAIiKyODFeFC8xTc4fa/TXRvm328fxutPQgFMHAZ7243Xw33wQcSIxvzxBac0bY7MGwDCLOCr/RURkicJif4G90cGgv2pcdt9393FaO3p3akPCVPbPd/iG57TpNgdrNX/N/xcRkQWyaEXgYTf5jQvt3VSmVqeU4PfQCe/7/2oD/sbVjPzg6BQBRERkufxguzdW/sbH3lXL+R10AewX4uOFBrjx9lT7/20cD6AxACIisjxhrc9/XtLfskZ8agX63obhT1lmdnD7TRXjEWsmgIiIyGg2g/5e68gqfUVERBZIAUBERGSBFABEREQWSAFARERkgRQAREREFkgBQEREZIEUAERERBZIAUBERGSBFABEREQWSAFARERkgRQAREREFkgBQEREZIEUAERERBZIAUBERGSBFABEREQWSAFARERkgRQAREREFkgBQEREZIEUAERERBZIAUBERGSBFABEREQWSAFARERkgRQAREREFkgBQEREZIEUAERERBZIAUBERGSBFABEREQWSAFARERkgRQAREREFuhOAoCd8MSG38UuiIiInJ9IEG3LzeXprkS92zp7d8oPG7vdKVG3iQStUDcg4vCnAsLrT1q9M117jIjcN9N5J/JoLBIW1gJALRetlpqzR40l7Ly0vTsdU4F97Ha3e+MOGqkdwvXavWHT4VnwobgjIiLyPeb7WwsgiACflZ1BYhcKvN02K1vHzHDEtrvetHDb7dwNt8Xh/am+crQvA1cIEHlwofNO5NHUIrBAKtSCcqjFpc+LTQeb3XDYQDDeduS2u5ZCbrENdkklWouATyGg3o+1+2N3O5bBor4BiIiILJC1An5eEh4W8vOW8vjA/UduO9Jpg/Bi2rmxoD9ompjKfYdwwnLt9M+JkooSgIiILI5Fa/Wflf9jUTqrLgOzsXSt8L+r8TsnDQLcM08oh7ddEyr4RURk0VKM3eI3V4bHkXZTURq72/cfdZzOTpyFlwCfled5dl+Z7bn57mDC6z+yQoCIiCyUkyFyK0DHwX5lNsRvN+ZuN7DeD+4/IQDcxcSCll8w9iv9NgsGdehfwiLV8QJR/20aiCQiIgsTY8FtbUp8lDowN+al8nwaYEzfxzQT77QSvPOTewHGLFITyrWxCQkoTu4uKMNQD9pW7QH3M7dRRETkqStELduztdn1xtQdYNaay2GvnJwGAZ6+iN6Jpf84A+Dwltl3bapfP/T1BVNHn+sRpC4TrpUARR6NGaZmOJEHZ+ZYAqLs+sV9FgjKQZV6Ok19/98n6ILhpCcA9mYBXBsEmA08SOG4Qxkn/a86sEJE4NeXCxSRexYREFG3IvKwIlhFtMFxDsWnbvREULw1AtQH76YC2F3PAjhhJaGJTce0z8cDbD+Uoh4VjrXah2ogIo8g6bwTeUzDMNTR8ta1BX/qSoBR6oD6iF0AmIrcO5xE152yitDN5n36Pg5qpHhgJHJatyWCEptNj3XPFABEHoFpHW6Rx5VWQKqj6Ml1kdwYcCB3HWXYHwOwWwL4sOn/uKX8O/LV8S0AE68jGWG3Hfsp1isYtlCMSCv6AuQE6zX27DP6DbjGAYg8OA9XF4DIIykYF5fPobuorQCR6gQAMyJgcFpAgOtLAx0ODjw2AKw/P6ELYL7qXxqPaie1ELC6qoW+WZ14mBM8/4R/9rZnvb6qV0QSkQdlmAYBijwSN+PVtq8BYJVg2LSydQ1EHReQcp0WeDjob7yiLuN9RwaAv/l3/uM6UD+49Xa+Q9ECwLi84Vimhzk5Z6wYpRTMMvnZc3755hWDF379y1/qcsAijyC8h4srotzdgqAi8nHc4PPf+gn+2/8Cn774hNJvwAvZjK5LDGPzf6TpgnlprwUgza69c2QA+IvVi6MvBrx3MLPduPH2jjrkMAwfwK9+UN+Av/6FeiJFHsFF6ek3Wy5889i7IrJIQyv9Xg5gdrFbSvemQvZbHdeM333TXZ1+FCJylrZ5hd3BgiIicn60DJ+IiMgCKQCIiIgskAKAiIjIAikAiIiILJACgIiIyAIpAIiIiCyQAoCIiMgCKQCIiIgskAKAiIjIAikAiIiILJACgIiIyAIpAIiIiCyQAoCIiMgCKQCIiIgskAKAiIjIAikAiIiILJACgIiIyAIpAIiIiCyQAoCIiMgCKQCIiIgskAKAiIjIAikAiIiILJACgIiIyAIpAIiIiCyQAoCIiMgCKQCIiIgskAKAiIjIAikAiIiILJACgIiIyAIpAIiIiCyQAoCIiMgCKQCIiIgskAKAiIjIAikAiIiILJACgIiIyAIpAIiIiCyQAoCIiMgCKQCIiIgskAKAiIjIAikAiIiILJACgIiIyAIpAIiIiCyQAoCIiMgCKQCIiIgskAKAiIjIAnWPvQPHcHOIRMkDfe6J5BCAcdz2Q+zg+5jdHIkcRjesyXGXOcrbtj6nBcR8P8IwCpktXWxY84Yc/dGHfv0QrR3jh9+YINPbmoELtvYMt/UpByzyJIx/8YaTw0mzc8Ci3hOzGyx254ssjxsECbfzrUc/egCwqAVetDdxv/hrBWAEORslHDdwCr0PpE+NeP4WVpsT9sAPvj/8ZZbZznbQF8IypBXDl1vgC3J/efyrm5MCLBLglNT2JxIJiOJ060wfMAyFVVpxkYPh5V/y8y+2fF5+wVV8OQWF22/3jzfI9V2IHswJEl3Xsdm8I5mxzmve9Ble/Jw/e3XBq+53eK8AIGfKcv18KYORVx19vyGVLT9+ccWawK3HAlJ0EIkh1eicwqln7Pl++MtpBsu8LsHLN++4uroiIjAzSimklIj4ttrl0/DoAeC2zIIwIxsMF87v/rt/i1dXr9vJyO22FqRgdgtY2FTj9nrDdH9nCdvWQjOTKX9R+MX/+MdcnBAArvOpgAZwd7wAKZO6DA7hA589W/M3fgr/0b/1t/nM//HJr5oiUes8GSzoYgsEQ3Gsy/jQky2x7ta87ld8aT/iH/3JwH/7P3/Dez4/+fVFHp5Teievunqe9T3Pnj3jggv+8//0P+HHL65wG7CA7Bkn0ef6OdG5Y9SALMu0TWv+3j/4h7zra6VtLPgBzEwB4L6M6SrWPa+ff81XL46tAXstaKd29lQLQoOxII4o0y+zS5nUG+aJKAFrg9yfdjDf0X2QcybCcXcsZyKCfthgOfjRc+cn2z/iN4Y/PG0faAHAEt7+JLrYgpUaPIaED0O9vazo8wt+5V/wf7zsuYjfBH5+8uuLPIacMwmjSxkn6Ddb3nz9az559ox+u2G1ah/orajPrcKQwzGCwNvnhSxNwrm6vCDnjLtPBb5Z/YMYWwSesicfAMbCd/ya306Gd/kdb7s3HD8AoKa3XVP4rgUgav9DDQgedGmFWZCtgyEROcAOuxDuUBhdlxnKFncnJSOnhLkxDAPD5hWfxK/4LH5Zg0QbG3Gr7d7rpf+/vXNbbiNJzvCXWQ2QmtFoZne9tu82fOlH9Mv4lXzla4fDN3Y4ZnasnR2RRFemL6r6QJCalQBSItj/FwEVDkI3GkR3/pWnItn17+MAObZA1/QjrsBYudr/jrweeWfGkH94vuMX4pnxhMPNLcNwzVAGIkd+98PvyBrsy4B3D2DJab7frh1u4JnNi/i1D0J8FZLaPEdHxn9tryQAnpj2xS6PzYcWyDstCMDs+jdoosDntJ4gwLIl/ni0hB9z3AZwSH/KP671z+Krx82tZGZYN9ZmVnzASwAADxlJREFUxm4/UA7Wfnju4KW7NeyE8fgz9GMyAwoZkJH4MMAwQN5S0zhUY4wWjhHikhmGocVuDwfG8Y7rfeHmL3/lD3/3jtvxAwAZgWFzzpJlhYz5VBLbI9OIemjeWbMHM/+XbvzhwgTApLJmT0BmV1+wJPN9ztjvWxLZPQLTpnsYYKUGqFSsFkavEA71GWf/nVoru31hcGeslTGCYrV5IooR0VTo6UmAyzGkLXnPniNGYMOeGA9krZg5lIL1OJeufOLSubu74831NTWauH779i315j273Y56GBnKOtXP5ohdCXCbMsHFFnH3+Qb3Z//AHBp4ybx4AXDs9k/uu1XcvRmmU7c//du36UfVCHOpnLe5eWb/g6fTMwjPpF9BZpe837uirI/VrM36KwfCKkmlWOJW++ucMC4iyLBVGWBtR593GJWsI0QPCewOFEvKUJ7g+IX4elxdXZHAOI5kJmMWiGC327WLebQkQHJsMmBKzmVsExBp4M2SLEl/E5cw61/z4gXAMcdfcORIMp5RBD9LAEijrssCDchoZX9A0FzxYQW3JJ8z/t9x92b0MzF3dvs9Q9xhYdzzYpxCfuy90V0EwXgYGfZXsCs9ByABp2reIy4e5xCVWitv9t8SwM3NB97udkQEw37PWA+YJRbZ5LE1oV7CYJUec3oOksZLHacJ2XqWP12vs3unX7oguBgBYD1efS8HwIKcZuHT9/xZ49qA+vps7kwhgBFwksB9YIxbBnbYszYBmZTllAPQjj1yJLPOn7uV7vmJDYD6PrqQaSlOBhSMAAwvA2Qhw7A0cCcZqOEE8gCIy8bMKMOeMYKawbDbUccPBMldHcGaoy+mE2dmvgj1e+fkIGm8xHH2lq5i/5PxVw7AlyBb+drp+CP37ZHn6vzYMEjrVQNfbhacmY8IlPaZzuvo3CsCAGza1uq5KTlxOtR0Yp359KRdEIX4ssypPysD/1upLZPLP7owaKG76VXXuLXxwq9/ly0AcEo4JcvJSXDT2dsMevuDzq79aWbc4/5Zg4EBKpRsLvHbs38Ay3z8cbqx/Ui4oXURbJuZIhqfOvYt9N3E3Hzo3t7X217vs49CXDwW8BFvVrIy9vffRPQKIRUCikvlwgVAYzJcnzs2jlVdEwN5VCvf+n5PM+Qntnxzt8FT3tvDGCeFQI6JuazP5vBIEx85eT4s5gtfGDxrHwQhnpVYTQQW1teH6WxoE4P23OItePkuXiF+i4sXANWD0U81QuszvW1jCilM3QDb9HfpBVCZn2p9AM41gLZ2t3+KsPDVDaoFcfLxr0RR33v1KcbV8gwyrTlGsl0ESybhI9XrRS+CIcSEdY+W5eMmfZn9r8JtyTI5OCcRV4ivyGULgPlsfYoZeXPFx0cMepcAfdYL1Zib85zPx12QywfwY9fFEzEZ8ZbYsp4RNa/H8hn93v8X4vKZc4itnwErMeBHnkLr0brpNPTsUwQ5AjbK5Qu/yxYAM6eegeszvCe73SNW2z5KA047Y7+ncvz5nJKOx4lGOX119fKWEW0O2FIFQGJ4Vz4OWRhyoGQ5MwFTiK+Lr2b8lu3setzwR68E6OfLkefrWXS5ePG8Bt132QLg7BPvQW3PvcWAlpKPVflc+rw8wJc58T+eczAvI3yuIV7FM+e8yGwv3EsY7KkK5koCFK+FZRZnCUzhNGutf49/4q0YGLy/z3kN80CxVS5bAECvAjjVALYV/yZT31r9TCt+LXZxWvQzsznqM/v/+YIGsHVBfIif8zlmX2esypqnhMTa8xOMuQxysvw29ufkARCXS1gz6P0Rae0WPbG2JcT2plgPwn2r/iFCXCgX/+sNYy7b+/zxoXrP1S0siNX0N6091y4UX6oNaEtE/Nja0lNOwkk3jsZecZjHrxvMPQKsfz+G2qCKV0XYEtNf4vrr8y5m7+DcD+BLfkDxsngFIdDL9gBYz4JnUugnjADEnOJ2X+kvr9e+v+kCYQZ5Rvb9aSy+CmgXrGpBlBMXA1qVQE5e/6CAGUPPAYg0zJzM9rzhjD4weiFWiwcJcYnEHPryWdjSe4IErQzYM1cO/1UVANNE4vINgfh8XkPy5yv55Z5aBL8kwC1T3dVJfu/19n8mkx/whArwE7bzaMVB3K9N/txxLmPqu8gp0W+dV7Ac+/J4/ct/JT8hsUGWktr5Yp7eDPqqMdhvp3vp9y8ul8v2ACR4Fs47jPuxvKUPwNrUT5nwUGzAInFa98HDuReAeyLiUyRlrG5TMuJpngjL9Wym3RmOtuVT4t/iDMFp3/jchVCIC2XygpkMudggly0AeKxs59OZkn1g2sZUBz+V/XRjmLS1v4mlPO5ejfyZ9CY7pzQVmucn0/s/ZwRY+zTSW2zDgJwSA3vYIaci6GBaBsNXzVCEuFw+vaxvutasAnEP3i/EpXDxAiC9EnY4YwvNgIUlUPF7C+5MXUJqjwf2p+eY3xktfGf+1qz/t6fZzT/hy2f6jLF5DqILgl4NQGuDbFMnQKy/pYuUTMJG0tQJUFw+NnvSyoPSXl81/lnK/abzpeXduEGc6IETl81r8H5euABYZvCnv3+576wN+/Hr0+PC0iDo62eBePriyv/s1axgbnd87zHLoa1KIucsgHnm/wrOACFYuvpNi2LZfI7HlDG7LAtMv/jPJbMSwpvE4uI9oC9eAKzL31ot/NrotA51pyuxdZMdWzXE6ZnBBhmBl9amt9geq1B8wEbrufPPRQ9NuFPjQBCUYWAoO7zekqNRKF20nHoBWnL/Gw5W+sWvdwSMgFKaFyAMaoBnny1JAIjLxhMyK5nGfjdwd3eDeeLu91bPnEKDTE3CVhcdP9sLKC6RKRy0tlHuTkTMz9ujS7i/HF68ADAzMnO5ka0T3/TFWiHtb/TR/01WiwDZkhjX3OCFLNbc4CQ5mcZcCZFnrgWttVKGQsGotXKokDESEZhZ+7FFZTHmnzuuLl45hUKmlKiE/RX1UIkIig14Gkah+A4/63sX4uvi2XJ6hmHHr3+9o9TK9TfXjL/+zK4M1HrHsGvVMWbZwmYGUMDqXEA4LRescVtjuuHelooHiAgigsycn5/EwEvlxQuANZl55HV/umY883YebM96Y6CcHQRTTwB/kihALrOKudcukM241lrZ7ffzbNvdcQYsvAkfZwlWniQA1kbcCdutvobAGIgMzAd8dwVjBTMCY1TsU1w4h8OBq2HHfj9g1i7oZsbNzQ3XbwpjHXtOrBEk4zRByN4fwIxcLaKlcTtjpT5o0Paxhm0vlRcvACYPwPFz/c6ZW4+j+49kxs+GMkmizXrNoOYj23h63J3MpNbWerf4gONkttn/1Jnw4ef+lHHeSw9z2tInoGuEGEcqyVUZWsQlKpUKg2Kf4vK5urriEJVSBsZI3r9/z9v9jtvDHcO7d4wkngnewm1uba0QD2PKG1pKCdG4pbHsqGPO3thp5j/Zp1qrQgBPifUStflLTbCskPWMjXZDPve8z4ev0bLk2+6DjBEL42nFXp/9z8a5WeBSSnMrhWGlGf08VGbPkhvLggCfe6OHPCYvRHd1Qh8TPBi8lQ7m4RZq4PtgKMl+eNk/biF+izAgg8NdZbcb8GFg528YCnzz7nuqGWO2XJ+SpXm9rC0HNFJoJ426YW6VmoYPZZ6kTRPVyT4pB+AZMLMl9l3h7eFbDne3J21rWfRjMoT+sBGQ9z9sJPsyEKPhXXOU0fkx/vI0B/YYlkRNsKCUAu6Mh2BHm7nY/h3v7cAb/xOn9gGYf5/ZuqFV2wFByUMTO96+81orBRiuBm7tW346/JE/jyOV6+c7fiGeFQd3dtcDGYXD2GZsP/30E5HGr7e3DPuBakELeznVWqdAJ+aTJ6dt3VtBVONrH6v5g1j/WgS8dOMPFygAYEm2sBvnzU9XxK9vT9pOi+nnnNjXuO/WTk8yAwsYSiEPhmdbgTB/gR/Hn845lG6MH+533n+2mfi0GmBmsttd4TnwP/9X+I/DP/NjfM+pP2SH3g+gCwC6AOCAZVtnoZRCjJWhFPZW+OVu4M/+j/z5m5Ebe0YBJMQzE0Ez7pFEwpvrN3z39//Ajz//zB+/u+bDhw+t8VUUkoGDtz4Z+1i8dc2TcIIA13jR4+gDH25uqbXec/0fewJeMvbtv/zrV/VgTW1spwU1oj/v89hm++5QM0g3gsqhJv4OxuFH2J3mAWgf4GiP6xUeLJvKz770rRcYAyhQ9vDzyK7+nv14+iw4etfB5oEI6rTAUA44MOCMcSDLQESSY/LdteO//je/37/nm7v/5Crfn7x/I+ZylrYaWtOEzgEnGAOGYaAebinm7K3w/s4oP/yJ//rliptv/olb++7k/Yuvx3W94cd//zeu6hnnz4Vj7tzdjQzDHvPC4XBHiQNvrbJjpC8DhmXrf9k8ADBEzCFChQC2SbUC19/y8y8fePPmzWz4m73yi0gI/OoegOOVtI7nwdH78DahXnoDDrhyp34YGfyHxWh+IaZSwRLGUPdnbWsKOTTd4Q/aGtcM8IJlUgwYnJuxUvbf8795zbB7R8nxjE8wr4M4FUTee36WR71YwBLq3qnjFYdvrjjw5ox9C/F1yQh2g0MGGcFQDCsDt+kcshzlCC3VQuPLn9yJZyYM8m7k6urqXrnfY4nrL5WvLgBOYTKaXgeoF3kIv8FRCOL4QmNJ4oxcM9o18P0X+2RCvFosWJ9q1VqMd3n9/n+vEgDiFfB44FkIIYQQrxoJACGEEGKDSAAIIYQQG0QCQAghhNggEgBCCCHEBpEAEEIIITaIBIAQQgixQSQAhBBCiA0iASCEEEJsEAkAIYQQYoNIAAghhBAbRAJACCGE2CASAEIIIcQGkQAQQgghNogEgBBCCLFBJACEEEKIDSIBIIQQQmwQCQAhhBBig0gACCGEEBtEAkAIIYTYIBIAQgghxAaRABBCCCE2iASAEEIIsUEkAIQQQogNIgEghBBCbBAJACGEEGKDSAAIIYQQG0QCQAghhNggEgBCCCHEBpEAEEIIITaIBIAQQgixQSQAhBBCiA0iASCEEEJsEAkAIYQQYoNIAAghhBAbRAJACCGE2CASAEIIIcQGkQAQQgghNogEgBBCCLFBJACEEEKIDSIBIIQQQmwQCQAhhBBig0gACCGEEBtEAkAIIYTYIBIAQgghxAaRABBCCCE2yP8DXvi7ovE8yIkAAAAASUVORK5CYII=;" vertex="1" parent="aiQ5Y6wMSga_zLsW2kGR-32">
          <mxGeometry width="100" height="100" as="geometry" />
        </mxCell>
        <mxCell id="aiQ5Y6wMSga_zLsW2kGR-4" value="&lt;b&gt;&lt;font style=&quot;font-size: 14px;&quot;&gt;Server&lt;/font&gt;&lt;/b&gt;" style="text;html=1;strokeColor=none;fillColor=none;align=center;verticalAlign=middle;whiteSpace=wrap;rounded=0;" vertex="1" parent="aiQ5Y6wMSga_zLsW2kGR-32">
          <mxGeometry x="20" y="110" width="60" height="30" as="geometry" />
        </mxCell>
        <mxCell id="aiQ5Y6wMSga_zLsW2kGR-33" value="" style="endArrow=classic;html=1;rounded=0;strokeWidth=4;" edge="1" parent="1">
          <mxGeometry width="50" height="50" relative="1" as="geometry">
            <mxPoint x="391" y="322" as="sourcePoint" />
            <mxPoint x="626" y="322" as="targetPoint" />
          </mxGeometry>
        </mxCell>
        <mxCell id="aiQ5Y6wMSga_zLsW2kGR-34" value="SEQ=10&lt;b&gt;1&lt;/b&gt;" style="text;html=1;strokeColor=#82b366;fillColor=#d5e8d4;align=center;verticalAlign=middle;whiteSpace=wrap;rounded=0;" vertex="1" parent="1">
          <mxGeometry x="392.5" y="299" width="60" height="20.5" as="geometry" />
        </mxCell>
        <mxCell id="aiQ5Y6wMSga_zLsW2kGR-35" value="ACK=301" style="text;html=1;strokeColor=#82b366;fillColor=#d5e8d4;align=center;verticalAlign=middle;whiteSpace=wrap;rounded=0;" vertex="1" parent="1">
          <mxGeometry x="452.5" y="299" width="60" height="20.5" as="geometry" />
        </mxCell>
        <mxCell id="aiQ5Y6wMSga_zLsW2kGR-36" value="CTL=ACK" style="text;html=1;strokeColor=#82b366;fillColor=#d5e8d4;align=center;verticalAlign=middle;whiteSpace=wrap;rounded=0;" vertex="1" parent="1">
          <mxGeometry x="520.5" y="427" width="60" height="20.5" as="geometry" />
        </mxCell>
        <mxCell id="aiQ5Y6wMSga_zLsW2kGR-37" value="&amp;lt;SEQ=101&amp;gt;&amp;lt;ACK=301&amp;gt;&amp;lt;CTL=ACK&amp;gt;" style="text;html=1;strokeColor=#82b366;fillColor=#d5e8d4;align=center;verticalAlign=middle;whiteSpace=wrap;rounded=0;" vertex="1" parent="1">
          <mxGeometry x="392.5" y="324" width="207" height="30" as="geometry" />
        </mxCell>
        <mxCell id="aiQ5Y6wMSga_zLsW2kGR-38" value="ESTABLISHED" style="text;html=1;strokeColor=#b85450;fillColor=#f8cecc;align=center;verticalAlign=middle;whiteSpace=wrap;rounded=0;" vertex="1" parent="1">
          <mxGeometry x="676.5" y="394" width="88" height="20" as="geometry" />
        </mxCell>
        <mxCell id="aiQ5Y6wMSga_zLsW2kGR-39" value="ESTABLISHED" style="text;html=1;strokeColor=#82b366;fillColor=#d5e8d4;align=center;verticalAlign=middle;whiteSpace=wrap;rounded=0;" vertex="1" parent="1">
          <mxGeometry x="392.5" y="394" width="88" height="20" as="geometry" />
        </mxCell>
        <mxCell id="aiQ5Y6wMSga_zLsW2kGR-40" value="" style="endArrow=classic;html=1;rounded=0;strokeWidth=4;" edge="1" parent="1">
          <mxGeometry width="50" height="50" relative="1" as="geometry">
            <mxPoint x="390" y="450" as="sourcePoint" />
            <mxPoint x="739" y="450" as="targetPoint" />
          </mxGeometry>
        </mxCell>
        <mxCell id="aiQ5Y6wMSga_zLsW2kGR-41" value="SEQ=101" style="text;html=1;strokeColor=#82b366;fillColor=#d5e8d4;align=center;verticalAlign=middle;whiteSpace=wrap;rounded=0;" vertex="1" parent="1">
          <mxGeometry x="392.5" y="427" width="60" height="20.5" as="geometry" />
        </mxCell>
        <mxCell id="aiQ5Y6wMSga_zLsW2kGR-42" value="ACK=301" style="text;html=1;strokeColor=#82b366;fillColor=#d5e8d4;align=center;verticalAlign=middle;whiteSpace=wrap;rounded=0;" vertex="1" parent="1">
          <mxGeometry x="460.5" y="427" width="60" height="20.5" as="geometry" />
        </mxCell>
        <mxCell id="aiQ5Y6wMSga_zLsW2kGR-44" value="&amp;lt;SEQ=101&amp;gt;&amp;lt;ACK=301&amp;gt;&amp;lt;CTL=ACK&amp;gt;&amp;lt;DATA&amp;gt;" style="text;html=1;strokeColor=#82b366;fillColor=#d5e8d4;align=center;verticalAlign=middle;whiteSpace=wrap;rounded=0;" vertex="1" parent="1">
          <mxGeometry x="393" y="453" width="251" height="28" as="geometry" />
        </mxCell>
        <mxCell id="aiQ5Y6wMSga_zLsW2kGR-47" value="DATA" style="text;html=1;strokeColor=#82b366;fillColor=#d5e8d4;align=center;verticalAlign=middle;whiteSpace=wrap;rounded=0;" vertex="1" parent="1">
          <mxGeometry x="572" y="427" width="60" height="20.5" as="geometry" />
        </mxCell>
        <mxCell id="aiQ5Y6wMSga_zLsW2kGR-48" value="CTL=ACK" style="text;html=1;strokeColor=#82b366;fillColor=#d5e8d4;align=center;verticalAlign=middle;whiteSpace=wrap;rounded=0;" vertex="1" parent="1">
          <mxGeometry x="512" y="427" width="60" height="20.5" as="geometry" />
        </mxCell>
        <mxCell id="aiQ5Y6wMSga_zLsW2kGR-49" value="ACK=301" style="text;html=1;strokeColor=#82b366;fillColor=#d5e8d4;align=center;verticalAlign=middle;whiteSpace=wrap;rounded=0;" vertex="1" parent="1">
          <mxGeometry x="452" y="427" width="60" height="20.5" as="geometry" />
        </mxCell>
      </root>
    </mxGraphModel>
  </diagram>
</mxfile>
